<mxfile host="app.diagrams.net" agent="Mozilla/5.0 (Windows NT 10.0; Win64; x64) AppleWebKit/537.36 (KHTML, like Gecko) Chrome/136.0.0.0 Safari/537.36" version="27.1.1">
  <diagram name="Page-1" id="Hdp2bP9WDao1IwHgQn7P">
    <mxGraphModel dx="1904" dy="1992" grid="1" gridSize="10" guides="1" tooltips="1" connect="1" arrows="1" fold="1" page="1" pageScale="1" pageWidth="827" pageHeight="1169" math="0" shadow="0">
      <root>
        <mxCell id="0" />
        <mxCell id="1" parent="0" />
        <mxCell id="BoxAjfrPNr9ojbooBodM-136" value="" style="shape=image;verticalLabelPosition=bottom;labelBackgroundColor=default;verticalAlign=top;aspect=fixed;imageAspect=0;image=data:image/png,iVBORw0KGgoAAAANSUhEUgAAAX8AAAHkCAYAAADW5S/nAAAgAElEQVR4nOx9CXRU53n2hyQWCQkkBBISCCQkNoFsFtksNja2sYm3eImdxm6b/HbzH7tJmzSp86dJ2j9Oszht07RNm5w48Z80sesldoIdbAw2DtjYgIwAsUhil0AgoV1CG5KQ9J/nMo/y8vnOaLTP8j7n3DOamTt37r0Mz/t+z7uN6enpMQpFsOLIkSNxJSUlK86ePZvT3t4eExUV1R4dHd2UlpZWkJGRkZ+RkdGl/7gKxUcRpfdEEYx4/fXX17/xxhvf+PDDD9fU19eb9vZ2Ex0dbbq7u01nZ6eJjY0106ZNM9ddd91Lixcv3rJy5cr/yczM7NB/bIXiMtTzVwQV8vPz01966aUfbtmy5b6GhgbT1tZmIiIizNixY82YMWOcS8HzqKgo5xEGYcaMGSYrK2vrNddc89LKlSufnzdvXqv+qyvCHUr+iqDBvn370p566qn3du3alQ5Sh8cPkgck8QN4PTIy0lkFJCcnm7i4OGc1MG/evI133333P65duzZf/+UV4YzIJ598Un8AiqDAl7/85Q937dqV1dHRYRobG8348eM/ctogfxoCPE6YMMFgf8hCeN7e3j7//PnzM1taWjqys7OL9F9eEa5QzV8x6sjLy5vf2toan5KSUrRgwYImt/P58Y9//I3t27fP7+rqcoh80qRJ5uLFi453L4H34fVjRYutsrLS2Qde/7hx48ylS5dMXV3dHW1tbfGNjY3Jjz766I/1F6AIRyj5K4YNyMQp2F9w35ub3/xSV1fXuL/927/92NKlS8v4fYcOHUr+2c9+9tzBgwfXwZOfPn1666xZswomTZpUOXPmzEMpKSlHp0yZUnbo0KH1v/nNb74BXR+Ax48NRsB4PHzKlyR9vIbgL4gfn4P8U15ebhITE83kyZNNSUnJ6u7u7sienp7Iv/iLv/iR/goU4QYlf8WQ48UXXvz05i2bv3Tw4MElpaWlDgnDU7/jjjtuWrp06a/xfcePH4/5yU9+8nJeXt4akDWIubi4OGb8+PGrY2JiQN73wVtftmyZKSgocGQeEPmFCxecLB48j4+PN62trQ7Rw+OH5INHfA7HxHvw9vE3XscjDMa5c+dMQkICgsEr8vLyuqZOnVpyzz33bNRfgiKcoOSvGDSOHTsWc/jw4fXvv//+Izt27Li7oqLC1NbWOt45CBeeN55v3779MeTj7927997S0tIskDCIG2QO4wBiBsFDzoHBwOeLiopMc3Ozo90js2fq1KnOeyD6pqYmh9zxnI/M8qEhwLGYDcQAMLaamhpHAoqKjFr9zjvvfD4hIaHshhtuKNBfgyJcoOSvGDCKi4vj33jjjb/btXPXnx8uPJwKfZ0EDO8b5Aqi9Xjy8PZXd3R0rN62bZtD5NgPWTgIyGJfO4CLY+B48PDh6YPIk5KSzOnTp82sWbNMWVmZsw+OReOA7wJsowDDgkcaDmwtLS2muqbaRERGrN+9e/chJX9FOEHJX9FvbNy48Y7Nmzc/sXv37ptA+PDMqa+DxEH00NZTU1PNVVdd5ZA7yBZaO8gehIx9Qb5VVVW9r8NTx3OQPVI54a2DtCEJgezxPSB4vMdCLhyHJI/3YEDwfTAsJH2cD3P/8Rz7Ejj/aVOnGaxGXnvttfdU/lGEC5T8FX5h27ZtK/bt23ff9u3bP5ufn58I4oYnDrIFyYNcQbqQb/De6tWrneKq8+fPO946XgN5A7fffrv54IMPHAIHeUOCSUlJcY6B4+F1GA8AxgRkj0eQNjx8ykL4PjwaT5YPgM9CasJxQfbYB8ekkUAcAMeiDARj0NDYgGBz1t69e+9T8leEC5T8FT7x29/+9oE333zzibfffnsFiBLE68nMcbR6BE5BrnV1db1ke9dddznkDbJfu3Ztb649CBpePD5/7733mjfffNOcPHnSIWwcmxk7OB7kGxgMBnJJ6HjO7B6mdOKRr9Prx+tYGdBQUOrhsbA/DQSKxbDyKC4uvul3v/vdfffff/8G/VUoQh1K/oqPACmaW7du/QICtDt27EgDMYMkQcogbnjNJGoEd0G4INmZM2eaVatWmUWLFiEI7Mg5IFjsC68dn4V8g7+h199yyy1O0BaeP1cNlIi4P5+DrPEan4PQeR40Cnikpw8wngA5CN4+PscVADZ8lsfzGIz0goKCu5X8FeEArfBV9GLLli03Pf300z/82c9+9uvf/OY3NxcWFk6mNw2iRS8dkOfs2bMdYoVnz3TKOXPmmDVr1pgbbrjB2efIkSOOMQCx7ty50xw4cMCcOXPG8bKxYmAwGN45Xsd+WC2AxOHxT5kyxXkfxyc541wYUyDpU8+XqZ44H2b4YAVB40QDYTy1AdwfshWykTyVw6mlpaVpDQ0NEVFRUaenTJmiXUEVIQklf4V56aWXHv7nf/7n//nVr371f957772F8MSNhyBB8HikNw0yhYdO/R4Aya9cudJkZGQ4BIoNMhD2w+PZs2edFQG8fuT9QwaCbATCZfYO/paBWGbpIK8fJA6iJvEb0cOHrzPoi++mrIN9GScwnniAEX2AsA9egyHDa0gjbWtriy0vL1/x7rvv/unBgwfvbmpq6po4ceJhNQKKUIOSf5iioKAgddOmTZ/+4he/+OGrr776ib179ybD46ZOTqkE5IznIEcSJUidRVOQdnJzc83cuXOdz4Ks0UiNHji86qNHjzoSTn5+vnMMGARm9EBSAvljVUHCh3c+ceJEx+tnSiizd2TfHkIaBH4er/GcGUjmc77HrCQWgsGgUULat28fUlOn79279+PV1dWrJk+eXDBr1qyqcP/dKEIHqvmHGfbv35+2e/fuh7ds2YIK3GSmaTIjBsQMIsRzkjk8b2bhgJThSbOH/vz589Euubf6FoQOI4L9kUaJ5zAGeH7NNdc4n4URgPQD3V963iB7/I3jskdPX5D7MQ7AoC6ziYzHQOAc8B0SeI7XYQDwWRgbGDdWDyN2UVtbu666uvp3NTU1X9ZsIEWoQMk/TIDmaZs2bfrq66+//gg0dkolDIRSPgERgkw9DdB6s26okRtP/xysBrAfiJ0pn8zzBxYuXOhk9rAqF2SPVQKOs2TJEufYLLyCgQDwHMdjn34WbPkCVwOMB4DE2deHgWZmE3EVIAHjgXNH4BmZSwBSVK+//nrnvT/84Q9YAZjXXnst6+LFiz8fP378Qx/72Me2hfvvSRH8UNknxIHhJwji/tu//dv/27p169Lq6urenHhmv7ANMuUT5s4zhRIkSt0cHrHM+gHJg7BxDKwi8AjixoasH6RywpPGZ3hc7IfjYhWB199+++1eA4P3QPowAFwF4D2cJ4kdG/bBd8g4AfaRQWDKPNjwfTQIEjA8XBXIAjBcL9676aabnGOdOnUKmU2xbW1ty7Kysn6XnJzcEu6/LUVwQz3/EAUyd15//fWv79ixYx3kF5Ap0zVBggx2SvJ0A9smsE8OyBnHAHGDFPEai6ao2XNlgCDu1Vdf7Xwvn8P4gLixGkBwdv/+/b1eOds5MC8fsguyfvCdkJRQCEbNXnrx3F/GAfwFvgPnCwOF88K5YGV06NAh57yXLl1qbrzxRuf+bd261WzevDknMzPzOzk5Of873H9jiuCGkn+IAd0yX3jhhR+++OKLj8FjhrwiA55sdwBiY397XwA5gvjhBTN9ko8gZBwfkgnz55k+iQ3HhtwDD95pouYxPtgfn83LyzOHDx++YiKXEWSO/WAQQMrYHwaEbZ1xHfibKZ5SkjJWQNgbsA+MC46Le4WNRgn1CzAIH374obPf4sWLnUwlrADeeeedz952223/tmrVKh0GowhaKPmHEEpKSiK//e1v796yZUsOSBuEDNImyZM8mQqJ1+xhKEYQqPFU2zIAi0d44fD66SUjLZTVvczHNx5JiUVU7MnDFQFaPiD9E/n/IHXq7ow7MIiLz+H4MCA4b/yN7CEch20f2Lufj26kzx7/BI0LgM6iWN3ACGDDfUNKKuIT0P2xWtm8ebNjCJDKijgGAtbbtm17bNWqVV8M99+cInih5B8iQFvlDRs2fOett97KAXmCvOBRs7mZbG1gRJ68hNs8Z2bHgCAZ0MWG5yBEeMggZ3jMsm8+DA5eZ9YPCJ9GAFk+IFWcH+QbxhPwnvGcB6t82Z6BaaH4DGoEsA8MB4PCJH6mhEqNn3/zXshVBs5Rtq3Avkj/RGYSvouGAOcM8jee2ALaV584ceIrWVlZHeH+21MEJ5T8QwCYiPXzn//8Vzt37lzPfjUgW0gmlEakR+3NQyakEQAx06uGxw/tm8VSIGQYB2jk2A9ZMiBj/E25BvvC+2d+P7p2QjqBxMLjGBFkNp7vZ74+e+9D78/MzMTqxnkP30UDxuuRxo3HYVYTNsYL5D4wIAhi477gb9Q1QNuH0WJFMIj/wQcf7DUaeKyqqoo7ceLEdVlZWZr5owhKfNT9UwQVDhw4kPr888//x4EDB9aDbEFY0MpJXuxiCcJiX33jIVs3T98GPWkQN47FQK+soMX3gZRRzAUCxX54hMePlQHIGxtIFIFUBqC9AecLg8E2DfDMsSF2AK8fXjqOJ4u13MCUT6a02vIPAOPIjqP4e8WKFU4batw/XANbTMPrR8sKrA5wDLyOATb6v0URrFDPP8jx9NNPP1dWVnYTCAzkDqkCpMme9/5o/L4AkoY3DPkDlbxI6zQiTZQrC7ZiwHmQsEHQIEsYDmjl0Pnh9dMIyWpcnqPs08MUTGz4PEkY76EqmINefIHETylIZgixnsGIOcAIQN9xxx2O7IMAL743JyfHuR70J8KKBsfBfTly5MjacP/9KYIXSv5BiqKiovhf/OIXvzh69OgNDKaCeOEdMzWT7Q6MkEZsz5d98UGiIDR49vg8SB0bPoNcd6Q7gijh3QP4DNsjQDeHR06pB4AUVFhY6ARHQZwgfRgCvI/jwNPG55jDT4ImOTMVlUaLQ9hh3NBEDsYNnjj2R+wB580VguzaySwk/k1JidfOv3FsfM/BgwedeASqliE1IVUVpI/NCCkJ13769OmlkNxycnIqw/33qAg+KPkHIfbt25f20ksv/fDIkSP3kdhARtT7++PdM20TxAxCpc6N5yC+e+65x2nctmvXLufYIFl4w50dnSZ1Rqoj8YBwL3VejilA709ISJgI4lywYEFSVlZWyXPPPedIQ2yfgH0QIMaKgENVWGwms3dYh8AgMjt+smcQjA08daw48DcMEY7H+AY3KXHx2FwRcPg7Nxg1SDqQpnCubH3BzCUYLBgHfO7QoUPjzpw5syQnJ2dLuP8mFcEH1fyDDOi1/+abb351//79DzAFky0OQKDsU0Mvty9QeuFKAd4/SA7e9XXXXeccCx42ZB8YARgFh6gjI5y/WS8QMzHGWXV4AsqX5s6d2zplypSy1atXJ3z1q1+9ee3atZXsC0QPna0XmN3D8zAeD5u9ebiCYaEZ2z/AAKBVBEgfxoVZROw4yriHXP0YywBwZcGVB9NRcXycowT2RZEaroOps5j+Fe6/SUVwQj3/IAKCu88+++x/YZwiCJoEKidVsQhLrgh8gf18mEoJDxp/33zzzY6+XlRUlL969epns7Kydp45c2YPtHbZPgEEyApdz3nM6Onpwe+qY86cOWDyhoULF25LSUlZ9pOf/OTlF154YTXn7EoZhqsWaQyMJ+BMsiZJ4zlIGCSP3Hwcj8VflKOY2UPYxM9H1kPQ+LCDKJvbkeSNJ7uJ3U45z+DQoUMa9FUEJbS3T5AAHv+GDRu+u3v37j8jecme9sajW4NI4RnLNgm+AE+csorxENyCBQvMbbfdBt1+46JFi955/PHHf4C+9mfOnHkCx4PHD6kFBAjyRUM05MJPnjx50eTJk8/Pmzev1f7K6dOnN2VkZLzW2Nh4M9pJ43tooGhIGOzlNTEgS2PB4e2y1QRiAPib18kAN5u58VgwkhwPyUpnFr3hHuBacA2Qo2AA5f7XX3e9E/RlJTOlLny2o6MjfvHixa/Nnj37fLj/RhXBBfX8gwAIKr7yyitPvfPOO4/I7B2Su5R36Lny/b70f3bkNB6SxN+QUjzZOJGf//znv2suk2rrjBkzbm1ubn4bAVaQHzR7ZAJRboqMjOxwI35i8eLFtU888cStbW1t9S+//LJDsFy5sP+/vVJhSikrim0pRnYnpS7PFtSQZzjknUYFhpErJJI75xBjXzznPYERwLVev+Z6Z+D8Qw895BzjjTfecALfMEQwhEePHr3phhtuKAjF354idKGafxDgd7/73Xd27979CHPuZeESQdJkS2Z/m5zhGCA8et8onkKnTnjVubm5r3C/BQsWNCUnJx/FsUGKeB9BXWbiwHseO3Zsu6/vOnny5Ljx48e3Pv74407rBA5flwVoTP0k8DrHMbJts9yMGMloPCsX/A3Pn2mnlIw4JJ4pqux3xHuK91GXgA1FctiKi4vNM8884wyb/973vmdeeeUV84lPfMKZY8CeQHv27HkgJH94ipCGkn+A4ytf+crvPvjgg0/TG5WtCtwCuiA19tnxJ+DLmgCmfILUsIHU0tPT8+W+kyZNqkxISHgUHjWCrZBBSNo4TlRUVAcI3tt3eTT2dqSVPvroo71VulKiki2mpXGjt86VDTfZwpmrHHkMgjODKeswvRT74FohY+E5rg1SFvbBcwSTITfB0KHGAZlA//3f/+0Mn0fmD76npKQkt7i42HfBgUIRYFDyD1CgSds3v/nNXyCg2NXVNQ4ky94zMm2RHisBgqMsI1s5cOO0KwY0IXkwrx+EB+L3tFL+5rRp007Ku4M+NomJiaUgRNnzB4SJ74yMjGzPzMz02uumo6Mjht8FMkXtAFM38RrOGYTKPkJMs2S1r5sshPe4EjKiqAv7cUiM8awIUIuAc8XfvDd4ZLCYnjyzifA+HnGPIG8h9fUf//EfnboHBL7R7hkroPLy8nEa+FUEG5T8AxDI6vn1r3/90/fee++Rzs7OGBK+nb3iTdrxlesvM3NYyMXn7LPvIcYuN/0e6ZuczEXSBllii46ObnL7TgSrcU2IIbCGANcE6Sc9Pb3XUOGRGTfU7pl7z8CvhOzpIxvXcSXC9FcGb2lQmBrrFgynkeFGo4TjQg5C3x8YCQSakQ0Fg4magLNnz+YE6+9NEZ7QgG+AobCwMPHtt9/+wp49ez7LxmduPWlsSENA4rKDowT2Bakhw4X5/QzaIuPF01PHtdF/XFxcDT4PT5/Tu9AGwdNxc31ra2veokWLarHviRMnxsHbb25untrZ2Xkcn4NUxOIpeOIwAOgLxMAsiJWTvGSXUNwLeOyQZyRsApfEz3gBPodj4hplBhA9fl/AMSBTcbg76yBgtHCv8BoMQVFR0TpjzN8H+c9PEUZQzz/A8Prrr3/j3Xff/SrkB5CWLD7yN4hLj94NHKgCQvOkKvbm+ZNs7aCrBFYE8NxBnvD+586d62jhON/Dhw+/sXXr1i/s2rUr23hknoaGhvqurq7juA62cMYGI4Bc/dWrVzsSEAwCzgPkyloDetwsxJIxAILVwdwk8cvW0PZsX+OlrTXuh9y4mkAcAMfANaBVBR5RXcyUT+j+MNxB/wNUhA3U8w8QYALXxo0bv/7uu+9+lnnkbtKEGymDlCh3kFzhlYJIKZWQ8ECsJEXo36iIxb6yLw7767sB8gZImysHjm8EOSIY2tjY+H/379/fCuLH94DUQaLw6Hlu+G68BoOBGAP66KDpG4uzEFPAd3BIPIB9obvDKOCzsvkbJSL292FhFlYnOEfWMnDAO4PmNHSy0IwN34xo/gZjh3vEeQP4HqR6YjWB+4l/r8bGxsgDBw7cuWjRol+H8u9UETpQzz8AgEyRDRs2fGvz5s3fuHTpUpxMYRwIaDRAiHKwCYnaeDxmat/4Pnq4MAYkOTcgBgEi5vkdO3bMIUKQNQwApJyGhobv79u3b09NTc0eHA9GCJ4+pBOQM15DjQDOCzIO+vRLWQtkCqKXFb2cJMY2z/ToOTiGkg73ZeyALai5aqDE5a/mj2PBiNAQyNRYGBgEgymfvfXWW18K4Z+pIsSg5B8A2LRp09+9//77T5DgZEbPQCCLmCTxw2uGF8w+/LKFMjOATp48yWKnhvz8/HT59adOnYpsbm5OJAlzIAuOj2AoAp/GQ6AgfEgjeATBc4oXHvE5ECe+B/tAOgJJsyUDVhDoI8T2yTRM+AyugRIPU1RZ28AMJKaNMuVV9j6iAWQwty/gXFnXQAOAVQqMEgweg9XY78iRI0vefvvtNeHzy1UEM5T8Rxnf+ta3fv7ee+/9L3jGRrQWHiyof3OQC2f50vOntEFPmV4wmqN5pnb9tLq6OkueBqScrktdLzJdEmQPAof3y86gOH/q4zAIIHcOeAH54zpJzOwLBJmH0hPOF3MAcHx63OL7+/T86f0zjVNq//xeGgE5zlF+h9wApHVSimIBGa4HRgH7MKUU16aN3hTBAiX/UQKKoX7wgx98f/fu3X/S2tqazKlb1O6Nl5m6Nuw8fuPJUGF3T+MJAOM5tXw2M+MGGQMEjc+jBz9kHBB8U1NToizaioyM7IpPiHeIGqSHQC2DoJzeRUkFnjLOH2QMUsTGfjr4GwSKfTgQHv2EUDjGfv9oG41OorweVukyGwieNowJs21geGjspMQjewUx3ZPdRXEOfI0rBLxOA4PnuC4cA4YOZM9rlK0kcD2sCThw4MAdWCGF2M9VEYJQ8h8FIAUSUs+OHTu+So3fzmRxG7zSH+B4lDbYM58ePj1mDmvh6oBA6qVn/OOLVVVVvd7/pUuXxkVFRV0HL5i9b6DNk5yxAgAxc14uJB/o+yBsjl7kTF9IOwz84rPIHELbhDVr1jgyEIwCtHRmPBEsvmLg1y0uwswoXhv7A8ngrsz3N562GDBqlIVYvMZiMNka2hdKS0vnHzp06I7g/GUqwglK/qOA3//+9//3gw8++BaIkUVX/Unl9AU5FhFEzApWSiAMoJJ0QcAkf+bZY/oWPFx8rry8PJtft3Dhwoa4uLhaEDUNCtI8QdbZ2dlO7juuiVo4DAg1f2zwzuGxc8P7OEfIQ+idgwIqnMeiRYt6DRQkJJI8p5XhnEn+fYEtmGWFMw0Ar59VwbgerihoNGggZc2BL2AVoLN9FcEAJf8RxnPPPfcI0jk5xYqjCmXLhv6CRWD8LAOk9PzZPA2EyWAvg5fS86eUgQweyD+eIGfk9u3bc3lKCATHx8cvACmzbTJInMVbbEMBKebcuXPOPhzgjmNT+2dOP3R9rDRQdwDDgTGK+FxqSmqvxOPpG3TF8BVq+hJuje7Y7dOI9+Uj02NxXiB+O0jNdFLeY5v87ee4xtLS0lyjUAQ4lPxHGPn5+Q/U1NQk2+2JvZFLX5AESEKU7QtIbmxUZjyrAxIxB6FQG2dLY4xthEfe1tb2Ym1tbTpmBuN9zKudMGFC04wZMxZA88f+1M3xnTAKMDIgUGr6+JvSDzYYB3w3zg0SEt7HwHRMD0P/HMegtLU6BgPGgSsjbJBjYGiYrYTvYndOY80q5vXRGJL0ZdCYBot1C5B6WBvBCmsj0mft+Arvp/FIR/ieutq6tKD9gSrCBlrkNYJ466231pSWli7nQBC3bJP+QurhJEjq+5R86DHzfa44QLIgU0og8HZJ5mhlDOK94YYboMe/XFJS8rGIiIidaO189dVXlx8+fDhx9uzZM9rb2+N6enqOUDLiSgKGAV40DAgMD7xqGByudLAfWkdD+9+zZ4+59tprnfOFscBn5s2b59QCMJXSeFY0TAfF6xzsImcY25DprDRQvGdMb5UjJGEYOCWNPYXkZDEjvH15v2WRWFNz01Q05svIyOgK+h+tImSh5D+CwNAPeP3sge+r/44/sNsU0LOlZ09tHIRKfZwN0uB9U37Bxs+SGPEcBgBN3BYvXoxjbe7u7r5zwYIFm4xnMIvxDJrp7u6eAXlozJgxcXicPXv2QRwbsQOpmZP4cV6IFcDTx3xgvIdWCegRJAakOFIQsn5kBTO7guJ64KnDYJGAGZiVkMFdEjQD7LhuVhHTQDBDSs4SptdvB3xZ6MUqX2ZURUVFjWtvb49BCCAIf6aKMIGS/wiipaUlHrICZA4QGDxbPB8oGMC04wSyepferQzq4n1m3YC82NOf/XQYH8D5/eEPf3BI7qqrrgLJxW3btm0FhrpkZ2c3GI8MJL973759aV1dXUtTU1P3I1UTZA0tn1IKSBLHxnuQfPbt2+fk0bMaF8FinNuZM2ecOcKIBzBmYUQaK84T5G936JSkbTzkL2cgMMDNe4MViZx/wJRQBsiNlx5AxmWlhWPinDydUQdu1RWKEYDO8B1BvPTSS0+cP39+jvEEBplnb+fqu+nK3iD3oZdKiQPaOAgWMgpIifvIQCfTJqmdsxKXBoDtiz3yxwNRUVGfHTdu3EttbW0tU6dO/Ui6TUpKyoX29vYLTU1N38BzrjpwHBA/MoXQyXPFihWYUNbrbcODh1SUlpbmVPfi3JBGimvAOXOlgusAYeO84XEbD+FLA0GDgM/BoFAaoiG020Az48p44gFsDcHAuN06mvdcZksx7oDnx48fN2vXrv19enp6eZD/ZBUhDPX8RxDohQ8iknnnQwFfmUJshUzPnx4uDQ8ri/E6JAsYCxAeiBb7gWAxzpAN2Ty59/uNMUu7urrKsA8lIALjHEG6+CznA2C1AyAdFAagoKDAOS4IdtWqVY7Hj8leMBRonwBJCO+jdgDGC7EInCuNJouqmLsvA+VyNKMM2jJ9k2mb7NvDfwc85/0g7JUZVxEywMx7ifsDI4bz8vT3v2ISmkIRSFDyH0GkpKQUyZxzO0VzOACvlpo0WxuwkRtbLIDwOBaRWUGsBWCHUHz+ww8/dMgNnntUVNR+HCshISEBwd+uri5H14mOjm5oa2uLx/FB2JB3QJggRGQC4TXOxoWnj7RS1AiAhBkUxnngOyE7YWAK5RpO9TKeLCd63DL1k1J0L/EAACAASURBVLEOkjtbQhjPaovyj5SCSP7MipKws69kHQX/3bhSwPdyCpinv/8vQ+n3qwgtKPmPIOD5y2KjkQA9f+nRkrwYEAahQ5fH6wiyMosGkg2D0tgfz5GZg/4/iAGsXLkSBV718I458cppDNfeYeobLvf0QTYPCBojDwEQPzx5BHjvvPNOp54AJA9PHwFfrBTQ5gHtFLAaQLAZ5wBCheGwK3QZiGUswFjZODIALI0eU0ApgfFvXKP06o3Q/KX0QyNAj5/HYL3EqVOnrkW3VhTGhdavWBEqUPIfQSQnJ59kN0zKFd6CiYMBDQwImR0+4eHjUfbq5z7wdj2TuBzix3O2OMDnmO5ITZ0N206cOOGQNsgabZlB3I7X3d3VG8BdsmSJk7EDgwHDACODNE7sC8MAWQekC50fKwtWPcMgQB5Crj8qiPPy8q4Y8SircmEUOAJS9vNhmwkWu/HzlGn4Nw0JjsOsHeNZNck5wCR7rpL4PUxFZbEY9jt9+nRWTU0NuqIWBPNvVhG6UPIfQUydOrVk8uTJ5S0tLalmEP36/QG9VHrKDPhK0EOWZIfAKl7H/kylJOlRUuFwlKKiIsc7B8lzsAsIm54xNhgKkDxIHMfCd4H4Qar4LMgf3v/tt9/uGBH27gGxL1u2zJFRkBZKiYptmHnuIFsWqTHwKzV5ObYR5I7N9ugleN44T1vvd8v1p6fPugnGGXAfz509d5WSvyJQoeQ/gsBs26SkpNKzZ8+msrXCYJq32ZA6NAmbZASSZdDVDTQADPTis5CAoMuDvFlVi+MxPRIaPgidaaN4DRq+7BjKPvjMywdZo3oYRDp79mwn2IuxiHgd77NBHDR/kDnSQLGqgAFA2we7Bz/OC+dJEqYsQ0mIcwDY0M5Y8o1dF8DiLhbA2QaAqwRZY0HyxzWwCyge6+rrUkb9R6dQeIGS/wgjPj6+N/2P5DxUYPEYQUMAsuJYR19g0RNHLOI52zVwWAtIlp07OWeYee4gQBA40zrxSPJk1g17/xjPoBTsBwMBGQme/htvvOF8P+QiGB0OToEshHiBDdm+WbavoEyF78f3cQA7Xmcxlts0L9YQcMVAg9EX2BeJqxMad4UiUKHkP8KA7EMteSiJ3wgJQnr/zFUHKcGLB+FCT8d+SOsEKRohY3CQO8ga5AuyZutm9uZndg0IVKZNcpXB7+VqAq/jGKym5XeBLBE3wGfff/99k5uba+655x7ne1HhC/0fMhIKvvDIIjTsj9UBO5Pi+vAepCXGOZgNRA/eeLx6kj+vVRoKdg+V7S9glCgXsSiMwWLug89gBQQZC5IWV0/d3d36/0sRsNAf5wgDQV8QifF4q8OR9SMNAAmLGTGUMmAAILeAlDnikYFhpkji/JCBA1mFGjg9Yxl0le0l6OkzfZKjHhk0tovYQNI4J6wsfvOb3zipoUglXbt2bW9WEDx3GC4WpFFG4nAVpnPKbqXe5hDL88a1IMVUTgbDucrUT6x8+DeOKbODCAS02Z6a6bGe1NX40fytKRS+oOQ/wpg5c+YhEqjx0TpgIHCrHbCrX6nNM0BLYgZJs+8O+w4xbgBvHx4wvWK8x9YKMmNJNl3jnF6ZE+9WucxsIhgAVPdCmnr55Zedv5FOunr1audYGAyP1QAyhvDdkoyp27NCWdYy2DEVmQnE8+cqRU70ogHA+bDzKffj/aSEBUPK/kP8XhjBqVOnlgbr71QR+lDyH2FMmzbtxLhx4zpaWlrG+VPha1eu9gXbAIAg4YVyyDhInN0qQVjw6qnXc8N78KjZJkJ+P71ukCxz60noJGS7cM2XgaPHjWMiHRRGAJIOtH6QPQrAEBiG5g/pCTIRYwU4d2r9bNTGgjU5lF6CKy2er/HIUhzpKHP+ce0wNCR/PGdbatxHbDgXVkKzCR1XUQsWLNgW0D9GRVhjzFBmmyj8w4MPPlhy7ty5dBCd3dPf+Jjdaw8j4X70WKWMRO2bvevpxZOgQZIgUPv75bGYcik3fFYWNTG/nq2j6f0z8AyiNC6Gyy6kInBOTCcF6YJc8b1MD0U8gBXLNEQcVYnVAgiYMQB45TINlPMAZIyCPX/Y3ZTXzeuDITKeFRO7knIgDa4dn8VztsamHHXXXXfl/+IXv7hG/0soAhXq+Y8C4uPjK0H+dpqhG9w8f9sbl2RFsBiJRoCfBSlCm0b2DweiY2NDNxoDfi89aE7UYlYLdX8GiCUR4zNsliaLytyMm736YcEUVyc4b7acBvEDkFkQrMb5sDKZchO7ppLouQqQbR1kjj6Ba6dhY50Ce/XwHsrz4oAZPGcxHOU8FLHdcccd/xQsv0dFeELJfxSQlJR0sqioaAW9ZH/gzXMmMcnCKnqzbEFgPKsFdsfsETNsmQ8vJ1jRGDA7h94uc/ZZ/Qs5iTITyR+vy4pgOWfXHqdorGE0xmOcZAqmNHjs5EnJCsQMWYakzT5GMA74DmYjsdMp+xXJqVxSNuJ18B7Kc5QGhuAkMAaNcY/QnO72229/6YEHHnglaH+girCAkv8oICEhoUy2XjY+pB7CzVs1oiKVnirlFpL/pc5LTrsFmRJJjZ9yDmUQvo59sR+LukiMJFL2wMEjJ22xshYEyO83onjMNl52HEC+L6dzMVuJVcQs2gLBIwaA47DeAMSO/TjikR657fnLvjwyNZWvyU6d/LdhPIQBc7aGQDYQVh/4LhieT37ykxueeuqpTwXLb1ERvlDyHwXMnz//va6urq/Klgl26wDplUuvnv1sqOf39p+PjDIRkRFXtHRwjj0moje1kTIFSYzyBQ2A7IdvSyRGSEySGKWsY0Q2DR8ZVPU3tsRrlBlC8ji8TyB5kD7kKBAwjAEzkKjrc8oWr9etayeMk+z6ydoB40WmYgyF9xJGEN+LBnQPPfTQl9etW/ejAPzJKRQfgZL/KGDatGknSWwgIwZKWYxFspdFWyQ9khU9+8iISIf0ZRqlJKvOS51XyDDSg7VjDlJ/l6MRjQ/ZyVsq5UBBGca+buMS6DZicAu9fd4DngfImdfNHH0JvMeOp/T+7Wu2ewHJhm6QeW6++eZtd9111/duv/32rQH8s1MoroCS/yhg5cqVR1Omp5RXVlWmIjhJuQaP8GLpqdOLlQFIJx3R4+Ub4Y0bkeYpYXv89PJljj4JUaZBGhEn6C+8kac/8Q23fvkEydfW4xmDgP7OimS8DuKnl87NNk6yfQOLvKTMJe8BHhlURmbRrFmzWj/96U//5bJlyzZgsH0g/+YUChtK/qOE9Iz0vecrz6eCSCQ5saslSRlE5vwdGWXGRPR/+pft8ZPQCDuDSKaP0mhI9KXduw057w+kROVWK+DmjYOQIf+wpxDSQllZzAHy9ucJ5vcbUf1rLIlLAv8eaDS3fv36X65du/bpm266KW/0f00KRf+h5D9K+NjHPvYvxcXFa2tra+PY4oDFTmwp7GSrdPc4Xj4DjL5kFWb5sDEZjkVvmPq9bITGugASLStXaQCYZsnP9TXQfChAuckXJIFzyAuzeHiOXA3IuIlxIX85GJ5tItiUDRuL2XBf58+fb9atW/fS6tWrf/3xj398U9D82BQKFyj5jxJuvfXWHWVlZV/buHHj15ubm1Pp8cOzBPn1yhGRV/bm76sfELtyys6UEvbnbVlHrgDkbFsJX/KNt9jAQNHX52UVr2zIxmA4i8wIN9mHhoHFXvi3oESGfw/MGbj22mvzr7/++v9+9NFHfzyoC1IoAgRa4TvK2Lx5800nTpxYferUqRW1tbVp3d3dS6TsQXKTGrQvgOxAfjQCcp6tW569G7FTKmIw1ZsU4wb79zTcbY1llhI8dgRvkX2DIjZ02UQtgPT87boC9jNiOidXC0gdhXy0fPnygptvvvmnn/nMZ54e1gtRKEYYSv4BhA8++CCnuro6vbS0NPfMmTNLOzs7o1tbW+O7urpyJcn5AtsYk/wp18jcednczC2V0y4Ck22b+5J8Bqv59xf4Pnbw5DxiPKLvD+YPQPuX5O8Ww2BNAgfOwADk5ORUQtO/++67v5uZmdkxuLNUKAIPSv4BjpKSksi6urq0c+fOZdfW1mZUVVVlNjU1JdbX16c1NTXdxMwWbpL4QdYgP+ORNEB0HDbCnHZfnnmPGJZOA+Dt9+KWZuoPBvv7k51E2fMH9wEFYLhW9Prhd+A5yJ2GlKmhbF2BSt2rr776xPr16/99zZo1P8/KylLSV4QslPyDFKdOnYq8ePFi3PHjx9e0tLQkXLhwIQmrhPb29riOjo6Y8+fPzy8pKVkDUpRevD3esC/YBsBOf7TbNNu/J38rlwcKrmyYtcNhL5B9sALAPAIjYh00YEx3ReM2EH9GRgbaMvzT2rVrf5qbm6utmBUhDyX/EEV+fn56YWHh+o0bN36jqqoqjQTNOIDxeM3+SEnSABhRgWwbAONSFStrBrwdezBAUJotJYznOQvlUIBVUlLS2wGU54D0WhgHPKKuAkZjwYIF5tFHH50OuSfcfzuK8MDwCrKKUQO8VwQply5d+nsQHLxbyCIkW7ulhC+MEQPPZUM0+Xy0wJ5CbD8NSQuaPdNcMQSG8wywH8ZBYoMshKHw2BfxARjCioqKefqLVYQLlPxDHJ/61Ke+vHDhwpfgEUMSkUQo+/33BdkJk9XGY6ypXEasAmzjIpvPyc+4HaM/kCMcQeDw+nlNyNHnoBWQ/dy5c51W0LgHTKWVM46Li4vXhfvvRRE+iHzyySf1nzuEMWXKlK4ZM2ZsbWxsnFpeXr6M4wgRCGYa6Rgx/csXbKKWRN4XgffV8mGMNebR381YMhR7Hkldn8NhEAPgtC6msOJvBHw9Vb7n0tPTX8c9C/ffjSL0oeQfBpg2bdrFyZMnFzQ2NibW1tZebTwpoXYfHX/1d7ufkLfn3jbjwwj0F7KRGwie3T8p/cCjZ8W08RgKVlSD9Dn0xdO+Oic6OvpgdnZ2Ubj/ZhShD63wDRMsXbq0rKOj43vV1dVZp0+fXs02yOwhBGMgB70TvgzCQOQbfwrV+gsaLhA4R1NC6oG8w0ZvIH8Os2flMgxFTHRM79AZBICRJRXuvxVFeEA9/zDCzJkza5OSkj6oqqqaXVFRMZ/auKwB4HyA4YSMCxjrub1aMH2sJgjGMUDgTOuEzAOvnrEGts2g9IXPjJ/wxxbZniK2U0lJSTuwWgr334sitKHkH2bwGID329raYioqKnKNS4GWTbBu3r8bQbt91tt+xFCnGrP5HSt3ZXaSDFbLiV1yn56enmXJycmbMjMzz4T7b0UR2lDZJwwBCcgY892Ojo7oo0ePfprFXsx8YdUsPWgSal+9ffqKG4xx6dPvrSW0XSdA+Kow7gtu+7BvEa8RW1lZ2VJjzI5w/50oQhtK/mEKGICJEyf+5Ysvvth29OjRxziTl+TqzQAEOuyBNDZkhbOzdfeYnog/FrEhCwotNML996EIfajsE8ZITEzsnDVr1puNjY2RlZWVN4DckQfPoS/IhrFbObihP/q8v11BvWn79rm4BZrlfAJb5pEzkR3ZJyKyt1aAHVAjIyPLk5OTd0yfPl2ncylCFkr+YY6EhIQexAAiIyNr6uvrp1VWVqYiMwYbvGDmxPdlAIYK/vYC8nYeXKmMEdPQ7GCy/DtqbJRD+Lhe0dd/4eTJkz9YuHDhkXD/fShCFyr7KDCWsCMzM/NHUVFR7Tt27OhqampacanzcqsEOfSc823lBDCJgWj+NrzFAPpaOfB1ePQ8N2j5zO/39Vkb+BxmLBhjNuivQxGq0PYOil6gF9CDDz74tdTU1E3dPd1O8zMSPx5ZPSu950CDHPI+kHoCXltzc3Pi8ePHY/TXoQhVqOyjuAJZWVml06ZN29nc3Bzd2NiYS81cjjgEONvXzfv3R/cfSJWw2+AZt3x/Sj2cXcDn0PZZ0yBSO3sD2vgbtQGe1cnSadOmbZozZ06Z/kIUoQglf8VHkJqa2jBlypQ9MTExJ86ePTt73LhxyciKqa6pdoLAbJqGgio58H24YZO/G2zPH6Quq3rdjAqlLRoz5v9PTZz63uKcxQf0F6IIRajmr3AF+trn5OQ8HRcXV/WHP/zhcxVtFevQCplBYMy3ramp6a0N6E9fIF/wdRwZzCXs/dmmggQuZxGzfYX0+HuP091junq6erOB0CLiXPm5bP11KEIVSv4Kn7j//vs3JCQklL///vsnjx079hiHpEP+gefPub6+agD88diHCtIQ8bzozfO7aQyknIQYB1cAlIgaGxuT9NehCFWo7KPoExkZGecgA9XX14+7cOHC+KioqOkM+MrUS9kdVI5+lITfX/J3iwf40v4ZkJbfxTROFq7Z5yFjAEwPxRYREXF28uTJ+9ASQ38lilCDZvso/AJkoK997WtfXLNmzS9jY2PzERgFmYJsmQXE4DBBD9se++gLQ5FFZH8XzpOtnvsC5/xiu3jx4t21tbXp+gtRhCKU/BX9wmc/+9kfLV++/BUQdEpKSm8XUBqAvsjbn2wge0iM9MyNGEHp7xhKSDjY/EF3V3dvhTN0f23xrAhVKPkr+o3ly5e/unz5cudj6JVvGwApvdjevlwF9BXcHar4AIK8/elLJL3/+vr61CE5CYUiwKABX0W/0d3dHTlv3jyHvPPz8x1NHYSPTCBW2Hp65DiH7quq1xuY3dPXPr7APv8c68jUTp4XA9b4G+fLeQDs/9PS0pKovxBFKEI9f0W/AfKHxz9z5kwzY8YM5+MsAqM8Y3v/9PL99fxHC/b5Xbx4Ma6oqChefyWKUIOSv6Lf6OjoiIHUk5SUZBYsWGDi4+N7p2OR+KX+P8bPAfFu8KdCeCjhSESXupxHbM3NzX+iQV9FKELJX9FvtLe3x1DWgfc/Z86cXsKHAZDev20AAg22p+9IVt1dvamqqGe4cOFCsv5KFKEGJX9Fv4Hun6yUhdSzcOFCRysHeUIOohGwi6kGYgBsL9+eL+wra8h4yJ3dSTHcHZk8MFw4f7f0T/s4uI6amhr1/BUhByV/Rb/R09MTKYu5IPskJyebuLi43pGIeI8dQW0yDqQVgJvnLzdcT0tLi2r+ipCDkr+iXzh27FgMM2NImBMmTEA3UKfpG7xqNknjAHXZBnowkHUAUk7qD0jw3owQzp/kzxWCyj6KUISSv6JfaG9vjzPGvGdEBS9aJ6elpZkpU6ZcUeXraZHg/B3I3j9xxSqgu6d3IExra6t6/oqQg5K/ol+4dOnSOOPJimGQl71zkPkDksd7WAXAKNBDly2V+wO3TB/CV/aPbNfM11m5a6eaMt/fW00Bspv0V6IINSj5K/oFEmHvAHSP/MOBL5MmTeotzvJVpRso3j+7flLmseF5fRzkrtE+V4ViKKHkr+gXUPQkPXl6zQC8ffT8h9yD12AMjOWh+9u2wU3Ptz19M4CVhGtqp9D5e1s7eNI9Pfn+92Gso/5SFKEEJX9Fv9DR0RFNT5+eO6d5Sc+fgV9fGG3P31uGT+/W9cegb1tbm+r+ipCCkr+iXxg/fnwTM3gIkjzaPDPdExlAdudNN09ezgMYjspdGinWJKBTZ3+MDj6D62lqapo6ZCelUAQAlPwVfsOT5hnF8Yhu4xRla+dAzOiRYIDXLXDsbBGXX9eMH0UoQslf4TeampqSenp69oDc2SHTBjxlGIDBeu/+9Ovv7yphoOeEa21sbNTWzoqQgpK/wm/A+2Xlrjfyx3uyo2egQrZ19pV5xIC2ev6KUIOSv8JvdHd3R9k9emypJCEhwemHQ3jzzt2KvtzaLPgDGhtv58TePsZjnFB/4AYWdXGQixwCo8PcFaEGJX+FX0BP+7a2tjgWTjG/P1jBc/fV6oHANXd2dmqevyKkoOSv8AtIdYyIiPgDdHhUynJCli8MRPrpj47vrarXDawv6G9/IRoFFLdpoZcilKDkr/AL0dHRDRMnTryK1bvB5Pm7nae/5y5qGR7WQi9FKEHJX+EXsrOzGyIjIzs6Ojp68+VZwUu4pX/66skjYUsv/mT7yBiBN4/fLR2VYGsHu9qXU7z4vifVU+f5KkIKSv4KvzF27Nj2np6elTAAbn1wjKd5GnX0QMn4GYznT+B6W1paEob2zBSK0YOSv8JvLF++vHTKlCllxpiVIHY3A4AVAbtnDmRylz8evzf40vz7uwLpXQ10dfdeV0N9Q9qATkyhCEAo+Sv6hSVLlpRD/x87duw1nZ2dN9if5QB0iWDOCiJg0JpbmjXXXxEy8N15S6FwwcqVK4/i1X379qXV1tbe0NXVFYVMIHjH2NgWQbZ4oH7uC0wj7WsffyH79cvvxt84T/QfotbvbZXS3dPdmyWECmf9PShCBer5KwaMZcuWld1666074uLiasaOHbsSHT2PHz/uBEfZDpnwt5VzIIJdS3WcoyKUoOSvGDSuu+66Q8nJyUd3795tjh49ipoAh/wRGDYe4ufUr0CCmzGSRV9yFYJ9m5qaEktKSgLrIhSKAULJXzEkqK6uzsrPzzd1dXWOpALihE7uDW4tHQI5NuAxBPe1t7droZciJKDkrxg08vLy5m/YsOFbDQ0NTuUvBrk3Nzeb2NhYR1fHI3vqyH45bmC2z2CyfnxB9gGy8/y99RjCSsbj+ZuqqqpM/cUoQgEa8A1TgLB379798N69e+8bP358Kzza9PT0/EceeeR/Z2RkeGdnC/v370/btGnTV/Pz8+9AQzds8P5pANj+GRIQ5/qaIMoAYjUzC7+amppU91eEBJT8wxBvvfXWmldeeeX7O3bsWA2PFqQGwk5KSsqJj48v//KXv/z3/tyV48ePx7z66qvfKigoeASzeysrKx0vXwLkCY8fQWAYAZL/QGoAhhL9CT6zhTW2+vp67euvCAko+YcZ/v3f//1bGzdu/MaJEyciU1NTodX3tmKGEXj66ae/MWHChKbPfe5z/9TXndm2bdtjBw4ceAQe/sSJE018fLxD8vD6YUww0hHEz8KvQIA3gyP7FbGdNAvVnGZ2HZ2OhKXpnopQgZJ/GOHb3/72Tzds2PAYyDgpKcmRZTB3F54tiJ+a/PPPP//9+Pj4iocffvjX3u7Oz3/+8y9t2bzlCXwGPX6Y2QOCBNHDGOARxsUITxvHl9k/dkaNvz38/QFXF3blLz15nHtMzB/jtzhfu18RzpX74V5pwFcRKlDyDxP8zd/8zRvvvvvuHcy95yBzNGkj6UOvB0mePn3aPPvss/8VExNTf++9926079Czzz772ffff//TbRfbPiKBsBEaiFTm+QcKfE3sorGQG42V8Riu9vb2uHD/LSlCA5rtEwb4xS9+8fn333//jsbGRscjnzx5suPFQpaxAWMAI1BcXBz3/PPP/6i4uPiKlgYvvvDip7dv3/5YZWXlErdsHKZ4IkMGEpA3jHbBl7/fzxUN/25padEWD4qQgJJ/iOPUqVORL7/88lMtLS0mOTm5V3un5w9CY5YOu3XCQOC9wsLC9GeeeaZX+tm6devqja9v/Gp5eXkunuOYNtgSmQYg2CHbVHtaO8frUBdFKEBlnxBHQ0ND6oQJE+KQhQPCh8cP7xzPsRIA6XOmLdoz4D3sR81+165dd6OqtaKiArn836mtrc2eGDPRtHe09xoM45FNsD+8fbZ1hrbuTz+f0Wz/jHNF7IFxCFkDADAmgOvxGMn76urq0N3z6KicsEIxRFDyD3FUVFRkwwNHIJMkD3KD1w4DINMv8TeIH9IPiBB/w0A899xzl6qqqrAScMiwo7PDIXkck2QJEmVmD3PimUETzOD9YQYQrg/ef7j/rhTBDyX/EMe4ceNaUZnKLpYgbeltg9xI0CQ6PsffMATvvPOOsy9iBNiHnj09fxI/jAx7+fPzgQw7G4hFaDLwS9JnZTKus76+Hp5/Xrj/thTBDdX8QxzouvmJT3ziu+y0yVTKqVOnOmQmvXMSOoiO7Rng6WODJITc/YqKCqeY68KFCx8hfsYRzCCHsgQSONqRhgDXqEFfRShAyT8McNddd33vzjvv3IAVAKQayj4gZ2r+IDasDED8DAJjP3j7MA5nz5519sM+eI7YAXP1cVxseM9cHvfoGAM8Z5wBwD4smpIzgIdK75fTuuTmK6ZgxyS8NZiTQV9t8aAIBSj5hwHmzZvX+uijjz66fv36rajCRaonCA5kTgkHJM6cf5AztH5U6qalpTlSkUfrRmMzxziAuD0DTkx6erpTIYyVAY6L52vWrHGCxlgx4HMI/jrxgo4O528ZLA5k2GMfca+am5t1kLsi6BH55JNP6r9iGGDatGkXp0yZ8uHevXsfPH36dGxKSorj/cOzZ38fEFtiYqK5+eabnVYN9PxhBNC7Z/369eaBBx5wiPvMmTPQvh2jAOIH0YPUkU4Kg5GRkeG8jtdqa2udY8O44HvwKL1x21MfbtjePQ2Z1P+5QmEmEK4DG16Pjo4uSUtL25yYmBgYPSsUigFAyT+MMHPmzNrZs2dvOnPmzPpz585NYZsDEDL+hpeelZVl7r33XjN//nznPWj85rLxMDAYpaWlGN9ozp8/31sBCyOQmZnpfAbtHMrKyhzjAEMwa9YsZxWBOAEMBIEVB1YC+A7bCAw3JPnjkaTO12zyx994xH7mciFcTnZ29tMpKSkXwv03pQheaLZPmGHVqlVFTU1Nj/74xz9++dy5c8mQba6//vr8uXPn7oiNjf0SPP2SkpLeNE/0AEKffoxnPHjwoPM33pNyDts2Yx8c76qrrnI+h+fQ/RctWuQYDcQBQKjMMOLjUPbz6QsgeBmM7q/0hFWC595A9y8Lz1+RIhSg5B+GuO2223bcdttt07dv354bGxtbk5ubW/raa6/dXVhY+CV45OXl5Q4xg7jhyTM+AG/feIKe9Nwph4BEEUuALLRr1y5z8uRJZwWAz+fm5jqZQ6wzoFct+/uPFvwZ5kJJiIbDMwBee/woghpK/mGMtWvX5htPX/633377C3v37jVz5851vHoQOjx/6PZFRUUO8YPAWcCF10HsSPm8pxtEjwAAIABJREFU7rrrDNpDHzp0yAkIY5YvvGMYB6wUQPaQfED+MCqIGRhPGqUc7B4MA96ZFqtBX0WwQ8k/zLFv3760559//j82b968Dh4tZI0FCxb0Zv3k5eX1yjXMeYeXj8weGAgEhrEK4MhGkP6dd97Zq+ejQAz7y0IyM4L6vj/w1YJCxgbkeV+8eFE9f0VQQ8k/zPHb3/72+9u3b7+PA1fg9SNwC41+//79zmsMdLLJGbJ1CBSDIZsH+0Hnh/fPbCAcE4FiACsEFpExyAyZSLZ9HokeP76OD8Mn5wtzX2kAENNARlRNTU36sJ6oQjHM0Dz/MMYPf/jD7+zZs+cBEBq8c3jr8Poh8ezcudOvrpwgcPT/P3z4sJPeiWwhHA+fnTFjhlm6dKnJz893JCL2AgLho/ArUPL8fQWc3Tx/j+avnT0VQQ31/MMUCPZieHtLS8s4ePuQdUDOSMkE+YPAZ86c6XjsvsAW0cjswYoAn0G2D4K8kIZQGYzsIchDxuofhM8GWwsIZilB9kG30/4Mu1coAglK/mGK55577r8aGxuzIWGA4BGQhSRz4sQJx2tHQBcB375kGBA48vlB9PD+IRWBIOH1I9uHE71QKAYpCd8BY4PXgyHAa4NVvu3t7Y+1trZ+wxhTG1hnqFD4ByX/MEReXt78kpKSXHrd7MkD/R6kzMIrb6mYkrTZJ4itG0D8CBafO3fOeR9kD8OCYjH8jdUBYgGcGWBDyiuDgQzi+urvg/Nl3EFmHtmfZc8jzijA355cfyV/RVBCyT8M8cEHH/x5dHR0JEgeZIYKXbZ6Np4B5wzu9hWEhRePlQIIH58DgTLzh43kYFBYF0B9HfvAaNgGgNk0fQ2B8Qa3Rm0DhdtnmfGk83wVwQ4l/zBET09PFIi6pqamtz8/SBuEDSKnru2PHg+jASIEyYPcISEhtx8BXXwH5CD2/jEuhGoHW0e6z4+ENHR2oJfgKgDGToe6KIIZmu0Thrj//vu/kZSUtJNFV5zcBeJmrxsQnD/kzwIufB4xAnr+eA3vYW6A8cz7xfeR1CExsRaAcwXoVbv97W3rq0J3MHDLAuJgF8g+mvGjCGYo+YchkKHymc985vFly5blw2MHkbFXPwgXcg16/ICw+yJTEDnbQrM7JvPlsT9WEjg+VgKs7DWenHrGCOxRj5LU5QAaf9DXysG+Hltm4nfK/XEN1PkplcFwnTlzZkm4/5YUwQuVfcIU11133aH6+vq/r62t/VVZWVkyPHWQPrx2GgPk8CMwO1DYpC4JVg5HMdYgFn/Q1/524HggqwBvn6GBuHTp0njXHRSKIIB6/mGMu+66a8utt976nwkJCV3w8kH2kiwHQpg2GdOzZ0tkW0sfqIc/HJDX603zjxhzuc0FVjttbW2q+SuCFkr+YY6/+qu/+u66det+DM+fwV94/ogDQMMfDNi9U242vMlKtjHwZoyGQtuXx/L1XMKT8TMOhV7h/htSBCeU/BVow/y1a665ZiuCsOy/A9kHElB/QK9fevu2Bo+4Ao5vS0J8nwFgwpsRsEnfn9gEtX252YNc7EEv9tbS2tJ7jhcvXnykra1N0z0VQQklfwXaOLc+/PDDX8zJyTlBDX4wWv9QwBu52xhOz98N0ljAADQ3N08dqXuiUAwllPwVDjDh65Of/OT/mTFjRivkGWTnIIe/L9iefX9y80cjn3+wdQRczTAttaGhIWVYTlShGGYo+St6cf/992+49957v8nAr2zdHA5wC0bbiIqMuiJTST1/RbBCyV9xBR5//PEf3Hjjjc8g6Mvumxzkwo0BXLfsHNuz5phHbnI4uvS8vXnk/mr7fRV7+ZKHOIaSfxsx25dtLti9tKu7q7f3EaSx+vr6NP0FKYIRSv6Kj+DBBx/8yp133vmSHLBOsmf1LzYSZaiAxsyX528XoOlEL0WwQslf8RFkZ2c33Hnnnd/Pzs4uoteLilx/PP2+4NY1c7Q1f7fv93ZObO/AxwsXLiQN+0krFMMAJX+FK9asWVPwqU996isxMTFd8HLh+bOpGSUcOYIxFOBPtg/7DbF9hfb3UQQrlPwVXnH33Xdvuvvuu7+L5mzI+0c/G+NJA+VIxoFAVvzamw17ZeBtpeGWdeRPbx8Svq312/tLwpdbR0dHTGFhYaL+ihTBBiV/hU/ccccd/7RixYpXqPMTDHoOBqPRttkXfNURMK/f7i568eLFh5uamjTjRxF0UPJX+MS8efNar7/++l+mpqa20juG1y6nWvWnhTJbPNhe+2jDbRVhBPmzqpdGkBua4dXU1KTrr0gRbFDyV/QJyD/z58/fAanHeMifqY+DQaB5/t7gK3UUElhzU3NyYJ65QuEdSv4KvwD5B71+UPjFnji2Pm58tFuQRO82K9d4Mmm8GQTKLAPJ4/cFt4wfnoPb9dnnh/tx+sxp7euvCDoo+Sv8QlxcXA3m9Q4lgsXz9wVPIFg7eyqCDkr+Cr+QkpJSlJCQkCf3deuS6S9ke2euBPg40j1/eqwh9f35Xk8LbE33VAQdlPwVfmHOnDldMABDebe8yT+jCV/Vvcblfe3rrwhW6BjHMMORI0fiysvLs48dO7amoqIie//+/R9PT0/P/9GPfvSxvu5ERESE02gfOjfm2voDVgV7GwaP4LGvYjFvnxuKMY0EexDxOPDm8ZytLbyNowTxYwhObW3tp+vq6r6ZkZFROuCTUChGGEr+IYyioqL4M2fOLC0rK1tSVFS0rqysLKe0tDTtwoULSE9EawKHvAoLC9c/9NBD2Wjr7OtuTJgwoSnU7xn7GNlSEGF7/jBcMA7a40cRbFDyDyFs3LjxjuPHj68uLS3NLSkpyS0uLk5saGjovUASGwgLXismauG16upqs2PHjkdWrVr1FV93wyb/oZJs7EygYALuI7KCtNBLEWxQ8g8RoMXAs88+++MDBw6kl5eXm9TUVKcAiS2J2VIBRIXnyNmHfAOJA60bPvzwwz8pKSn5u4yMjC5vdyQcPH8bMpgtVwXO1t3Te39bW1t1mLsiqKAB3xABiDkiIuIStGoMY8EULszLxcbiLOORKWS1Kt5Dz559+/alQRrydTdiYmIasFrAZ3FcOWvXRl8D2eXrNE6y37+/W1+ws5F8zQxg4zq+5haLsGMLlzovOVPPtK+/Itig5B8iyMzM7MjMzPzQXCZpp/IURAVNH0TN4iwOZ2GmDYyEZxatyc/Pf8DX3Rg/frwz4pE9boI9R98f0ON3G+ze3dNtxkRcLgZrb2+PDvRrUSgklPxDCKtXr/41yB2Ej2wcdqKkZ02ph4NZ6P0DkIjee++9R3zdjYkTJ9biOPycnQUzFBiNPP/BgBO9dJyjItig5B9CWLBgwbbExESH4Nl+GXo+5RnIE9gg3bBAiwQOg3DmzJnIDz/8MMvbHRk3blyv5y8/G4roT+ooDGF7e7tm+yiCCkr+IQRIP4sWLdoKCQe6v5xDS28dhgE9erBhJQBJyHj62Tc2NkL6+YS3OzJ16tRS7M/g8WA9czk2sa+eQEMVA7CPbX8H7hHvm5txw/sIkmNjsBf3tL6+PvXAgQOpA7wVCsWIQ8k/xLB48eItIGh49yAvEioDriA2SjYwAFghsLAJ7+/atetPvd2R2NjY2gkTJpSyICrUJnlJ+OP5O62eL3VxpOPdmuuvCCYo+YcYli1b9urkyZO7QEgI5tpBSpI/RzOCyJkRBANQXFycs3Pnzmy3u4Le/sz48ZYNM1gEiubvlpkkwfvaeamz917oPF9FMEHJP8Rw7bXXnpg2bVoJCBr6vpRTGOSVKZp4LT4+3qBjJ8i/rKwMm9cWxRMmTGhl6mgoe/7+gEPcSf7q+SuCCUr+IYg1a9b8N2QdBn0JOYgdRM84ALJVmCWE9zZt2uS10jc3N/eVmTNnGgSW7cpcGBwYBspNbv335QhEQnr6g+3P3xf6Oj6uwVh1Cr7mBshVkBZ6KYIJSv4hiPnz528zl1MzXaUTvEav1QgJA4FLEHdRUdGS48ePu7YphuyDYHJKSoqZN3eeQ/Ys/EKguaWlxTEseI3B5FCAW5Fab4M3j+6vLR4UwQQl/xDEunXrdiKY6ws0APTOjYf8sVVVVZmzZ8/muH08Nja2BqQOqSglNQUrAZOcnNwbYIYxYO47ag36670Hiubvzeu333cyhLouOfextrZWZ/kqggZK/iGKmTNnFvUVtARxUf8nmSEAjBXBiRMnVrt9Bm2dZbAX0lJ6ejqyjMysWbOcOAOLyAKxX/9gIGUsaTRpRJuamhKD9doU4Qcl/xDF8uXLN4CcsAJgYRYKvmzAi6fuz6Zv8P7z8vL+xO3OTJo0qYoBX+wLmQePiAHMmzfPMQSICUAaCrX2D3bHUQ5wZ1+ilpYWlX0UQQMl/xAF8/1lHx965BIwCiAwtnhGC2jsW1xcvOLw4cMf8WTHjh3bKkkQhgKAxAPjgVjAnDlzTEZGhhNzCDXYXj8D6Lh/nZ2d4zAsJ9x/e4rggJJ/iCIlJeXYrFmzKlmNy81OzwRpwZMHicEIgLBB4qj2dZN+0NwNRoKkJwFS5AoiLi4Oged+31xb6w/0Hj/MUEKQu729fV1jY6NW+SqCAkr+IYqcnJxKGAB6/uzmaay2Csaj24PQMdmLBI6toKDg4/bdiYqK6uBx8HlISTAokD2wCoAxka2ZicGmbXpLz3RLwxzOVFG3cxGeP6QfTfdUBAWU/EMYV1999e+Ziok0TJIxe/0Yj+dKyQbBWqaA4nlhYeFH+vtHRUW1s68N6wbo/eKzzHvH6zgeVgCoNDb9NAB27r9Ef8i9L+Ngb5DKZCW0Pf/gI/38PfvA4MFgtrS0aNBXERRQ8g9hoBEbi5ZATiRl4zJshWAGEDz6ysrK9JKSkiu6m0VHRzfExsb+G1YSODYHnXs7Jou+BotA9fzZ3ZTZTZrrrwgWKPmHMObOnbsTkg7HNoLUpfTjRo7w6rEv3j937pw5ePDgHfL9OXPmdEVHRzf1iAHnvogWUhBz/4eLjIca/YkzkPw5N6Gurk4neimCAkr+IYyrr766fOzYsY6+Aw+dhO9rSDqkC+bqw/vfv3//R3R/ZPywp39fhM6VQbCQv1shl4QdL+H9ZHvnpqYmbe6mCAoo+Yc4srKy8kDAyPcnCbObp3EhOLwOvZvGoqSkJNe+Qwz6YpXQF3gc6uXB4v37Aq+BmVO4PqbVdnR0uLbFUCgCDUr+IY6ZM2cektO6JGQjNYKvMSBcVVWVaeeug/z9lUWYFhosBV+cTexWE2Esj59gQBgbmrsdO3ZMDYAi4KHkH+JAkzeObWQKptTrbVKWBgEEePr06bjTp09f4f1jnCNXDn1Bav59tZvwhpHO9e/P95H0u7sut8tuaWl5QKUfRTBAyT/EMWPGjCK2Y/CWdePm/RsPsaHJG7x/uf/YsWPb/fXmYSSk0Ql00DD6e768d2ju5vH8NddfERRQ8g9xXHfddYcmTZrUispdDGyRnr/sTGlEsZIRWSzYduzY8Yi8SxjnyM6dfXnznCkAUmQNgL9wq/Y1/czzHwzcDIBt8CgTce4vUFNTkxE+vzBFsELJPwyQnJx80p/grPHINGzdAHIHamuubFUM2Ycykj+g9x8MIJlTpuqv3OTJktL+PoqAh5J/GCA9PT0fVbz+kBo9eanRnz13NnX//v29+esTJkxw8vwpJ/UFePwsNhsIAr2/jwS6nFZUVLjOQFYoAglK/mGA/nj+lHLgwbJjZ01NDbZe73/cuHFtIH9/vHmuEGAogkXzZzzDW7YPW1lI0DjhWi9evOh7ko5CEQAIjrW4YlCYM2dOHokaGjyICwVcdvEVHkH49NTZFA6rhtOnTy81xuwwl8dD1uCzaASHgrC+4Ml/d/aydXS3bKPRhKx/8FYFTbAjKvZzqnwvdZlxceNMfX29dvZUBDzU8w8DxMfHl5P0bXCAC4qUMIAFxWD4mz152BqisrJyHj8Kz99fycd44gihMtjFraMnjQQyfrBKamtri7d7IikUgQYl/zBAcnLyUWT7yGAmyZjtnkH48OLtRmwkf1T6njp1ynkDqZ7jx49/xlebCAKkiOPSkEj01yAEogEh+WNz2llHOu0sbtIeP4pAh8o+YQA0Y4uJiemoqakZJ4kfj1gRQOrwRuTc//z58ytQvYrkn4yMjC709/HnzoEU6fkPhLxHIqVTrojcaiEYA+F50NOXrzNNduy4sZB9zDvvvPP5oqKio1h1jR8/vgnN8MaPH9+M5/PmzfPr3ikUwwkl/zBBbGxsTVRUVCp7z0PHh8QDQmYjNwSFbSOA/HwYiMrKSpAavNlavD5lypSyiooKJ0AMcseG4yYkJDjHKC0tvaKXv/EQK2QmxhIIXzEA+fpQGwFvNQr8HnZC9RXYloPqPcFe5zoPHDjwxM6dO53+P73DdMZEmAnRE4owDS0mJqZh/PjxbZMnT4ZxQB1GLR4TExNL5fO4uLhKyGxqMBRDDSX/MEFCQkL5mDFjUjncBQQHA8AiLG+AXMT+/mVlZVcZYwqMp78PpCK2MuZQE5D73LlznYKykydPGmYFkfj7C3rVwyn59GVU6OW7FZnJoLC3FtnsE4TH1rrWbPYOkisw+ZwSGbcJEyYUxMbG1k+YMKE5Ojq6HhPaMjMzd6akpBxF59ZhuCWKMICSf5hg2rRppa2trbnsPuk2z9cNJDl4+EVFRbcYY35tLpNaNI7DimAC++E7pk+f7gQ/YTTwHBvbHhMkRUmqvhComr+UfexVAovmIiMiTUTk5ftup4vKrqfYHwZD3ouLFy8uwUxl40m7hcGOi40z0THRRVddddWmFStWvHTjjTfmj/ClK4IcSv5hAniKkZGRD0CGYd69P2hqauodbVhdXZ3Fj7S1tcWBpLB6oOSDR5A+vWEOc+ekK2YWmSGY6TuasLN9fLWbwD2iJBTR/Udj57TVjowybRfbeltss00EZTE8x78X/uaQ/ZSUlMsrrM4O01rbmr1nz57sQ4cOrX/33Xd33nrrrT9atWpVUbj/1hX+Qck/TICqXBARu1DK3jzU7UHyJGoOa0FcAATP3v6HDx9OhORz4cKFZPaxx3FBXvBI09PTscowtbW1ztxgfJ6rAchNstiM8QdZVWxG0DDYKw+ekzwPOwZit3Lm6od/08BxBSDrBmTfJF6zPQLTHrLPQjvug3vJY+Gxrq4O9z1n//79OXv37r03Nzf31TVr1jyzdu1aXQkofELJP4RQUFCANgz3VVdXp0PjX7Ro0ZbVq1c7niCyTEC+yESBjg+CQisCzvYF6YHk6YFSnsDr1ParqqrGvfzyyzU43qlTpxwvH6/jeEBDQ4OzUkAAmceitMTgKRGonr9sdieNgDQQdhyCZEyt3kn97PJdIOYN/PeQ5yIfGUPAd+GeojYDqwNPYD05Ly/vscLCwlt27969cc2aNb9EY79huVGKoIeSf5AiLy9vPipJ9+3bd29VVVVWZWVlJhqKtbe3p4IgQNg7duw4dOb0mR8sWbpkQ2dnZww8c2jGJGE5uEVmrdg5+QzmoqL3tddec16Ddz9z5syPaP7ICoLOj6wfGAF8humeOIadSkkP19vwFDOCWr8950Cmd9pELtM8OfSe98JZOY3pGtD8AjbTs6/ZbZViLstvvfcVxh3PGxsbs3bu3PmloqKidSdPnvzR4sWLtyxbtqys3yejCGmMCYWxeqEOSC34j3zmzJml6LGDYSE1NTVpTU1NWZROSA4gXurDJIsZM2Y4r+/Zs8fx9im9UN6RGSsyDRPHBaHgsxzt6KQsRkRgPrBZtmyZQ1Y4Hsh9ypQpjiaN1cX8+fPNli1beqWe6upqc+jQoStkDCOmi0ny9zVH1zY2g4UkaEn0dtsL6vL8m/dBZuqweyljIG7Gri94k77sOQNclRlRQc3n+E78m+F1/Pvk5ORsuOWWW35y++23bw33/0uKP0I9/wDH9u3bc3/4wx9urqurS8R/5KlTp15xwvDwmS3CbBNbXz5+/Lgjx5BYZLAXuryUOkiGNCD4Th4Lf7M7J1YQ9HyxL4wDDAv+Tk5ONmfOnOk9F5CR1PaNl7748j15TnYrBYm+qoz78r7dDI2VaXOFwaJBtWchyMZuJGf5t7+rF28N49yMAv8d7ZgJnjOdF7JQYWHhfefOncsuKSn55Q033PDM4sWLa/06GUVIQ9s7BDjefffdxyoqKhKZCggZBUt7EjK8ar7nRjD07CnnQIqRG4hNerFMBcVxoSPTowWZYF+QPI6H90GMNpyVSGTUFb2BqE8Ppq3zaKI/q2PZ6kF662aI4xz+GhME3nHfu7q65m/ZsuX7zz777E8hGQ7ZiSiCFur5BziOHTu2Gh41iqZYmEUNnrNxpU7vJpOQ/N0qVZmHjuPJNEQeh6mKlDri4+N7Uw9B/pwPLEc/Ro2NcowIvk+mOlL3l7A9aDeMseYOjwbcZBjq/vb9lvvIgq3RAOI8+M1g1QZjX1hY+AASAo4dO/b0n//5nz8Tcv9hFH5DyT8IQIIBkYJ0Sf74T41MG5kXboN6Pg2E3defrZv5HskL34ONKwPGFaDrYx8QiZv+TkIcGzW214hQL+e5E8NF6N768A8Udg6/r7x+exiOvPf+jIUcajBTy/l3GHPZaFdUVORu27YNcZj0efPm7UBmmGYFhR+U/AMcERERXSBOFmfZoMwgg392p0kj8sntPH5KPrLwi2TPGb7wHnFcfA79erASYcuHxMTEXvkH3iUMkpNtFD3B+QzeYz0Ajo/rYDaSL/K3pRISp6+sILfgbV9w8+jt82AOv1tFtAwO87P898A9RKAb1w0jjXtnG8zhTrhgAoBTQNZ5uQYB/y61tbW5W7duzd29ezf+jY8WFxf/5MYbb3xm7ty52kMoTKDkH+BA+qab7MG/SbzyPV/Vu1xFyOCpJHrmkVPq4d/Q+rEhl994jIxbrx6QG8mdgVKeO7+bfw915g7hK1toKI4pg74smDNi1WOEAeB942Q0txTO4YadTgsDjX9rFODh3zMqKgrxgP9oaGhIfeKJJ/5u2E9IERBQ8g9wYDCI8ZJ+aFzIjVW73gwAPX0jCplkewEWY8k0UEpFskMl4w9GkDn3oVEAuSDvX2r+ct/+YjR0876+U2bz2HEAtrRg1S9XUKMFGi2sQPBvimAwssdwfvh3ev/99/8XurU++uijPx61k1SMGJT8AxxjxozpcpNH7BRA6X3SALjJRLLDpJRWmNLJlEyQA+UajnXEfiAOEDzkG5K/3fJASlA8Jg1AIDZnGwxs79+4rACYIjuQoq/hOF/828GA498SNRk416SkJPybJ2/cuPHrMdExTZ966FO/HvWTVQwrlPwDGBgFGBkZeYl6M0mGXj0I2i4iIgkxKMzqWqZv2lINK0rl57E/W0C4eapMCWXPH77GfH+cJ/L8ZeYQXuex8DqD197g1u+nrwCxHQ9w27cvjd9NJuoNmFoGU3r81Pg519d4RmSC9CGt4F7huZx5PBKSjxu4cqNhdq6v+/J1X7x4MfX5F57/YfL05KM33XRT3qicoGJEoHn+AY729vZkEgvIE8QC4uyLPAk2cEORFza2IeBm5/3L+b3GEw+Qm5SKWFVKwsTfIDtICSguYr8bQn4+mNEj+vjLjSse/s34CWMbuLfEaBE/IQv+YifGmuaW5t5YTWdnZ+I777zzuVE9QcWwQz3/EAfJnx6/vVKQhVe2dGFcKm9lV0lq2jwmv4PaPuQF2Z/eLvJyS30MNNiGym7oZoPXxCI4etc03CYAiN8XIAUBhYWF6wL1HBVDAyX/AAf7xIBYQbx9yT426KEyZ99bi2KbiElw1PXtz3DlIPvX4G8QHrNJQCQs9DKiZcRwZfmMJLwVecksIFw3i6sQ/JZxGLfPjgaYsgvvv/NSp9O2Ayu37u7uBgzsx/znoP/HUrhCyT+A0dXVFYn/nJRiZBYOs3bcPFE71ZFyhFt7BUlWJGVJSrJjJb+LHj6Oh2Ojgydn/QJoQYH8f/b4pwHBcXEt/Lw92cv+bm/wlesv4VaMNRRFVvI+s4cPM6aY3cPVFl5DdTbuEQvqeO7+SnfDDZwXawDwb1JVVWWysrKyMbPBGKNjIkMUSv4BjMjIyC6M7wN52u2F3dr7ukGSTV/EymEkhAzY0kDI85AN5WQ7CPYC4t/EcBOd1OGJvsjfhlsA2FdFL66J2VLwoPFIQ4B7gHYYWAHBWHM1wHRZOchltCB/Q042V2ycaW1rZVFh+6idmGLYoeQfwMjIyOiaPn16aVtbW7qs1OxPp0gps9g94b11zyRkYJOZQ3Ilwa6fTAtlTADEgfNlthC/123lIa9jIDKI2zwAX+TfV1dQ21BKQ+u2amA8o0dM12IDPVw7vH4G6e2U0EABM5mcf4uIywH5xoZG4/H8tQNoiEKzfQIcS5Ys+X18fHwHvW7CX2+R7Rz80ZhlB0+Z2y+NAKUnyk8kfhIIi4eQ3sieNoRddzCURDgaOfQsdMNqifIPZC5szJzinGO79z7uHT8XSEBGGP4dW1pbzPnz57X7ZwhDyT/A8fWvf/2LH//4x7+LkYnsyY/gIbxJBlNlfx960uzVAw8c/5mRt0/PVLZbsMlHGghpMBhjoBHqnV17qcvxbh3duKPDOTd4/qWlpc6sAJn7jkfGBVgt3GPNrjUuPXr8IUg3r98X5NAaX2CAHcdFTyPq+bivuE6eO/YB2YP0cS/kOEZ5b2VjPa5W5DbSYAM6rmzw78zRnWVlZUuC9f+Nom8o+QcB/vqv//of/+Vf/iXjtttu28qAKf6DIh5g5/3LKVJ2AVdfxNhXkzU3IENEGh0+wtiALEEsJBTjCS7SOI1mxatNutzkSkfGNLiKoZ6P+0zvHn/julgf0ZdRCeT0Vp6/pwdQXACckmKYoOQfJFi+fHnpf/7nf976l3/5l49Onz69El4nCqlA8CAfjuyD3AKP25aJ3ODWKK6/wHdK8udqAeeG1gGUQ3g+rHBluwO39NL+QK43oB3HAAAgAElEQVQM+kuqNtHbm1zlyKHpHGzD1hdycE0woseaXUznwaP5K0IUSv5Bhj/90z/95b/+67/O+sIXvvCV2NjYDtvzR0ohZBgOU/EGf4myr2wXBjIlkbJjJDx/Sgn0nun5s8WAjZFcDVB7l9dnSzCUdEj6PHc54yCU+hXR0Hk8/3id+hW6iHzyySfD/R4EHaZMmdKVm5u7c+7cub8rLy9fgX4skIAgtTDACI+ccgszhWgM2GLBnjrlls1itzGwC7SmTZvmFAXxmNgf3n1qaioChgaxCqxGqHVjn/Ly8t6ccnsIel8av51jbywDJecVSNmGBWm2d2/fE7a3lo/S+zeiSppauexUSllItsO2N/se9+f5cEDWi8gGgR0dHXOPHTu26Pz585Pj4uIOJSYmdg77yShGDEr+QYy0tLTqe+655+fjxo0raW9vzzh9+vR0XA379LC4CobAJn8JX549SVR6xhJYZaSkpPSSLoOdeB3SCIq9YJhILjACaB/MxnOUS0iU/g5c99ZagefKR2bUyCD3GDGrQH5Wkp98lBv7E8njyWvgcz66HcM+5/48HynwnjU1NWUcPnz49oKCgvUXLlzomThx4mE4H6H1Pyk8oeQfAsjJyTkwe/bsTVFRUTHnz5/PRYUmSBvFRcxOIfn3h/iN6GjpjfyRvZOWlsYh4b2BXBgfvI7vrqiouCLTBdOtsBrpETNuB0L+3q5FGizq9nKAvC9vvC/yp1zlRvz2KsE2JsFA/mPExDTWcEDC6+joSD148ODHDx48eEtVVVVsdHT00WnTpn10gr8iaKDkHyJISUm5cOONN76emZn5WkdHR0ZLS0sWAq4svOqL/L2hL/JHbGH27Nm95I8N3wcJCpLQ2bNnnfbOnBKGc0AdAOIBNhn607ahr+CurdkzSIvz5Dxb6fV7I1tv5C9lHpv47ffkMYPJ85f3GMadozdhBC5cuJC2b9++248fP35dWVlZ0jXXXPPBiJ+gYkig5B9imD179vkFCxa8MGnSpKrq6urlZ8+ejR0jevRz8Du9c+rWbp4q5whID52aPwkWAWYMAsGxsG9dXZ0TA2Dwmb1usDET6PTp007NAo8p4wX+kp23+AC9c1lExY6aPZ7OojLYPMYaL2msWgd7nrFM96RhcWvuZgTpm0F4/oPFQI/H+8gAPuNHjJNcuHBh9vHjx5e+++6793R2dtYvXLjwyJCeuGLYoeQfgkhISOhZunTpnuXLl/8kISGh69y5czei2RoJUHrBLEZixpDUzEn07PyIjfn6LCLDZ+D5s/8QDAyOPWPGDOc4MAoI8BoPqYJE6PnzfIyLx+0PfK1aeP7MMGK8QxbByU0SutTu+dwmcRk7kPAmKQUL+Xu7n17udUxbW1tacXHxis2bN/8Z5KCEhIQ9+P0N/IwVIwUl/xAGsjNWrly5PSYm5nhERMSUysrKDJI8G4xxFUBNnARIz48D4llLQLKjZw2yz87OdvZFkJefw2oAsQdIP5CfIAUxHgCvH0FgPncLtPoDXzECSlA2+RM0Am5xABm09UbuoUr+hJ3lJZ0CueEe19fXx9fV1aWeO3dufV1dXWJiYmJeUlLSR3uBKwIKSv5hgMWLFx+68847f5WQkFB46tSp27q7uyfAI+c8ALZqYAaO7N9jxBxaFnQZIYfgOdI6KcOwjTEMBbR+rgAgB1FGgtcP798txbC/ZMXVie2Z9kX+hCw0k22rvZ1POJC/3SrDLaXWNgxwAuAoHDt27Nrz588vnDp16q7U1NSGIb0YxZBCyT+MkJ2dXTRnzpxXOzs7Jx0/fvxqOVaQxATSlgNgZL48DQOCgPDsp0+f3gWtd/z48dNgTED8DNrCu6fsA1no3LlzzudxfOT9g/zlMJqBkr/t+dtdS+UqxtcAeRI5NXxuUpaSn5VGYoxI85TdQI2IH4w0+bt9F8/Hl3GTTftsR8AtJsNJbowH4P3Kysr5TU1NSbfccsvvhuRiFMOCMYHcZ0QxfNi1a1f2q6+++q1Dhw6tb29vh3YbCc+NQ95JhPh9QLpJS0srmDp1atny5ctfmT59+tGMjIx8tJxGBeimTZu+2tTU9AiJBSsEEAErjVesWGH279/vyEAgf8QADh061Dv03Fgk2ZfuLL18zh+QmUhyJUPi5yAVaWzcMofsyWh2TIIggdpBaykj8XhuKwF5HImBtLXuD+ymefb1ywI542JE7PNjzAj7cwYwpMSEhITyZcuWbfyHf/iHx4f1ghQDhvbzD1OsWrWqaNWqVQ/i6gsKClIrKiqya2tr06qrqzMjIiK6YmNjaydNmlQ5bdq0k5MnT65cunRpmdudWrFixdFNmzY5JMysGinF4PX6unpnBcAsG0gE/nbVJAbqpNB7Z42BzNwhSG7eCsd8nQ9lMCkByeMPtYzjL+wVkZS27NfkvlLysbu+ul0LiJ5jO9HPCSs+jxyYunfv3ntfeeWVrQ888MAro3ITFD6h5K/AzIBybAO5E0eOHImLjIzsYKM2ppAaQTS1dbW9HjHTLUeaFKnnM1VRjsJ0S80kfBkdSZRjrDRYHn80xjT60uxlS2lvNRP9DbpPmTLF+U7EcoynaR+aC44dOzb5f/7nf/4jKSnpxA033FAwBJemGEIo+SsGhe7u7sgxY8Y8Rq8eUg96+oAUkpOTHU8QGj8MAoiQuf6oAWDlrxvZuJGu/Zq3CVv2ZyhhyZgGPHY5XUtW5/r6Trdzla9JcjWelQFbbdO4yPbRY1xaTfiCXKW4ZTrJY9tTyey/+4Kb18+gPaUhXBulNxo63nNPTUnqyy+//C8JCQl/lpOTU+n3lyuGHUr+ikGhsbExFVW88P4QCC4pKXHm1kLaQYonB85IbV9my4w0ZOASBgukLBu/SZIzfQSi+zI8AKpj8T14ZHdQWUdg35e+jseiO281Dj1inCThFqj1996PsUZ90pBS65cyEu8ZDTyzxE6ePLmupKRkeU5Ozia/vlQxIlDyVwwK48ePbyorK3NSObOyspwunjbhMyPEWF0v7eCqLwxVYgLOy87lJxEOVztpGhcGRWUNAQym9Mb9IX97DoKEW+8jaSj6c8/t7CaAbTnsrCEj7h+H2PN8UdNRVVWV5fcXK0YESv6KQQHBYXj58PiRvpmenu5kBzHDBsRPr9p4yEfq7SOdbcZ2BSRfkjFlIRsDPT+Z7WMsuYatLugZc16yPwbRlpVGAvLc5YoFf1PyITjTWA6rnzp1ageyf0b8xBU+oeSvGBTi4uJqkpKSthUWFt4EQigqKnL0/Llz5zrSD14DwaG9BNspQP/HPjAYkF3cYGfgeMtZl966lB3GeGbvSpnELVdftn1w6xTaF+SISkohtiTjls7Jc2f9BAiTfYdkCimP7e1Y3l6X98+XQbGNG4PhlI7YAoQZTGM8bbkRyyHx8zrwiFRPxH0SExNLk5OTT2RnZ2+dMWNG0T333LOxXzdWMexQ8lcMCpmZmR2LFi3akpeXdxPJADIQPEBPfYDTDRKkgDoCSgKsAh4O2EaAJDYcMQa5qrHlELsy1i1nnu/RCLj1FxrOe0TI2IY0qgzi4jpZA8JzZdEe/p1nzpyZj7TgrKysnbNnz95/66237hiWE1cMGZT8FYPG5z73uX8qKytbumXLlj+Bvos5ApCAkO4HjRjDXkAQTPccKZBcZVvqoTYAIENKMVxJyH7+Em6rAWkovG2DOWdv2T12OijBLCGumIxHamJrD1xfcnJyx6xZsw6C7HNycrYglTM9PX3v3LlzWwd8oooRh5K/Ykjw1FNPfWrmzJmHXnjhhe+A8EEg8AoZDEabZ8QDkBXENEAOn5cY6hiAJFdKGEMJSiRGGBu3YLK3imLbCDAwLFtHDyfwbyBB+Ua2dZg1a1YDKrpTU1OLFi5cuHX69OnHVq5ceVT/5wQ3lPwVQwYQQ1pa2neg5VPHpuaPdFCsBq666iqH1KAZM2Ao5RJvg929gYTrLVNHSkCyyImkR53dllfcqn7dPHAOr8FxcGxWMFNykm0SjJWFYx/fPl8GhGXPIXyWU9C4kpLv2wFYqd3zM3KFgX8npKEyZx/3ITExsSMzMzNv1qxZ+6+66qpNU6ZMKUNFuP5PCS1obx/FgFBcXBzf2NiYXFhYuP7s2bM5+LutrS2+trZ2Dcr8CwsLTU1NTS8pMTAK/Z8kTOPgq9GYG+ygql3UJCE7T9pETNgzd90kG2/yCYwY4husWib5G89xvbWM8Ddwy7nIiJmwi6oR8xQ4R4HHlNlA9qqHqab07LHh32P69Onl8+bN2zlr1qyC+fPnb4OHn52drR05Qxzq+Sv8Ahq41dXVpZ04cWJ1Q0NDanV1dfqFCxfWg3iQyUOvE5k80PwjXAaZg8RQ+CUDvm6as+lniwEGKN0I2q3K1YbMwzdW4NZbCuhAIfV9eVxv2U1cPbAamfcS3j/uO8hbGj+7ZgBevfT8UYCHLJw5c+bsTU5OPnrNNde8As9+4cKFSvZhBiV/xUdw/PjxGHjzIPiCgoKPw6Nvbm5ObPv/7L0LkF3Veee7TndLIAmQjHgYGYMwILAQBoMM5iFhATY2ZSC+9vgx43Hi1Hgmk9zcqcydW7lzcyvJTMU144rHrkxm7HGZirHjPJw4fnFjm/gRHgGMeUmAhBAIIQRCQggEequ7z7n1271/R58W+7y6W62W6E916qjP2Wfvtdda+3t//2/37kurUg/N6YdBwSwpXEplQZDMn+/5Dq1YjThWh46VweZpn1Wfdwp+mrkTA7ZVQepOBVbdkv2E429z9xMav+4f3plbPst7FOirh9lHIsZy+umnLz/vvPN+On/+/AfOPvvsewDsI0urp8FO0RFHU8x/igoXztq1ay8F2fPpp5++FHTPV1555XK+qw/XU62vNRwDTAlmpFDgOLJ8EAQxz9/CH908FgoJH62VMF4UGXEsJosCJwXhJTkeLZNYnRzPJ4ltk0MzmPUThWXU5tXEY8zDAriIEGonNcfJ8QhVjxOozhTRefPm7SKvfsGCBXe95S1vefTiiy/+7pRWP0VVNMX832C0du3a6Rs2bHjH+vXrL8aNs3r16mWDg4PTd+/evXjf3n2pr/9AEDC19KHBoTQ0PJRiA5hUaqZqoPyfYwFySyWjNZgKk+R7sW5aaeoTTbkwEG4hh37WKrCQK5+jqmrlTvcnoFwj65mcQsplFET2V1CIIlxnzJix64wzznjwHe94x9+fccYZvzz11FMfWbRo0dY3+j6fos40xfyPcFqzZs3MTZs2LXjmmWcWb9q06Zxnn332wu3bt19LoNDqzxgMjcVIMPx6o576an1pYNpAmn7U/kwRCYaodirDhPmrldr0XY3fwiCOy9MMDwXlDFrIB4ua9Pk7V7mvPsY1ZNZxTquKqdq5h2IGD4RPP2WuKQrnLr744q9cdNFF3/3gBz942xt9j0/R6GiK+R9BtG7dun6Y/EsvvTS/9Nmfwf/37t17udW1qWzGHqF5m0HGviwLZqA/8S+FoGju/rFy1//DMNX8YVhk/vB9zBvvCy0SDwWyZ6Sc+ZO9E+dE/7oxi5xi5k6MFVQFYHOKlccKDSwPs3t4Z410kfFCaNMXedGiRbdNMf4pGgtNpXoe5vSjH/3oWgKzMP0XX3zxzN27d19rGuVoqAoVMlL+OQKFAi4Yvpo/Of1g+lvoFYuGamXzD4jiL5gdx8DkYLwICzVu/eUwQa7D+a0+JavIIKef41KyMT2/R+iYHqnbxkYjntvf8xsYK9dnXFoqHA+z5TMblesOEuuG8ZPFhJbOa8uWLc3PuScL2VgT2xwyPjJvdOeYKpqjZTpv0QXHZ8cdd9yqk0466ZmPfvSj/9dUDv4UjYamNP/DhJ566qnpr7322slr1669HPcNgdlNmzadSTOVlNJZumOqetSOJ+UCASYJpAOMF6YO8+UdASATjnn2efDUvq8yW91EEdTM/HUDpbG5eCpdTwqCsoFIM8jMO0Bj/J5AKX/LXElJJV0yurJgyEIZ5BXBBq9jLMCcfn8PE4ehC2DHNbg/rid4Wx5kbgWRnLKiL49lbK+99trCoaGhhV/96ldPuvfee2+78sorb7nkkkueOvKfhCkaL5pi/pOUVq5cOXfHjh0nPPLII9frxtm6desy8WNgHjAXNMuU9ZBN4wCT0K07Rh85GjP4PTBDXitWrDggfz62Nowkc9ZlIhM30Gmeeo4g2Vc2aY8+eskKWK+p+4T54sV5EQSMk/fIkPkMa0QBE+En+H+MU+Rpryk0MjHArbZv7cPOHTuLOErs5NWp6CsKANeee0bobt68efHWrVsXP/vss+985JFHbrviiiu+MZXdM0Xd0BTznyREERVMfv369Re+8sorb924cePCl19+eZlasJqh6Yd7du9J+wb3FQw3b0k4ESTj4h1Xx7x584q2jTBXXCS6eyLjr8p+UaPXdSPEgAVgFpB5nMxfdw7HmwPPZwZMvRbQ0TB0ro9Wz3zx/6effroYK4zeFpOxNaFZTVHj1uevuycybedDi0OLRwFy0kknFQLgmWeeKVxk3I9CJnUobvM6Ck7niLEhOPluzZo11294dsP1q1evfs9FF130PQDXptomTlE7mmL+h4DIwCkDsmeGitkzhoaGLoxoiimY/RGLhc+OnnF08bJpduqiv2zqwiLoJDzMzff/jIfsE1w9MEwYP4xVd4iMWitAzVlGZpA4d2+oGfOCOcd8eBm9uDQKAMeuwLSRPN9pnSCg8M/HALZ+dOGKbfCipu95uQ6QFTBxXUAWtOlyMxcfpsy5+J4YA3hHixcvLuYKikHxVFHhm69ZhK+Ia8RYtUB279mdHn300Q89++yzH1q1atU31qxZc+uHP/zhb7dd0Cl6w9IU858AWrVq1Rx89Js3bz4Hpo/vfuvWrTdsf217kWEjs1KjixAAOeWdnPIK1CpXxHiSmTAy4rlz5xZMlb9hqsuXLy8EgK6WWPzViSYi+aDQ7ocPzDiSqq4f+9/iToqB9DxbSiGnEOD/CBAa1eOeA9r69NNPB/u++A5BolupleZvkZmupHx9Faa6g6wGfvTRRz+FYvHLX/7yY9dcc81/f9/73jeFrz9FB9AU8x9noohq8+bNZ8nsX3jhhQXAI7z66qvL1NLJmy+qZvv7mv7mVGqWtaz5SM6Qcghk0yylg9X8Q5LZyeBgaGj5aLcwnbJfa9MdMdmoiCk09vvlY9ZOlYASohmmyvpF4RsDw7quZNZaAMwHQpHX6tWrC+aP64nfgnI6VmL9Eb7GMbA0FLrbtm07a9euXWexHx966KF/vPrqq780FRSeImmK+Y+Rli9fPo/sG7Qs4BFg9sPDw4ujrzuVGp1+5IhKCRPQlxz/L+XugFzzz/HeD7b2PDw0XAgumR1+dAuizE0X7mE8+s22QuqM/89RPl835nINYjGbqZMRcqFW0VQlQjNzP/GejLNEDP+Ixc//0fq97rPPPltYAKwxcRKsJmIare7NVNO8AjgKVc4B08f9ZTzI8XAdxvjKK69ceOedd164fPnyG6666qqbr7nmmj9dsGDBVOOVNzhNMf8eaPXq1cfitlm3bt2l69atWzw4ODhj48aN56SUFqY23ZGqPsuDeCm0zEsVTL9bLbrTcZ2+7yQ8hH9grLzUhmFmzz//fOHLVqjpm/cY7hXBoLAQX97gKN9hQXCuGEzlM338CrtW1cGkeZoaahVxxLCPzJ6xcm4YKMfxMlYRCe1azV9LjetwLN8x3iKTp2xiw/3B9BUa9i/m/1gAxEf4TQ4V0W4dWu0txp9C1pUU79OYys6dO8/69re//V/vueeef7F06dKvLVmy5OZzzz13e9sFn6IjlqaYfwt6+umn+/HNP/bYY9cRkAUigffXXnvt2phZc7A7LU02im4p5sH8fBgnzC9qqTJfGRHH2zwllS4sA7sppEnG3radBGmupVdRLFxD0HjNPGunXaaN46r63mbm3A9BZlw9CDLcXzJk3GC4ZDhOa0Kh1I5Gi3+UWxBxrl566aXzf/yjH3/h4YcfvmHpkqW3fPwTH//GZNxrU3RwaYr5l/Twww+DZDkvwiO8/PLL15mNYiZIzM1+I1ZHRxcIzBDtGcYWmanMFcGAhguTQ/uFScIQYZAKgQijrMBwbsfDbZST1zQYO1YSvwjiHrF+9MFzftwxWAhkCPGKcZ2DHZyXIhic+P87du5Irz352rIXXnjhnLvvuftfvve97/3ijTfe+MMJGdAUTQp6wzJ/fPVo8mj2r7766ikvvfTSGa+++ur1aK/RHdMM0vYdGJyVjnQBkLudmtDIQ8NpsG+wgHGweAr/v8xVv7NVraaCCu0MoxT7JzYj0ZKI/vnxpMj8e4GQbmUZcD8wdywcBOHb3va2tGTJknT77bc3Ya25RwQkwkCYa4SCLhupXXxjtMHzuD9j9zSFEwrP8PDwvJtvvvmdP/nJTx7++Mc//u+vuOKKR0d1sSk6rOgNwfzJqwfNcuvWrfNffPHFs55//vmFGzZsOH9wcHBh3uNVph+hBRqh8Uh8COPxkcYzy2W8M2Y6CavoIonXz+8f3z+fgWMDYyN/3nRDGBsMn5RPhAKaMX9TcMV84y+H8fE5LhIEgcxVVwiCQqAzvzO3XiuB31ucxXrZ+CS2KTS2YE/hWBhmMRfjSaWAN65gHEL/fgqNYczRt5KYd47hXtevX58+8pGPpGuuuSb9+Mc/Lr6H+XMdMJDQvDk3MQF7B+Rwzu3mv1dlI6/6jsKPOWA8pYIzd926ddf+8R//8U9++tOf3nrdddd9fqpJ+5FNRyTzJ6+ecneAznDjvPbaaye9/PLLH4LJCBBmwJJKWRhZLJtPIcUvwinIuHIcnSOZcmaTA7vhxiFlkQKm+fPnp3PPPbdggAY57eErE4IJonEiMMyAkUkLD22uegqNWHxZ+ct5YpCzKZTKa5luaSBW5i+TVlsX4TRlOf0Kf8ajsIlpnykwVu4FoaUCAbTFBz7wgUJIPPzww03BhRDgenzOnGlVxgpuabQB/5zi77VoY5YT86Fg4f9HHXXUybfffvu/Wr58+fWXXXbZX37gAx/4/FSl8JFJhz3zp+WgePXkMz///PPn79mz59idO3cuKaCEQ2oiD5gVmYKEzZg5o5kXTTMTYIwjs7LxOIxCv2kE9jrUDUl6qdjNtfrxIDTHNWvWFEwexmYeO1W+MGiFAAwSphuZJ+8IC10gvMOA+BzmCGMXjsEgu3EX/fUy3IjaqQsparr2GaDSlj3A3ogB6xQEPmOIwiiC04lAmso0Wz6zibsYRfj9uQ4vQeU4FogHjqe4C4vHtoyN0GO30/r2unbeW3StxUC6QepUCjzGRWxicHBw3l133fUfnnjiifdcfvnlf37FFVd8bSoz6Miiww7SGcAzXDe4cYBEWLdu3SV79+5dJl597IwkTkvMBonVqZr5VZpXpPy76C8+Upl/t0yH+QPBE+YNo7vkkksQyIX2yxzBXMzy4XutAVM80X71QZsWqksHTd1MGl+uBQwquks4Hm0eYYTgMKCr64h3zsVv+C3HMB4bz3iPfpYC7lDsf2AufSqrq/kN14X5cw3cXxZxUQDHNZkbXF5XXHFFIRD4DJcYx5NmytgRfHnBXtW8d7PftFYbAX+pyqpIoQ2nc4ggiNaCdQn0Af7ABz7wxx/72Mf+suMApuiwoEnN/Em31H3DO1g49Jfds2fPpfp+YypemgTM+GDTWNdrrJpkTsw3jAzfv41HUtkUhZx2gsD65dWiYdDi4sNsBGvjXaFgSqbYPWYK8bIyN2ZepUy45Qwvv9/8u1jgVaUM+J0QDikEjxkzWj0vGD3Mn/tCIKxdu7YQaL/yK79S/J55UrvG6pG4TzGHjJvwe94NgHtd+wPnqbAcZy2CAlY3WnxW8lTZdmsbewsT337729/+jxSKTWEGHf406Zj/PffcQ5XsQoqoeN+7d+8NMHox2lPw66YuMGOONGEw2Zi/BEPbsGFDwXysdNWNwN9o1AgCPoNBwkwQAmQBCd8cu2A1ApCdjVlgnJzfXPnIiFMLyyZn8nldRp5uGeGka6EjVyvSwiCYy0vBxD0K64Cgu/7665vCC21/wYIFxX0gKBCeHMcex3LgfBZn4UIyM4rz6C6KCQmRWnUSiwKgl/UXpkLsqRKNdOtFF130g2uvvfa/L1myZHkv+2SKJg8dMub/+OOPz6GICgjjLVu2FG4cfPZ79+6d0Wg0znFcESslMvpu0/SOdOY/VrdP/vteA4swOZiSHbJwa4h50whVuxZ7cZzVrcZSIvNHIxZRM8ZVFBqklvKuHz0G3VvdSwwG55XBedA+Aqm1cwVKuhYRbAiyCD3N//mc+zXZ4LzzziuA3Rg7c8P9mHnEcRzP/cHkrVbmM4SnjW4IkvN9ES+oN9LefXubgVsrqGPnNF2fVWvcDfN3zszA4l54P+GEE545++yz7/ngBz/42csvv3yqm9hhRhPG/PHVk0u/du3aS7dt23YKfvtXX331Y5bER7M/VWzQaK76Xu/QIzVNMf+emX+737f6nkbvBMptW7h58+ZCw4VpyMxtkxixZ0oGckB3ruiuYe343nEK4WwbRhhozJWvur+8kCsvHMvvX/++AiDPxc/JoDKMG79+1JLZy/4N44Txo/Ur6Dj3xo0bC+2f++TaMHgsATOB3vzmNxfvWjlPPfVUIWTIHLJvAPELgsgGy53HmJUWYwCR8hTT/HmKDW1MerDbmRAac+bMeQZL4KabbvqDhQsXTjWSOUzooDB/kC3LZiRvXbVq1bU7d+6cA7Pfvn375fmxcbNF/BI1sqosiFyje6PQWJn3eGT7tPKjK7ytICVzCnx5gr8wbJgfPnF+j+YIk4Op2O9Wd4navH/zfUwZzf3cuXDPmRff43/Xb+15YZww2Nh0RiGU/16QuqrCMz7n/GjmWEBRgJlSioYOjv9pp53W7CBGLMAMKNNX9fFzD54zlYWGBKERrAgDzmeAHKZvBlVxz5EAACAASURBVJU4QyKG8srHa2YRgolx2AmuHekqi/dmuqgZVmUq66qlS5fevGzZsq+cffbZU8Bxk5zGhflTRFVCGC9Au3/llVfQ7D+FaRpT+3IzPVVoHimkpaWg9b/RGH0VTQTzb+cGAgcfOOR4DEwUZgTTsTOW52EdYXJoqzAZNGOYly4Qq32j1h9z6GUyumDiXpJiM5t8vKnsyWtPXeMHtbKfrimdMsQqRcMMoVzoRIpj1J3DvRrPkMkyN/wfpo67h7oIhSXzYXCbYxgz48EK4HMsKNxFMHjGj9XAd2YbcS2YMPfD/GoFcA7miOPNrIoZbvFZq5o/zmmRG+trirSptwpSUUQZy/z582+7/LLL/3IKM2hyU8/Mf926df1o8fjqed+wYcOFaPYAngkrq4akBo8WCNF5Kg+wtQNGixuz1gJvvRMdSW6fQ8n8cwA01wKNVtgA5hqXD6mfaKQcx3ujRO9kb+CukEmYjWIap1WnjZD3HvvxpqyFYgpCopU1qGYt09MnL/M3OK2PPMYEIsOPgdRIuHEsIHMeEDi0tUTQnXXWWcUcKBgN4Ori4femDjOWt7zlLU1YDIvTmCvTMWtl0xyFLu4irmucRTeVQiaVmURc03RS57kqtbTKLWQdgAWO0TKLcRSzulD6TjrppK3nnXfeT2kkQ5rolCUw+agr5n/vvfcuxFcPbj3uHDJw2JjC9qawafK8+biZRpNtUPXA9UKTkfm307R6zcGfSM0fInc9Ehk+uGbQZHXnRGaBxqp27ufGavgODdl9Iu6MTLoR6jVi0ZVUpZG3Yl4RusFrwQwt1JL5x85okfHrdso1Zds1Oj5dIZ6L8+LTx+WF5s796rJhznbt3FWArOm/P/aYY9PQ8IiFwrjJ/jGIy/zqNuKctpnEqhAiQ/eTMQIETyTmnPGbjQTMRKv19nmNKaauX5wHA8qMRdhuoay573e/+91fXLJkydemMIMmF1Uyf6pm/+mf/unTVM6CgbNz58437dmz50LbyNWzRiWx6tWAmrnaeXbFaLT3sdBkYv7jnaZZ9VnVMXkNhME/se79Xg20yMCp9RXVz3wvaBsPMy+akFPBa9BP90yVC68T6SbB/aGGHpmJjBotl2shaIR2iD2B4/3HIiz95wqVfH6EWeZ77yWVWUzu8bi/dcHAODk+b76jhp6Cfz0XUjBuBAFaP++pFJQwcQRCPn4B4XhnHRAg3As+fcbJ/WFR6cdnjlgns3+4R8asYOI6umSNo4ixhHCJwjtlqdUxFteNK1a30YknnvjM5Zdf/heghy5atGjsLcymaMz0Oub/9a9//d+sWbNm6ZYtW/45WgGahA8Zm4PNKVYJG4LvBciaPm164dpJZSCsURbFRJpi/mPX/Nsdn/9dtBYs3W7TjxrRaou1qTfStOnTRvzMA9OKbB0Dr2rlpikStH388ceLzJToA08ls4vB0jwzKx9Xfr8yUxghe8nsFpkh7/qqfRdmAaYGE87vt1HCP5iBE3GAqiwbrsN3MFJdGwZCYXZm7QBdoeVh5THjbzf/uHEi83f+DCBzTu4bIaDLhzFYE9AIRWdq1RbJ8XsLyjiGsXkvCj0b1XBOXhbamU5rkZ3V1C9teSlt37G9aa25HyLUtoy/m8JKzoNrynk+88wzH7jyyitv+fSnP/0/W/5oiiaEmswf186PfvSj/7BmzRowcc5Sy0hl2TdaBv5cHpBaAIiKGRpqccLXRpNRmmL+E8v8CdLK9BECw/WR9VCbZH3MMGHdYCYwAqt2f/GLXzQZldDNuj9yX3dqs77tYgcRjI1xwbDZe2aRoHRwXzAShYEuhipM/Mj8Y4Wx8YRIaLyMX9gGg5hmI4lQKvNP5W/4PjZ0z2MOvjNeW1sa94huJhiiMRHWg4wg4gXEUliPJ554osm8Y08J7xFh6Tn5PmYQMaecX/8+xyBkmA8tHVtA6sLVLcXnxG6MJShQvDcrrDs9X6yBRX3+ZubMmdsWLFhw10UXXfTdT37yk19rv8On6GBRk/n/wR/8wZ+tWLHi05qtmtm21EPDQutn48fUPvO0bWQtYiO/SxVFNEcq8291XzF9VZoo5p/DHkRGy9oKtQzDJ1sEpgCzQdMHmZMHXzwe9oMmPC8zSqoaorRihKY/xjmrhcYmBlyxBNyH+uhxa+iGUPsXEyeS2SepdDnotvF+q+bLdE33sZk2NvKJbp8zzzyzCNpynHMRz5XHBEz/jAxULH3fFWz67bmucYJLL720YOCmevJSqVLb5z6ZH7R8nkehr2X8rB1CUBcXc8ZzzDW1TBQWumph2FwT1FtSdi0w02qImVGd3D95xzTnedasWVvPOOOMBygSe9/73ndX25NM0bhTwfx//vOfX/rNb37zf+zevXuxF2ADYXayqSwowQ1E6l7sv2rjbjY5D5C45fzfhzDSkcL8uy0u6xScHc88/Ha/1y1TuOz6B9LsObMLhgCToWKUdeUFY2MNbUCCUJD5mC5olkeEYvC6jdA8PBZLRddHHJ/n03J0T6mFG2diP/G5wGvsNxQSU0ur5jymM/qKkMa6Jc33T6WvP8YUcuUFWAYFiRZJvo7xb7Nv8rXRxcZ5uAezoLQqDE4zH2QMXXDBBc0ArzDaKGNo/lZKa1FwPgLF4g3xPZacriphNbRsnGP7EqRScFq8piXEPtHNVtXfooo4ziAzvzWQnUqrqLRSNp9zzjl3LVu27Evvf//7/7G3XT9Fo6WC+d96663X/+mf/unfk2mA7zeFykgWzM5DbrgY1E2lacdmYpHZeBbV6F+MdKRp/t1q/K0Y+sFm/gUTGxou3D3CK8DwWSse+EceeaQQ6q4rDyuuAQQDf8M0TIs0n7vVuFOZ0RMDiVqEuixig/RGAFKTISssItwDTBbmKCzEypUrKxuuV8157jP3czVXmC2ujjPOOKOJtW86pIIhEsdxPiyjaGVIjDMn71/XUywm01/vfHLNyPwdJ+uGK+jCCy8slCuOwQ2LsGadtFD8jWimuvG4js8pzySfaQkhFIxluDe0fpw/+AAxHxFTe6m78V6ErzaewnXYV9ZeIASWLFlyyw033PCfFyxYMJUaepCpYP4/+MEPrv/85z//91zqxBNOTAPTRoJm+gaLPOy9+9Lg0GAzWJVK5i9cbmyGomlXpTkdrsx/tAw5v367h6ZVsLTdWDoJDzVfc+x5+HkYn1zzZFrxyIqCsUafPcfhdxaX3qKi6DISu7+K+aEkxKBgZLjCKUeCIUVm77nZV8adBDyDSXPe73//+wXz5T5yzb/KyojMPy8m4zsYHto1DBI/t/5xfdSRYL5o3mQ8xXmL9x8JRh3HUQu4P/Wyb4EJFMYFxOmJxWMKJF1PZ599djrnnHOKVE5iM4xJK4Lf66LhN6w5LwWzmU9xPfhOmGzuQbgIGDUCMMZFemH88gaLzSJmk/fjPJsuO2vWrO1XX331l4CQPu+886Yygw4SFak427dvP9kc5Y0vbEzzTplXWACaygVU70B/OubYYw5g/vpU/SxqhjFL4kimyV5E1iiLcmCiaPRo+b/85S8L334K6Z0yBv3YPrDcH0zJICIMAu3V4GvOHPOUwL6y97GMLWZ/RRdI9KnjyqAXLgz/7/7u7wrt3gCwKYy4fzpBE0SNOiJhRuKaaNDes/er0pMrK4wLxshcMpY82yhnjDDleP8yZBUks5v8bf68GKRmHJyDe6B5DmOmcvqqq64qAsTMDwIJN5PBYASBa8U4uT7HMZ/Ua9h435gDQgTLR2YvaJ3JAaT/9tpUX+A+90EVCabH97yGhoaOveOOO3738ccfv4Z2kh/96Ee/1dNFp6grKjT/v/6rv/7Uf/vCf/u6+dUshHnFAnPFDduOxluzP1TMtZX23U1e/cGiVjn8faGnrZqvvv23nPqWgsGgzcH0aStobnzsSiVZ8QrzQyuHyZkRZN9dfcwRcydqcLE5ixYh11KrjU1SOCdaKdj2jPOxxx5L559/frHvYG78jYbLi2PvuuuuwveMO0rXTL4euity908VcS9o5zBCXEDcl1qwAsFet2j9HPfOd74zfec73ynSX61WTmX8IlYT61axgjlazM4HLwO3CrYcxqJdggBjJR5w0UUXFdclWI8Q4Dy2qtTqcL0V9lhSZhsxdv7P/fG58QDhqY2/zDh6RpE95jGuOWNH0CEYjVXEup+4XyO1ipVIRx111NZTTjnliWXvWfaVKbiI8aXiyRkcGpwemQYLZj6yGkfEBJmiyUMFFMDefQXmDuukFiXeDi4NqnDx7aPt831EaazCWtI1gRao7954gBq0wiFmwigE/KxRQjo3yoItGIRFSykEV6+77rpivF//+tebvXBNKnj7299ejAehBVy07hbdYzlzyS2LTsIZhoYWzfkuu+yy5jixQGw0j7BBIMEYYbT4vvmNzwaCKJX+fl1LjAOhwnNkENv4hwJKzB3nu5vnK78fxotQZ0yXX355ERdgXHZXE4Ezuo1k9nZNU4HQZWRVdKmFF+vMC4Fo3Y9jEePfjCNhPsxuyvdXJ6q4v7nPPPPM5d/57nfmrXlyzeVUCi9btuy+KRY0dio0/5tvvvn/uPnmm//EoFEqmYBBGhZeLO9OdKRq/qMNxubHd0rt7BQTyH9j2iYmORoZDBumY/EPfnu0ZzRCf9eO+edjkcE1SkgAIRlEj8w1/5gBJJMwfRCmaraJKY7XXnttuummm9IXvvCFJugbGqftGNEmYUgwM/5Gm62VbRxTBbCbHcBksp32D+dhzt71rnelD37wgwVTtzCJc5nOyudk+nDOb33rWwVT1+KKxU4GuXl2bIkYU0BzuAqDtWrkVSic7ShmMdlG8x3veEezEtteyHk8ybU1BqJbBgZucFhkUdNtBXSLrl+RQy0YYxymhTOvpnzH/ZrvsXbkeLVGZ8yYsfniiy/+Hj2Fr7766ikhMAbq/8M//MN03333vWfFihXX5hWQaipaBDFjohWNh2XQCUXxYFNVeuahGkse0M3nF6bKgyfTgzniqhEu+Y477igEgDUYujH8uxvmYsk/2jC+Yn3jAnzFV9wfjBUGIKiZ+Pti0Lz55DenpVct/fX58+f/2vr168947rnnFsHsly9fXgR0V61aVWjdurMIRBPotLjKloWx4DBlSLH5WtazHhAyavrroiXD1LEy7r777uJeYV4w0Ysvvrg4lnGRT29QVW06MlZ7+3KvZrLEQjbdIkJnOK7RQmSYMWQ6J4qAdQK6xyIURxTQptDKzLk3hDC/12IRVwgBqJuoUYLusddcXxvYS1oFkTq5eXLyHNY/7N69+5iVK1cu3rRpE8CSx0yfPn3dySefvLPtSaaokgrm//Of//zDq1evvsy0zLz6MuYR69M1EyjfrGNh/nmBzETTWJl+7mOuYtajPReVulXn0t0CM+Id3zjaG9o+1bn6YM0pl0m61jELxQfMZvjmecNwqW41NdLMFAu/dPOIHZOCZmlOt+4AGAuBXM4HpPGmTZv2fOITn/jmAw88cPktt9xyGQzGfHehDOyHy33BoLmnqJjkrzhPMiQLi1KpfTp+BBpjo9iJFNKf/exnhdZPEBVGzz0zXuaTOgiuz2dLly5tBsmZLxm9lpDxjnpoVCSDj4pUzPKRUeoGSlnQuooMEGulIxA3PLehGA+MmViKWUW6Ax2Pe0d4llrZA9jOa9wnVljT3z9jRhGfMWjMb3QfGcsxG4jvsRDFQ7LATVeSLq5OwqCR9fZAYeG6L7300rzHH3/8uscff/w9CIE5c+Y8dPzxx/cuOd/AVDD/O+6444YnnnjikiqtoxaaR5sL3B9aKvbituhEVQz3UMQYqqyOaC63omKuhuspNVprOL26gcDgSX5UcV7dc7zw96Kxoanef//9hY9cRpRK4ZqvXX6vZovAAMlsIciJtocGaVqkTM5c8EhVbhZdM7hYcJ0wTn6Pn3rdunWnP/LIIxctW7bsf+3cufNf497hcxmL4GlCjBgYlYGncj/6yq/vZ/HzaCVonZAFJcQyDEz3j20TcaVwTQDtYGowO97twJVKKwxG5zxbNewzVLV3RP801dXiufjKBbQvM2S0uGL1rCmbWC8Gl20PaQA+ZkI5P2Z7mcmFELT6Vx7AeRDAuHbM4HE/GCuIwWx7N6RQbOgYukmFjtaKyQpeZ+vWrfPWrl173cqVK6/cuXPnnvPOO2/l604wRZVUMP+f/vSnH3n66affGfE74uaUGgGlsFiMeqNZFNZu8bqlKi17sgWYWzH1prXU3zfyyh7kbs/3Omq0P958bh5SGb8BQB4wtFY18ojO2Mqy4TcwQJiG6YM2C0EL93oGDfNsm/xhtuIULZ82hjBMHuDVq1eDJwWThXMu3LBhw7+++uqri4Aq10fYRG1ZXBzbQGpJtNuvfVnnr1irEF0XwjJr4ZrbrqVDYRfMDkHIdQmem8FjcSNjxt1ig/W4L3TzxPl3nArPvtAIRt+/giMyv3xPYQ0pJGGIuHpMzkCo8Tl7AIuL4xhfPGd0scbaBue46Jm8fUdRJGhrSqv4sSy0Fk1T5RriHvFi7/DqD039vQ8to26eB8erQLGHAXuLc23evPmM5cuXX//QQw9dMTQ0tHXBggVr2z9YU1Qw/3/4h3/4xPr16xexWD7MOXOIgRcDVSlgtHdavG7oUDH/Xlw7ncxUGEHUfHLI4U7ne/3gKv4OL/39IkLCmEiRrJctFSlesn9ufLCbp8vuHUaBb52HCobH3wb8IuMyHTj36VZp/rpRYPz2mx3cN5hOOvmkYoxo02iTZCXBSHAJwXBhqPxOxM1UatexWCm2V2wV3G2EnsFR+BlEhGGV/uTi/6yhLgrTXNXQEU6PPvpoE7ZAF5p59WqnMEID4pHR9mfNaLi+GTYw8oiVlLsNq7R/riHzJdBqQyXWht9j0TCPnNuG7xxjDUNu/QlEZwEfLxIJuFcEnXEb4T6wwpx7cZni/rfGhOtzTOwwVmUNdXoeFFauv/Gr0pqb9txzz5394IMP/m/r1q07bWBgYP1pp532YtsTvoGpYP4/+clPPvbkk08u9CGPGy2m8MWMDoG11MQ0PyNyYjQru/GBV5m4B5NauXZSha+11XgcM/PCw8GDJhwyG97sGF8wO33lajEpumB08zQqGH/lpKWCQXJOgqUEeIUs4HOyfPT3qrnxUmvX2uP3avwyPKEAoptEn61aqYFmH2T9w2pnCI+FCxcW50eLxK1Drj7+dMYrhpQBSf5vUNjxopkj3Kz4FXQwum6cP33uMcDK8Vaiiz/lZ1auur7i0DB3CC3GjxWiKwXBhBaNS42AOsF0wQy5d1xljD+6f1IQitFSidp8vUTlbJQFWuwdGLiIq8ZrbJBCrELrjnuG8TN2xgCDFd1TjH7uo8hgmj6t2eCl6pmMLsJUZobp6onNb4TeEMFXq0VLh3GYLs7+YxxRIRou+wiPxW3scxefoZKHTduwYcPiO++881e3bNkys9FobHrrW9+6pesTv0GodQ/FLslcYR4ON4JS3TS4yea6yWmsQeait+1wvdngI8IV5KluObyBmhYPBNrUKy+/ktoR+fyRZs2Y1dRA0aA1tVkHmJb+ccnAPS4i8Xr4DX54GJ7gWzCLVDKBWshkEfjLgD+ujl1Du5pMFOZsYxD2BHn63ncRjNywoXlN7hthgKBi76DtM1YsF/35VhTHHHOVDY6N7qHhigbsQiWrUZu+aa+AVEIyFF20yjEyNt0v/I27xyImGD7Mn3niHKwvTBjBWVTB9o1k2nCssY6oDOVuVIWYjDMW3TF25sYG+Fyba3Be7hsBIcgd826wPpXPJefHikNYmE6qy0b4hk7Ppq5eLS9+zzyp6MUMwUbZhN69oYvIOiH3Of9HIORQGONB2bM882c/+9nvrVq16trly5d/9zd/8zc/N+4XPIypkvlX5Ru3Iv2kahHmBacWqYlHGhWaW39f09yPJinvMIFIuZsM7VPo4NFAYYjZAhNAG2U9dFtw7ZiKKNheKjF1FDz4bmEIMDiYiBpo9DW7L2SiFinxPecyM0TYiNh0hN9wLOMzdZNrwJRsSah2j3WAEOJzA7xo13b1Upu3C1mn1GMbmjMvjCFClvCuRdAI2DIKHpgtzBehivsMQYYbBUsG4WjLSoSAvQ24V74jM8iMlsgcdbWk0PLUbCwLxKJvXLBEroVQNfjN/wW9s+tYAcNSpouakkm2D/NrwJY1Yd61CDrVecTGLcy5QH8IOwHiInwF82V6qMKzVlYwC+6XgkUxmtTWXoh5oQXtmjVrLr333nv/xdVXX/2VqUYyI/Q65p9rwbkQqCriMk/YJhswEB4KcUzGg0arnXfKphkriQXjw9EXuh7xisBjzp+MQqhdU/5GUyCnewOmxAMdUy5jv9tYhWvglBdMFmYF4xZ7XiTIWHFaK+Ei6PKkJif2i/j+4tGL7Op8sx9g5Kl0K0RfOudCkyYgvPKxlWnV46vSwrcvbAaYGdudd95Z+NlFifX3MW1RazNHkdWlow8/5rorwGxgAkPlvoFKwK3C2lishDWiT555hLlyX7prZOCcXxj0WgVIX7SkzNKqhZ4GtdBNLcZWGCtMG4sjFpdhLSGk8paLAuxxf8ytApjrGaTmGIVMKyWtL6C48rJQL5UIoOINMXcqgrp0hMiQF3AdFQI+J6Mq7yE8HpRnr3E9rv/SSy+d/zd/8zf/5f777//wdddd98Wbbrrp1nG/+GFEBfPfunXrW304DFBa/JJTp+i8pqQFJNEKaBeUy2m8mHS783RzjfwBLjSv3XsKhFO+44G0+UgV6FVu2vrgGAeB8YgiWbgFMrcObpWqv2t9tQMYhQ+lmj4MIXZY43vdEmjYMGOuzwMMg0OzNSgMs4N55XAD3HMKFgDri8uDa8n00NpTqRCY+sgxHMs1CEjzOccKFQ5DQFN+bOVjRczhnHPPKX5PdlCMV6i96/8WyiJSbDKiNh//trAtBnw9n4FbPsN3jxBg3h588MFijij8AgKCMVtvwG9xrZiNFPeKaZAK4+gGNUaW0oEZY1EB4P82T+J6ArFFeAWfW/F3rFkwGM+8ssYI2Cg0Bcbj/FXPgsxezb4ReiorBIzH8G7Wjc3m9ceb3aVAiPuU+7eSO5WCeqwxgJwUTjbIx5P49NNPL/va17628I477vjlDTfc8Nk3KlxEwZnr9Xp/PevIL/W6GGp0UoRwHUs2z2TR/AtNs7E//dDAmsEsBYDaVO7myceEa8bg+dDg61EnW5EPmJq3+f4G/CK+j7DBuphg1mhdaNVcm3ceSlvumZXDveXCWoRP8ISee34EP4Y1xm0k9IJFQjADNFUYeir3gnEF9ghaK+mduBBA74ThAk+gVko8AC1VWAHuD6EhA4xWpXPaytJ03XWdcA+MtwoZFKb+0EMPFfPCWN797ncXYyGYDvNnzRgf1gH3iAJgbEe3WIxrpNDNKg9S5ow/F2aMlbXRn891GJ+gabZy5F7Mv3edvJaFVzEwHgs022n+EZnXOIsWBddHsJix5P3GjBwts77QJcz0T1NAGyXGfxUE/GioimfpDlOhGRwcPHnFihU3PPfcc+c//PDDf3HZZZf95WWXXbZqzBc/jKhg/sPDwwOazXHCRktRAFj6nS9qjNBXfT5ZyE2s71MGbWofzMTq2ph33miBzR/TDVMZmNu9a3fatXtX01pqR8QXzEk3d9+gYUS5NIBoQFDfLw/yihUrmlWdavGzZs5KL7/ycnF9hIMZOzlxLhj/ps2bCo0eBq4rRsZf7qlmMJbrqo1SGQvhRlHLRtDwezR989NtUA4zU1jY9rCKurXinF8tk9zV1ig7TuFmQuMnEM46U+T14Q9/OM2cMQJ+xnxCCACEJfPqvTN/arMptKusZcVe1kzUQjV9PufCL8ioo7sGQYDVwRrYXQxIDCCf+R0C2c9roauZ+2w0MaYYlGYeiPHYbzgiAHtszA5SUUll4oFptSYedEqLrqJu1j0G3KM1VhtpKj//+9///u/d/U93f/r9H3j/58EMWrhw4baeB3IY0gGa/3gGXxQAsfl3TCWNQcTDiYaGhw4oyEGrjYBeColWm1JBIsRv7I2ATz13+1SR19KcZRy2+BM0LZVaLsFJ3C2kKKLtw9RgyhbocHyxVrtH8sPRMm2kwu/zbCU0NIK2PLAwdLR219jiInvN8n8YIa4HzoeGzPFLliwpNPpGWUQFA+C7Won5I7yE2Ty1Ei6Av2Gwzr9pplKsRWkFIBbTj6vSLw12K3wMojOO3/7t3y7WB02brCXB6rgXx8TYKYzDl83cOS/GdLymGnGu8edp0hEeQ3BFhCnzOv/0+eltZ76teM4YH9AeulZkpAZl+wL0txajTDwmBeSk2ycFl2V/aLtpsZ2prXFuvSebwPtcGDPSoitScI+e0dxHMc4wnhQtHck+1dt3bJ93yy23fOH222//VzfeeONn3/Wud33rbW972xENF9H/q7/6q/0//OEP/+8dO3bMNg0rZiTkVFWU0eqliWnRS2Okc//rCsm6WeR212n36pVauaai9sK9mCdu/rMVjfxfCF0ByXRR6JJRG4r54MV8pWowu0b4p98Vwg8N04SRwwzQxKNfm+ssW7asOIa/cV3AJDg2lYwBX7LHi5/j+mimM0ZdW1wTzRgt3QBrX+g2haZumqF59FoACkp+w70DoAZmDpozLh+OVzvk/4zXoKD3reuhXiJLVlVRu168zD6LWnVkuDF7iHvkN8wJKJ8ITtsy3njjjcWxnO/LX/5yUafAOE0T5TiYLoKOCmvOSaDVdXc9rJMwXVUhnkoFIN/Luk3dR8ZaTK5AqPN3UTg3OFj8jTBCAKkQIFwRDKm0CFOpGHCMLqEqWIncVRSTGaLrjXOxx8z9r5UN9znWXtDWvfBuBpMw0QaEI5yH2FKdNPu47t0c28jqiLRUjJ28+OKLJ65YseLDjz/++LXbt28fOv/881f0zEQOE8Ld09+oN97aFzBgxpPUHMbSgwAAIABJREFUBhQATPRxxx5XVA2qfRxOKaHmZNuw3nFHk7oWmt7EYGMK/Vxlqr1aW2qSal4pZDRgfjcC+NrixYubDbjRxGHa0fSN2rPrkJOVomZ0CLjG/RaQBiWonHnzjKU/NG9BIPBQ4+bhergoYFC4UXBL3H777cV86EfHmuB3gNLxG4SNLrZ6iTAqU+RlQFcBmu9hG6rEjKBIYtczZsZvhhFuHc4FA6ffAPMEwN1//I//sWD8zAH3QlDY4LhN8M0wggnr5pBRRlDEFCCoa6HgK+61fH80QjFbrAlQAOCGIq6yaNGiwiXjfnVNZKqm9EY32mieQVNUtToNPGsFG1COlDPsZuB62vS0K+2qtNwOFsXU3zhX9BB44YUXzrn33nv/5Y033vif3/ve9941IQOaQBoYGho6ClM2mp6tyq7HEiz1obMcfM7sOUW1odSLFTCRlAumiGcTGWauVbSaK03eXtvhRerv6y+yfXhw0fZhPjB+NRgLaNBcJTFr+gI+v52Zdu7a37Yvn381e+4VBs1vdc0QJ9i9d3cza8S87fgbGTfjATXTtESsAD7HMmHfYQEQi4BpMQ4ya0RwlHEJZaG/XpdBrCDP/cYGIF2rPBXUKljGA3PnOHsFIyyxqlIJUfHd7363WH+C0gSBbdZCHYDFTTIuun0Z3FTwGLRW+MpwrA8xI0bKLZoUssSYF8btGnEdqrm13ll7ETq5H88lPLeuIYP6jYpq326ed12XWHdmMJlhY0JETvEaCiTXhVRitX9jWu1orAkcCr+oFCi4tm/fPnfnzp3Xrl+//p3/8A//cCeN5ZcuXbp8TBecRDSAv99FHy2eeK9kDjIPvy3wIsUF7UYY9Hr8aKnInujrb8IDsHHU7KJLoZXGlsqHxeyebiosq+4Vxm9qokVR+KHF8Qc5E+20zGp4nRvPdorFOaZPS42djcr+tnG8ui6E6hXATKx4tEhrBXyg+NsgYAquBs7JmNEUaYWIJUCnLOaVYxg/Ak1QNdxDull0T2hZxPGJvxPnO89qye+Te2He0PA5NwJK95dZNdwTIHQci/uH8TIGBBljRAjw/5///OfFOXEZCZmh+8+MLAVidDfUWnTyikHaFIDqUuifLb6NOfbuKawy7gvhhCUjc2W+mGdcaQbqrVWoBxjpbkkrx7oRrRrrKQyCR4rnN9vKeEl0sY5Xunc7ikqYrkSFqcF4uonde++9H1q9evXSBx988H+9733v++KR0Fi+/zOf+czxP/vZz/5PGbKU+/1Siwyd0TAvN7obJhY5VWmfkXrVTKqu3+v38aFwUwriFfHsYyGVllQ9QPbWy45HtTJPmsyhRgcAn8LN0z+Q9g3uD9pFgDCLawyg8mBb6m/wVuYo4BvamHOvZm1BnllCvoxvoPWb1sh1BOoiM4cH2Fx5YXp9gBU+Ee8HJqWlYEYP2igVtDB7e+rCwCA0a5uSGHMxSOk8RzAxK04ZC+fg/zGHPyJscn2OYTwwcKGkuSaClbFxLbR9mClMgXu2JSbXvu+++0DGLYQWFoFafiOApvmZPn7HHK1A3kVO7Q+9lFUoCuE7c1YRnHcecE9xX6wPQWjmL3Y743dYNayXUNmMhYY5XN+gtMI9f+bbPX/uT9YTJs+5fD6qoBuiC7QRwOQUSFoBxoWqUIbHSq34Wh4HSqGKXUyooaGhmStWrFj60EMPfXTLli1Hz549++G5c+eO3oQ/xITbZ/qh8LtHbcNsCGkya/76SdU08zaCKXOR1UJqHL81qFgw38F9PcdZmsG2of1pneLR85AbTxDZ0T65FtTwN1YCbiKYnWOLgcd2FJFB/U3MWqkar2sMQ2cMuFN42eWLz9HuSVHE7YNmncp4A9DPsQlNrYQQ1o3VKTVWTH4rlvV5+5DrCjFjxQweAtBmJTE+GCef2xYRgUEmEAwXwUE7StxGCCkFKOerBfiGyNzMwVfTTGV8oh5A8vKsl2K8pdWnwLeYCwgM50emyd8IUvec88a8C/4XNf4U3Jzd8gMVNxU65kplIs8gqlKsYm2M9xqtufHI+++FVF5i5lGjhP4WQfXVV1+df+utt/7Xu+6669Of+tSn/vcFCxbceeaZZ/aeN3uIaWDfvn0zu2H+veD99EKRgZoOOhnTP50bm1nz4MWex/mxbnRL/1PJYJ1HNpm+xV7HUTDe4aEmmqRan/5V3Rb8rQbGQwbDJ5DKJgaaGOaJr90HLKbitqIYpI9N3dXuI/Vl/QOMBThv9RLxUY2Xv3GvUAUM09J37AOo20TfMhZJp/mLLiHnPQoSA+8yLcaCBk/gGSYJ08c1JY6PzJYaAPYtvnUK1RgL8xn73eramTawv1OWc+d8KKi5RzN2XIsYDE2hUMx0ToK7jIk5RJCj6av120NYaweh7zsuNNOvbdoSGXM7XpA/m/Y4NrhrEkNM5YznbUWxeljNvwoy/GCTrkX3qmuRp632j/QqPudzn/vcTy688MIfXnbZZX/xsY997C8ndLBjpCbzVzubaFLSC76lL73bQE++ofK/x9sSMG3RIGYVRUGpayiVggCmLBPTL9pu/DlFzQztn/OhRTMu/OkwBBiN7h2OEyIBjZ//o7Gi1VIghCsozxzJqZ41SJG5eR+O2TXL0y99N9OJMZsJw1rDNEXB9P7wvSsAYLwcZ9N4/nbucoUkLwKTgahx6zJSsxPeOoLF8R3BU5i/8BO6MkxYwMoiC0hcIF1Z+NdhsALEFYxioL+5B4wT6WYxBTQGrmOFbMwg8yVjxfow9qDWbWMariOCrM8X50OYYSUK1y0eU66hd6v9W3insOOaugoVbFKV8qirURck+1gtu6oI72CTac/ua631GGuqh86GpdV6/aOPPnrdww8/fOP73//+z7/nPe95YEIHPUrq//SnPz3v9ttv/9eaw/kC5fnR3fgFe6GYaRBTxPSJVrl0GgGbZTQxh7GQGSdi9Rv8FbCKl/nLvHR3mMOui8tAaStrKo4zCpJoVTTjAfv2NX3osU5DH729VFMpgMyfJ/cbVwVCg+OPmn5UkfkjGF0jNDzX3aPv3iI1i7n0S+fQBflLjd9iOOdORmnjFhEkuS+uLxSAGUCiSKbSGvHlnLqv7C0bGWosEjPmYfYQ1+ZljYYmvzns+NR9MXbOb7aO+E5xnWKMy/tT0dJlZQJA4WI6dsR6izEDax8cp4FwAsumqmKBEDMh3oPQ5J0x212L86EkYFVhYRC/cG5Spu1XCW4pZ8ZqwUI7sE66zmz24susMN1rVvnyuYKV7xnfRCmj+f6M7tq47/Nn0HkI0Bl9mzZtWvTggw/etHr16oX9/f3rTz/99E0H/QbGQGj+M3KmMlGUm5oRtoAXm1N44uYxg0PNNonRNI7niTTemr9+Wd/7QnPwWOHoQx7z8dXIGJNYKLlPs5Mlk/8N2BpMI5VFX5IBtEYJHscLQQCjIMdelxHXv/LKK9Odd9yZ9u4bSf2DSRi8i31W9Z3LdDWPoxbbLUVBbvGUjCMWxWGpwCC0DGOANzIHz2cRk3/bl0CKldG8c96obecMkGswLuELhCqxfsDrtYt7RNKloZBWe7SfAHMfC8PswsYxCicENsyecxSNg2bPKSqPI0R0MU99/QUjtZDwgQceaLqLrMmI4x1N3C8G0XWJpgohEc8bUW/z1FyFYgTom6xUC82MTHndsWPHyffff/+nX3zxxbN+8Ytf3Hf99df/10WLFk3KzKCBXbt2zYlM7FDQAa6M0AjGh93S/slAuQ9Z0zT6BWX4/q1LRfdAZPhVRTC9kOcTcI0HmsApzA0mgUsALQ9/P9YK2iLVuabVWeUL08HVYlaN2qHQAGbQRN9srcTKcfOP9WFVG2+E6lGxbXTX6FOGeYmNk9q018xTDa2qlflHyOdaQEmNsScbyViB28zmqTcOWGf96O1iY2Ya1UJ6py4Gu51pxfDZ3OPnFokBpmTibkLDt3pY60mB5DNs4Z0MlhgF1h5rLWKv2Dq9UD7PKjlaADHAzis/v7/3+alK9T6cKI8RlLEAnuslTzzxxJKVK1de+6EPfej3zz333NvPPffc16MIHkIa2Lt378xYYZibPhNFXttNlDJNRAFAZXA068fL/dQtRcaujzP6avVHx9Q5tRu1aPPsI97+aBmnsBm8sABg2ggU++IS2LXXgpW5tpGMgVu0fxgD2D9o25xXrdgCq1rZJ9ZsjhQ6euVQyrVQsTqW9YGZxowe/bA2B8k1R+c0d1vEd5lrKplXTDWWwbu+zJE+37iOqQTZa5UbH9czKi6ey/iH+e28mH8Duk2cpB3bi7/tGkbxGBaccafh0AC+AN0r6y2IVyBIOC/xC2Iq9vK1wKsVSF4vpHXZV3atMz4SeUicm2bCQunezQO6wlZEGInJQFVWkXspZQWfplKzbs8888yFX/7yl39w3nnn3fqFL3zhxklxMyUNzJgxY7tZDqnUvuL/u0n/Gy1VBZU0o1PIIXaTmK7YH/oI9+puGA1Fi6QeKpVxKURXSwptGhVgujJSqGbUJcM92G2rU+DXv3PrjIdOrBc0O8/PQ49vH6KgCoaOJk8WizgrzrE+WStB+S3fC6o2HLo5sQb2lVXbMcCs6ZtbPu2stlYuu1rIbU8h9qS2HzX+3E0SqRNyZXRBVO2jgdAkvC/0si4ylvoHmuNxH8YkgEZI5+TYqNFbkOV88pkVuwhtLQjPwb7CXUcqrEkSkfl7fT4nqMva8TfWHEF9G+EjRGBONlFpZTHlFN10ORm4Z4+Zxeb6u0di9kz0pRu7qZfN3Z3PQ+WFyKkvA+PLFc6YKZfK51PFxB7GZWX8JY899tjcyeQCgvlvUxOJQY3JQmoI5imnsvXhROf/SqYK6uMngyZSbvIbEE0lI/LBlonYQGc01ZWpnIs4PwYFzaJAIMQqU15ojlgHMAbyw9ESzaIxAEeeOwLAB3YodJlK5QMPM1FTzqtW0zi08fR6MREgn98Ih5BKS6Td31XCIAb0Oo23HnoFE28hk8f7zhMSUhDW5OdHjT8GmFPJPKrGxucoPFhw+Pn1sdsNC2tP3CbeCd5zTu4b9E/W0DRTlQ/WmH1TVaPSK2lB1srCRbOKVEpMfVV4x/XS1WUSQT2gg05UhW8nioioKmwprLHuQ/eEip7fMwes0a5du07+67/+6y8MDAzse+21104+44wzHliyZMnNF1544cZDdW8Dc+bM2RhL4CcjRa3b/8cuYeNJ7TZcLeQh69uMuO0p+PelGJg0HU9XScQyHy3VQjm8wjEGkosmMeXmNIgOoyAWQJUnDysuIlwCMA8zYPgMv7KC1swRNdG+sj9rLCgScqAewLI6FWF1IpiBloRAbpFypp2vXyeM+FYWVish4P02eygMDafh/uEms8oVqFgEJ3hcbHYT3Up8Fy3fVDb7ESPIbC4sNLJ9FBisIUJcKxKmbwU6x9iwXZC+aMXl1CrLpxUpaEzxFOXUjLAiu2t4f0wo8hn+Ni22EVBDTZOtjzPM/HhQnpiiMFfbF3VVtFKzAPl+3bp1nyqg0re9ilV+A43lL7jggh/QSOaCCy6YcCFQuH36+vp2DQ8Pz5yMxVWSTCUWFgkzPJEUA1xsXDNtpPyBsttSKhmRGl8qTUY2hqlvoymiixq5Dxgbj/9bYWogDuaAJYC1wuuqq64qzH+YA64Be+/WywYs3B8bWlhkrAU1fAUhgkTwNqs6GwFFcywUNcWo/UdqZQHKfP19PaDLRup1z8d7a6f9SzH2o0vV9NBYrKbbIycEMmuA3561QUjD/Nl31GmYBeSLYD4Mh/UEMRVLAOFA8F/ocfacazke2jVuRBQFO3rFbDifVdfugDTYeqOJ5+S9GxerSjs/FKRLqh4gaawbMSGFe8CaNu1bRcVnQbA93ZZHzzjaHhFLbrvttiUIgQsvvPDWpUuXfvWss86asErhGoP75Cc/uXLVqlULnfRYpFGlHUwEddLInGCLVYqHcrheBOEOuME2GkwMULYjNilUoJ9mPXVppmHKqfneMSBtZagPfgyemu2A9cBL10tsm9fpAZD5R8FoEx39ymp5rKl462xUXAK4dzjOpivRncO5bepu8xpz2b2W9QWaxRE2IVb+ymTzlMpu1ilSrvnHfPqUud2iJi7lwqMbd0/M/qllcA0FANjAtGLfOa/x+mr7CF8LmFJwadkNjnOd8uZTCtweBGoq40d24tICImZDxo/7XowfhDk4P1zz/vvvTz/60Y+KeJRBfpmPVmir+W+Xoln1vXUsKAtmREVSg1e7d58KBpjXL3CfsV1krwIgtwBb/T7i90SBHgPWxmHMNhO4TiWJe+e+e5nPnJwP5uDUU0+99T3vec//uuGGG37Y002Pkgrm/1u/9Vs/v++++5Y1QlFKBJY6FNStRsJDAxMzGyhf7IPN/HnoubaFUbpJIuaJucBWkuo2iEE/3hEAMX0xQkO0ojzLxqCj7iSDaNHMd/MqNMHSIRWUv7EECBRbcavGrbDQpI952hZF5amu0W9rALBVYHW8mX8rxtEKbbUd6SaJAkDm77tBfMenC0OGVrTrLAWxefEK1BgkFEKC4wGPk7mTXEBRHjn6cR7F7uc8xHBuvfXWov+whYhmz+m3zvGC8vnvlfnHorm+ADpobMJiM8cAc40BUwUccSf2HAJLjXk02T6527XqPqOC5jPgXnAdfH5imrNz6hqlNj2jW81XFcU4Wr1ef+ass866793vfvdf3HTTTbf2dPM9UsFZTjrppLX9/f3LLDoxy+dQBVW7IRc1opHC1Maa9imjr6Kc8adSs2EDyxgjKJWbSPgETVs3EmPFdDfnmk1Gpka3FCucoy83ImvGVLSIKmnnKl7APXBd3D9olcArMx4wYBBIPJgG8zhGhmcevpgx5pnXAyhXrOhVU80f6rGsWZWPPmYIjYfrIGqCUcjEmIbuvBwYDIvKoGB0B2gNMWf8H03eKmfmnLnH5QPDh9GwLjD+VMZx2Dcwfd4fevCh9KMf/6hg+uI6pXLNo8YfhXGnrJ6cWgmF/H7FbQr4NwdUfhdW08C0wlVWKzt+8Tvu1ebzWrOjcUPn6asxntYIqACugXUjWrNDoQ+B9TNCi0TYmap56mRttCKD/gWfGBya/+STT87ftm3bPNxBV1999ZcuvfTSJ3qeiC6oYP6zZ8/eGNOvNMNyrXOs2RsHg8y/ZpPZsq6Tq2o8swi4bixyiUy4LwBDuYls5mKmAMzBgit+L0BYo8QE6rSR4sPs2slkHJfkQ+VGt8hH0xytH9cEEANz3jSnEAIwE5g+wHG8GK/uDqs5fShcC/3hMv3oFkvlJo91AKNZm1aa4cHKEDFYqdZqVhPMo1nlSieqUssXskAfcOye1h+gqIfKRuycDyGM1cWxaPoXXnhhoTljlXENzoebDr8+5yEO8NWvfrUI9iIwFLAyOTOxotY/3gHUvMgpun2Gy7aTMUbiXndOdU3VAhppXhsQn4FOAqEdEJznZAwqK86TRZKsF/9nTQya+9sYt9HnH918WvS9kl6Dwu107DHFnG7ZsmXJ9u3bl2zYsOH8Bx544Gf0FL7kkkue6vnkbahw+/z5n//5v/rSl770VTejRSX6K2MF60Qz//xh7pQPTzDMlMdGQJKsOrYdo8gtABur59o/n9dLEDW0GF5WwWqJxM2SB8AEehNugXlH6xPTppPpm7t98vsyvdRAlel9tYBhnkqGrIZjNlJ/wII3fxvtjNgAgWPOZwwh4vOkkBJpvrnjikVUtbJCOEJgGBSLGE8HzHeA0KhSRvw8Pz5lGnw3e6Dqe/39zlEtlPgb0I9+ZOMA9nyuhQph3hGm0a105tvOLAQvloBpvJyL7B4EAvNMj+B77rmnEBZWiDunupP0m+fkfObzls9zKyab/y5XENu5jao04/z4sVpqeWypXoL56cZRQUrlntdyV9OPFd8pyzSsuv9Io1E88vuNVo/PQhlbuO3888+/7Zprrvnv49VYvmD+3//+92/44he/+AM1M325tYBFHyXyRAqAXpk/CwpDUcPOS/W73VzdMn9K7xtlhyu0NLIxRCWsGq/dk4TbFbMmhVxvGIIYL/0dmlhHzb6K+TdKcDMDuRFPPk9HTAEkTXA6xqp2a5MVXsNlowtbGNrZKyI8KkBiqmkELJNxxGMjmF/ueuzFh98qANyJ+edukfw9h712fnxoG2VutxaVKKHOu813FI7sFzJFeNfdoCuT3wPlwHlRCogBAMymCy4yeefSIHtfaMsa6VAx/1YxhljlXjWOquc7knyqLzSXN5ZmPUVkpuxrFTX3XCMAS+aWR6/KQa+U72mzxoo9MlxvtmtNpSI3f/787y5evPjbF1xwwa1jhYsomP/dd999/h/90R89Yo/W6B7QT+hrogVAr8zfhVYAmH4YA1JdXbdL5k/AV62eBxGNTcauJnHA8WW+vBk5A6GRjZDWVoXyNyl7Y2H+sUtUrJaOkNIxjdKiqr4MSVPXhkE7A8YEi7kXYaWxDLA0ZF79WY/dCNpWK6uJo0mtSyRnKlXMoxYa5bebg5Shx7Zj/s5nq0CnjLURoDu0MJkTg6xaWgoGr8PcYZ2ixbNXuE/WnDl7YeML6e0L314wp7JzVNHkhucSa9B5jfvZscZiKr+rYuCtsn2qArnt5j/ORy+/y90ieXZQHrDt9Px7zoiuGmuChJxAMWM/x+uprOTZSFXXaSUMxpv579u7r+Ap0dNiU3yhr9kbp59++rcQAh/5yEe+PdprN33+Rx111Obh4eGT1fbNAR4IXXq6WQjpUMYHzMHPawHGK3MpCgLTHFOpxaChscn0Y8psFRD1gPRppoc9DNwIZuiY8jcWEhbDwKzuCSspU0DWbJQFLAooXX7GKxg3zE18fc4DU2L8aK4RYIz59zfGIFgH/64FaA/3lwHDlEHqRoouyIPh36/KGkrZQx6zdRSOfaHJfbwfXQpo91hOzBMWk4V2zz77bPHOuYDfYJ0Q+Gj5+MNlaCk0049jjcqYWmv+/aGkTpp7VfZWO6rCcjK5wtRk9qEw6rpxDDpHOIxa2cWtL8B2VLmIx3uf5dZoJLDLGqHtpzEzeZjYTOvWrfvYCy+8cA5BYTKD3ve+993V6zhqXvyDH/zgK9u2bZvTaTFisUZq0f0palj5hjzYVOVDdDOwMaJPuPketHzMrAPuJXwn04/nTtkCykQtfIqasppGJFP5TAW0Ytjr6lbyAY8FYql8eGJQr1lVWRYN5QKvnlVKk8kTaThr0tIIcMe+O59WM6qtFdWLr77aNLsVHilo6sYIIrOKlo8+TseQMr+roF8x5TTuu3w92j3EMW6glhXw2YtjDMZJ+fex4C12JPM5wRLCOoLxc1+69BTsura8J/dJdMW10+ZjMLc/66Xg/MbfdOv2afXM9gfQxdSF5p9TE+6ixfWr1ihabTC+mEygVRoDtRbPRWYv5X9r6XodlbMYb+vGTdgNVXkdOp0v/u1a+ixSXQ6/mjt37j0LFy786UUXXfTdJUuWLO92PE3m//GPf/zJ9evXn9VNnrxSNpWLFjddHrCYaMo3nwVLRvR1ZbRK6eyG+bcLsOpaIp1txswZRcBUFM28AIt3mH2h/Q7Xi/PrTy9cM4NDabi+302ieyFesxYKvHxXw25UAJ3lzF9t3wyg6AYSRrkvNGCPjE2XlQ+gaaYeb7DN8ncDopFBaRG4r2KVsD7bmKceoXMbIYMo7s122vvrNK0ASaGyYkyG91w4mgHii/GLiWThUu4m9f6c3/jMeC/R5RXdYwZ988BjX8CbiUw+F7YpPMPRkpoo5p/zkyrrOyoZ0dNQL7F+dOtoxTInuHF0s0Vm7fy24j9VQJVxbt239RaowePB/HuxKvLvLYpTGVB55P8nnHDCPy5cuLDrzKDmSpxwwgnPPPXUU2e1yu2PZrp+XDdlChrQZCPdWNGMslFJ4T/tG99aBueJsv++vX3NcnfTwPCLFxWDe/cVx+gX75s+sll3bN9RCIHIQEghnDF7RrNhBi4VzmPmTmSKMb2zlZsrrlOeuxwLwmKQXNPaPWC2C3+b2iijM6MnlaX/CFw1/hTiD1wr9jOwFsL9ZUykEYLDBggVWp00/1a+23i/0apR4CnccsgFXXXGTYRHNqAbmVBcE89XC5DNfaH4qT9DF/U5M0Ae3a7xNznjr4XssEbAy+lmPtp93ovLtxfqC82QeEfYqixY+Qqzx3LSpTNQNnyJWWIy1qgodHNfo0nNPFTUKJMJoiWodc/9b9y4cdnzzz+/7Kmnnrr8ySef/DbuoHaN5Zvc4dhjj91alVpXRW4oJzwKgKhJpawN5KGgaLqpbTM2BUBOrSwCGXLqIK0NCMu8wFaJML5NyGfwYAb2Q1NHsCiY/dEzR4LVVHDKjM0GMoMmhUydodAQRG2pE+mqUAO3v6xCMoWHaiA0Wok+yVzL5eE1pdHsFl0a/SWWkX/rj42af2wnKoMdDj13G6EUv6qBjOfK1ypPAZUiJIUvmbpWVCRRWt1L/lYYBS2lGLCr0o4VDPmzEZUqi5/iw+6+jf7p+JwdjDjIeFK+L7m/CJ/QKBMFLHoriidpgD/j6OYeTMHibQTcpG54V35MPp5oadYqekRPNMU1jcrY7l27m14BE1zYG8zhhg0brn/ppZeuv/fee//5kiVLvtaqsXyT+b/5zW9+IvcZ5hS/MyXQhzNfjFjwdKgnL46B8YqzXVRnHpUKrHXdPRHKoRNVPWho8ym4f/pCYY2uE3Fz0Jg1NcXdgTlaRCWODguKjzhmXxE4tFn4i5tfTC+/8nLzupGZ9mXN5N1MeVm7ZMGRzM20QzdZZFj5u0I1blbPg1DRSohuQdYgateWzfudlN+H5LxEwLw4tvzhVkuS2iGqVgWcPd79n2uacc/3ZWmD0S0Rf2dmkNZVJBUqM9dScLVGqmVNmGoBfrtqn3Zy60jR2mh1jjzGF+fKGJd7yBRMYRRkXKZKi4Jp+9aBrFVrPevbvV8418vX61ax8j4H/pVZAAAgAElEQVQlLTkVL3lYLOjL52K05B6O52znZo/7xvExb1qbUejJu4XT4JitW7deSztJLIGlS5fenMcDmsz/uOOOe7GbitKqyXMhGwHuN5+4yUL6tHWZNMrCo1Zuqyr/XKdN0O6+zQYS5xsGHrMN1PpgujbAloHZ7FwhInY6VYED0waaWO2OQSHT10uKa/kAi1tDDMLsIDVzNTDPG03u2Mwklcw2asL10KJzOOCfSzY0kfLskDwAGxlElfaXQ0p7bPy76nrRwsnnJ/9/I1R1S/keiM+E7qV6AOMzpiPaZ8QNipZTLmQiA440Ec9eHiz3pRavhTQU+ibryjNZwP7IMK3+DA7EpIVoKUUXZQp1DWOh/oDFFfdmL775gzW/pgIb7KYCXCh1Bav7hXsgwYCxM6+4ymq12vy77777t1atWrVs+fLl33r/+9//+bPPPrt4SKPPf51mfxW1MikbIR00MoIUglKTSQg4FgWAufWxqvVgkmmSaDYgAlo562Y3p3c49LDlWCtoYxMQ/X3kjct4CSCrXdVDe86qOaiimAqXQjYKD6jMUOC4esAOknLmHCuaY8GNsYacuSrovL5/u69yIRZdT1WU4+PHFNFGBv6mbz2/TjvmUlX5XhVwlpnEtc3nOpUPsi8ZfmSwuXafMg3cv/tCLUKVNtnNvXX6PjJgNWb3p/OoW1EtVQWGPcu+Ng4SLbVoVUWGHLXmaFmPF0VrrJ7BUI+VqqzWbsh77C9xhpi7vPDWhA3hY2zelErEg9IdtPD2f7z9Pz333HPn/9qv/dpn3v72t297nebPj3oZoEBwPmRqMjEbaLJQ7oaSkcV6gLE2H+lEQmWTD26Da6GcjQkoHCJcAt/B2M1L5jvNZN0rasEcg3DQvaU2nwtnKTKNKoHh/zXTfTj1w+f7IZJjipZCIxTi5G6ZaVlD9vw9txTyoqU8AFjFYOP/27mxUmCkraiVW0jKlanch5/HFGJD82gt5C7VKh9/r0rWWJma7kMtztz1lko3IooDbkqZfcxOM7XS+7ThzHAAW4vCI2r+vVi03ZLX8ZnJLdmJJl2l5vrDP4T4Zm8xt647e094cI+zc2Dhoh8eSqtXr/7IbbfdtmpgYOBzkflvhqHoZjB/OzdlcwbqwxoDg1I9AJ5NtHmab4p2D4luK0vx9bsXwb8y3TK1uP9WlN9nznDMg8dM4wEhsIWZxhq4+RkXQiK6YnATmbHE3BNgZYF5MS5cSaSX1srqWTB4OEZfuy6HvrKRe456GBu7D4WepTL94dDL1r/jvSkUtDzU9qOfP77YZ42KHskxABvnO9fkc7dNVSpfpHaWkPdftWYpc/NIubITs3JqZRFRZNZ585+Y4plaPA/53qm6n1aWeTyu6pihEkJc16f7IY4jrkFEhY0tDE3TFWIdjVMlJpLC2HUzQUQ0Ut5Nb63K2tm/BuV5po2MmZz3whKdPq2ZwVc8t43eG/akIAQcS8RsyuemiroVSu14iUrS4L7B4l74mxgXPEMUYP7Wa6FS1pf1QijmsrYf7Xft2rW/v3379pubT86sWbO2HnPMMatefPHFhdFkHA3FB9IHe7KlguZjaZRY3o1QmEYg2OYwCoDxJlMbFTZqO/pKDfyKVioTFye+XvbuBfnRqmKO8cUG4TsDzMLm6leNGQRDoZ2ePlkfbJm5fnuZQF605jqbDBCFWa5J5W6MeujTHNelE1OLx+Y+/arj2zH/qLnmbqFUIVzi31VCzj7I8btI49ksqdXzFYVt1fW9bxWgegUch0xeSyZ+D6PnJSpmjEt0Iov6dO/4DNhQqtM5sKQKATM9pV07dzUtkVRmcg0Pjc26qQW0XYVADAgfTDJuV7hxdu1pBntZA9uzxnRg11PEXYtLU8m/BvcMNt1EO3bsmNvk0gsWLNg1e/bszfV6faEPbqcHqYoaIfUqBdTJbtNIJ5KqFs+NY/WgAHHpIAkA0/lk6gNlZyQ0RDa1wRvmEIYvdO9A2dg7lX49NomWBAzWln9pxKorfmOzGKyZvfv2I1D6sJqfb3FWdBmZX5xCS0X3R85QPS76qdXsGWs9tHi0PN/zxE5XkaKvN1LuZonMtKrIq4oi848xiKr00DxGkQJzTaHiPTLbXvZ9FIbdUq7VV82dn8WxxPuN6aMxKG+QX+wckV8RajBE+1jIvIWFiYVz7e6lHipq475SCHSCZDn9tNPTK9tG4NxnHTPS1D62TR3oH12bV+cyKkcqaRHEr9fz9cpPnQ9cvKl8lhEAtvfMz28NhD2EJfci68X/d+3a9aYDZnbWrFnb6iUEgb620fgFDycBkCq0RwtMdEnEZvH4zdIoH9JW184fPIHfIBg4kABiFennV8NhbHwvqibfWxvAOdkouH04H+8Emc2152+wZfjOa6v5Rlz4euhh6meev4oZVs1rVa57o6xLaGQQEjGAmCoCp5GqHoD8+vG9k+ZfdQ/xPtwHVe6X1AI+Ibew4u/zfTSW/VT123z8+f91u8QqbC29WFHLniqyc2bOKjLLTD3NmRrMtxZSEDvdT2T+9RIanWsxFq3bdgQTpLUlKdobX9hY1AS4h7Hcx5Oi+3OgbFjTyc04FooWhvtFwEqwopzv6PKJVoABeOqGwAzSLce8bt68ecEBs3PKKaesSil9yA1uXnk76rS4Pgw+0BYp9WdAS3FDjgflD1ur8+axgCic1EoVBFX4I50YTichkQf8+sruTubFw5yR1vZIVZDyPQ8GqV+2lxPfJAWkQxh8oyycATgMwTFQdt5iLbAwzjrrrGKeECLEGNS6ot81X6eqdYsumip/eT2Dks7n3WBz3HPtYjcpPJApExL5OLpxHTUqsmM6/aZX6jW7ppUW32qcVbUF/QHnXzeBca68aE2XH0qE0N7CoqQM3iFWfNdCd6xU8RxE/Ka4plwLv7VZYvQipneBsCeML5KKx8BAX+GSLSC1d+5Kb3nLm9Npp5+anlj9ZHph0wtB0I9qmV73/LoucX24dmxepOUSA/q9Atfl1Mw8GhxqFpoWe77WV9Qm6epNFZlvCMRCy9+9q6g/0mXFGHft2jXnAOY/e/bsF8svKoMto53EVgUp7bTGyUIxuwQBUAtpdGOJi0hVm6OZd9w/kHbv2d2ETDazyrROIB7OPvvs5mL3lx3YzL6A+cPcjRuksmUcv9OnigYRzcP4kOpjjBW/KasmrTLtu7UW4+9b0Wj3YCtNupV2nwLzbzfelAmXVpZsJybeadztzhOZrRWppoZGH7puOWEzZPKxgtiAb2xqIrNXuzd1s2rP65qMxZ61isrYmJ5oyqIVvGvWrCnGZzFbrATnPWJP6Y4crg8WeFjnnHtOmf/+fJp/xvz0rkveldY9vS6tWrWqsNL7+8YvplJFeknyOIDK7mi9JynUJBXWxlEjgdyh0Aui8PmH4LbXiXUW0YLTU1Aq3Qc61E499dRHWUz7zubVaKOlKACihqjJN5nJjBUpRtTHOicpaP5NDal/oNi0muL6wX2ohRyAadPmj7ViQRkjTF14Bh4aWv7JqAUfE4OHjCDMZYSKAsHUMV1L/IbWjlgPNiHJ8enz++nl/mtZgDRVpIqON7VyjYwXtcra6fYa3Wr+zplapkqBlmHMwvE9WnMKDNFZtRqjJTVYNlbXrVCF4IuGHl0hudCtl2BtsQG6+Pq8s29pD1ov0Xd1JVnljgsoMjHvoV4fYYK4oeBZp5xyctr2yiuFJXz83OOLFqSPPvroQd1LKUB16OoaCo2LGhVtSkdzfjKZxI6KrifrshSOKmhxrmpl0Z1el74SImT69Om7DmD+8+bNWzV37tyNW7dunZdCl5xIo/V11wLkw3DW5HuyUxQAatAxpWo0FLXIqCVFH58+U33xav4sOFjvMGTcQfxf4cDDrGtnsGzbyMumKaSKCm2NS4nvZAgWntXKbCIEBS+CtHSU4py4hXjgERZaB3Gzd0vRnz+cYayPdk4PJuVulnapmVWfj1bz7+T20Wrz4TZF2Gwxc8StAIXpRriIeoAg4Vg1b90WMOvcQosM3qSDuJ/jmMk0M4FBQWNf6LiXUlajYSW52UW1DBCvcPuU9S24N/BrzwU2u396s0p8wYIFac2acW17+zoS3ykWLVpkNVbQuKZ1OdBfxFlqZSafwjDGJ30Oh7O2rj7rsdUoQrZerx8YETn//PM3X3/99Z//zne+85+2bNlyrKYkkxlTDVOpsfL/XlPVlF5qK3nRTp46OFbqJHk75ePGbAMLU8x6MBsoD+61o9w9UuUWqxqXf8tkrfLl4VGTYo1496HnGJp7W1FpIZu/ZV05jqAy62hO9lDZq5fveGgVCDyICm6uc8455zStBiyCjRs3NtND+Swy9piC596x45mNX9jAuhlqATm0HsDO8phApL4K7JReqJvftbp2N0y73d9SFbZOLXTqyoHr8tRgi/3U7NGcoysx4sDEIiuYJz5kFRoZF75mcuc9Pq6PQINRWYGx4LfHsmyUdRMEYfHPk6/OHrF5uj59z5kKhRP3D8/c9NRI4NUfOBf1Osf1p6HhvlSr1wrGWK5M6sfHPjRiGc+eM7twC23ZsrW4Jvtft5F8J6LPtqJO30eBFXmbWYLtEhLy/RCz6aIFVw8w7FreOaBjlfu0Vnaai1DtoaH+Ua8Lh3/mM5/54tDQ0PTvf//7v79169aZRuD5MQ+0mgYLiFQZq3TLH6bxLtkeb4pWS2Rmo2E446HlKvHLjv/NtdItYJC3rwQQi7nCXHvRokXNqkCOpyk458NCOO200w4IBCJIdu7YmU6ZN+Iy4ncIDKGZ0bTQ9LQ0aEu47dVtxZj4jGOcNwSKvWhjkRHn4pyNAK8cNU5dWhAPQh4wP1yolXsnF/rCHDg/1nYMZq04ZfDMdWwwH7NporXi9dRYYc58BrOPRPpkLQCLqTwoCLAMWC9jS2+a86ZmSrTuhueef67ZpAjhACNm/whZgHsG9FvOawrjcOH6JM42kg3mOaeRnVS6QXhHCYkxGAQNr4IhNurFHoZXxSKtvgDhMN6eh0aJb6Y1ELOpXKt83fMsN4QW91sv4V4i8/e5jZbzaHlIZS7Uv/23//ZzJ5544tq/+su/+pONL2ycVwu9SsebDjfmn0IKljn69gbNXQPjTVXCwiwJtQUEtFkX0XVkfjKmtr8TtM3iK76rlciAfMfxvGMF4JdF8J+94OyCqXAdHnreETo8zPPnzy98xOZ6E7vAOuCcpalZnIcNDAPAP2vDdtNZY+DMYGbULIcqehYfjiSTz4VXXuRmkE/MJ4RqzJpSKLjeBvRiKmlk/gp5ocdFs23O8VGvT84oLL6h4aI5kZozMSfW++STTj7gPMaQeC5cS67J/hCjyntWeco9AZxrWv/0QhDt2Lmj0Oj7+kb2Ae6P/ukjwhDm/soruB+HC42fMbLnuDeVHzR/tXzGwrtejFiZfagoQrlHd47Pcw78F4X9WHlNy0RYGgPPnTt3wze/+c3/sXLlysUsKPADBuRYRP2J+WbphXJGrzkz2QVACjUBBqt0k+XHRBpP4RDNczeDmVp+Vi8x9dUWeWiNC+gzZcMJI4Hmbgobx6xdu7Y4JwIB7Q6mrTXAd+wBXAto8ggJmBcWwstbXy4eeCwPGAGWBNodjETGYVUy53/ooYcOAAPTX8mrL6A6iiHDazyrY8dKY4mFRcrdhjBTtT6ZfWyoH7GNYjKF59Etqa+8WfKfSk26dMkoXPOiOT5n7aw0RUgrZFjzrS9vbfautp8139lpS5eigov4lKnHx8w6pnDbmGVUuGUGR4KSJD7AzAt34O49acfOV0eSFnbsPAASGmFQFC2yJ8t0Rn9f9MzoG7Eq2bv2luBa7vEcRXasFK0kmXmcy5wfmKDhM2VgV3eOFdcR/iQmSIyF2lZBLFu27L5Zs2Z94hvf+MaXf/GLX1yrb9aUsirNq5M21imbQWnXykxt9bvR0lhjAil0oMr9s6kDxk87yn/fF0DRWs1BI3S88m/bEKrZmb3DA8DDCTOF+fIAwqxjABDmDkPn8xisGy47LvHgwNwxrfk/AlD3zpw3zSn8vvwe1wACAfOehxAlgnPAALgeY9KNqP8XZsKDcMEFFxQ+ZDMquP6DDz5YCCuZSqRelIa8ArhqTjtRzvTz6w+H5i7xPWrnIxkiI/gtO3buGmnpWR8x/adPO7qZiukzEYHyvGZeWdyfde+K2UGpbDqEhs1cHz2NvhF7UiNNKzDxcfUUnbNm0jnrmEJIc71f/OIXTaWB9afJvExJ3Ckb+etbNi6lRZBGEITTCXNPKBi3CpRgZcPDR6dNL2xqVqQrVFQ6+U0x9vI+sQwk5uio6TMOQOct/P8lxIYM2TRoxxObxDCGWtbwPfrUc0stCtvojlOp0oWpUqvQinGa2EdAiv5/17hV+n27Patry6pkLe0D4B1aEb0gZ82a9fGTTjrps7fddtu/YTHMd6+CfxizKRI0lFY52QfTtdIrqW1FKGK1sio3zUSO3QdeTUKTnU0Pg3bTao6LOOlDy0NClk8E2jI1j3e0d5g5DzaMm3gBTB6N8Mwzzyw2um0n169f37QERCjkd2xMu50ZBzAwzRhhJjaYMdhuC8sqS2uiqJUykvuQp4VG837nWsgsRhjI/gAfmnihufb3N904ETMp+ogjMFwtS6lOpU+fbBgLhGQmav621zxu9jFp7vFzC40dwT1n9uw0XHSM2tusELf40PEw/6wZzFUEWtZaYd4oIUnYGxyDxcfxMjzOiXLAemrJcY2i6nz3rma1sO4en6UiFXpouBCORcbT0TOKoDRWzMDAfubM/LjPjFPoTizSRMu+GvH4qGGbGhndp7GyN+bc17Muc30lYqvP2VDWkzjWTcSMv4n0eHRV/3zeeedtbTQav8f/77rrrk+/9NJL0/U1jnehlgIl+rmidjVa8/pgUhQAbhxT67oJKHWjeXZjgeQUM2TMC+ZBiG4AGCufgf7J9zygbFiO5/9DZUtD0+5g7jB8mLgphdwjgsPvrB+wWcfKx1YWDzOVxLFhEEIF7ZHzozWmUAzE+YSiMG3V2ADXhZnwebd1AeP9cLlmudsznj8qKu4PH/pYaDXCtEeOLTpYlcx/JEg/dMAzIHqmWEvRsqgSSE0rGm25v3YAXj4vigSLYqpjZhRMlHXYuWtn2vzii+mVl3E5pSYmVAQTw/135tvOLBixCoUV4rUyBZQ1IgmgqTnXG8W5zDTjXkwZViHYN5gKrB7X2PXVUikCtqWbaqAxUOyR/jIewFj27hk8gJmarmxXMcatAFOLbxc0zQOyw6HrlwH3eoAjie1GOZb7jOsdsxsPNQ/rGvxi0aJFWxctWvQbf/Inf7L5xz/+8e+QCtoJdGk0FE1ZfZCR8eUCYLIIA8cSKyhFxjxUpNbSCPjoBhSdZ7Q6s23YzLh69CUbvMVMhwp3zpw5ze95OFkbNji/4zgxYHTJ4OrBj0vJvg8b6yoULb+zfaUxJJnCe9/73tdlSjAmFQ4YScS/Hw/q1VLLhXsuXJz7aPZHt0ITdmGgVjAxLS8YWX0fbTGPO8BN5HoqRLQspFwZE3lVVwxC25RgW26OZBGNuGcQxoWrYGAkE+e4Y+ek008/vRgna/X000/vrx/ZtbOZ2mv2D4WF+PLBkuHcaLoR75/1i5lKduoyG835Q/gVzHZoeITZ9+/PSELDj53Omj7zIcb1+ob73Ke1CyY/DAe02kimrsYK6RhjyPfDvr37CqtKAWAevm6fRgZXrhtmMtQ39cy9/92/+3d/cPJJJ6/927/92//y9Lqn5/HwMTHcDDduBok+v5w6PUw5oze+oDS1UKyRlZrH1KeJpJxZOD79lBay6QqKx7eLmbS6j17mL/9dzJbRquoPrSNTaHvo/PJw4uZxXHYLM0cfRoJmxboXWlhgUjBwXAALFy4s/P/81oeWB4OyfuYIbZNjTWtEMLzrXe9qatXOH/nanE9kQ4RPq2yNVvPQaU/mVlhemJj7fC3yie6niJUTUwt141ikVGs2z2Ef7xcauDiO6juqtMyOK+bGvHG1eWslmtk7oatTvBfmFhecMR7RN8mhf+21bQUYGgwWywzhw3FvOv5N6U0IeZjr9BnNpkCcC9deKgOVwnUXEBED0wrhX+AF7diedmza0UwrjlozY3aOjVE5pyPJE6kUVtOLc5188inN9XE9zIDZsWNX8RoKXb74v1ahGWnRi5BbirVQ7+CzqpUT3TXR0osopwot05KrmlmNJ7Mfq+Uqb962bdu8UanuH//Ex78x65hZL33729/+7MqVKy90Ux8M0qSNmtNAaFo82fGBhMqYLNJ+rGQHIWEizDCy+tdMFE1eC8ciSB7/JwYAI0FguHc4l4BesZKaeeOauKbMKLFgZ7x9pPkaGSgzwJpbu7bNw5Xhg1/LMP1TiL80mcFACdPQ6CuYbuFT7tuv/Re/7as1kVht/tNXYuNYqemzYZl/DuOL1q7lxvfM4Uiw87Vi3NRsFO6ZcxakY48Z6SLHuhFIrRf4+HuK68GgGYtV/5zLscHQ+Y01CBHojHmJDDT60VPJjBhHzGJSY9ZaiTAVEcpAZi2MsYWKzgm/ZWzRL59T7uePRVVxzLHhfJxv4RyGs45xk8kt3YpG7be54YYbfvjWt751+Ze//OW/Xbly5eUyg6GygQcTr8YyVooCoJahR052UgOIMNE5g4mbshUzmyz3G11I9bL9pQ8Qe0BU0FqJKSKktJXb4rfYktIHOz74+GXJ8DFYLLPAp+x51IS7tfS6fSir5r8vNNjPLQ1TZM2SUkgotPJsn9Tcz/vB8fTxN7N1+lqPUcwlW34Kg+B85BXzjM/iIF5Y6vzu1FPnFY3/ySzSSidtk8K8QlDXhwtt/sQTT27WEsT1Y/05t9AMKTynXAfrjf1gIDgXhM6TkN4y/3poas+7Fa26f2Paa6pActVaVTC0+p2UM/8YiyFGQd+LyPxTMzvrQEiTfF8dDqnqtbEylaeeemr6Lbfc8tXbbrvtU6ZM8cDr5uhVM++UtpTC5KeKgNtES9xO85e7pWyy4MM0nKFlSjlT63adOs13VZFUPPdg1kA9P1bIWhm8QS5NeNPnIpR3XCszjvKx6PvmIcP1QIwARhZx4x944IGm20OG2woOpNX8ddofuVvHa6sR5hXt/aH/rJS7KfLUzuLvgZFCK5hs1PxzmjnjmKYS5b3iryeozrw++eSTB2ipuQXOuSnMswKXjB7iCYNDIxWyMPAis2bXSEN+rACrdossoOPmFGuGoMbnj7WG+4d5YQx+J/a+VqDCL7prVeD01Q+EVo6N0PzdrLIIH+McV6Va5n/H4L7rJ1MXnkY6wB8/XC/iBtFSEaYk30+tntvJTrpQr7rqqm+NmflLn/vc577wve9973f0+8ME9P9H6vTwdfo+D6C4mdQkxoqf3Sv1On9qkDzMaD39AR+9XgEB206zrWLeOfPP7z9n/vEcMRUwP7fv+fzG61XlzTcC3rvBzNhmLz+f6xmvpetIHBjXv69Nl6wqDS/ev/OiZdoqdbOqmUhVXn3u3unLehC7rk1lpVb2vO4/8O+jj5rZTEUk6Nqo19Lxbzo+zXvLvIJ542ZhPnjOKIyLlbSDoaG+ggchSsaN3eD2u2h2FIFKmCm4PlgU5PensvALQYRw2Lr1leJ4zm+HKOYM9xHnsggthT2Uz4eJD1p2faFxvS4UA8axCXxVHUdOuoXUwvOiN/P2HY/BZl3ICGAYvn57c+9jauhYaLJ5KBTMV1555XfHLV3nd3/3d//97NmzN/7d3/3dZ7dt2zadzZZH0seDalkBi9rFZPf9R1IDiSmL0kRtlirGHwNbvY4jXxcfGu4zarwpWAX6x+O14r4Ry90gnQ96ow0gXhx7Loxi8LUVKqvX9nPHHC2HqO3nDC/mg8d5iOdpx1BgRDHb5l2LLy189ub0w0Rxoz322GOF6wzGLDQzx5Ftg0CgkhYGTR69GVEC5zHGY48bweGJBVlk7xRgfzt2Bg19RmE16Osm24fro9wVaakhllErocMNgLs+urxqJbiYYHQpdKJyr5jBlLpsJuUcN7OksgBtPUBhaKXGHrjRbx/9/fleOhx8+L3SuOZq/sZv/Mbnp0+fvvvv/7+//382bd40zxLq8aZaVswS/XaT1QRz80STVD+5jSvSBJmQ7Rh/zox7OWeqsAxEU1Sji+6PqvxqU+Q8J4xJ7RtGFTNoWo216UvP3Gi1UH3tMbkPP2rO8T3ut1qGkhkDvK2Ep/PcKeiP6wEGDyPHvWJAvB4KlnC9iIFP9S3aPcdzL3xvFTcBXDKkOAfn4hiyrkbmt95s6UfGDwwfAgt/7glzC61fJokg4Xw2eOdeKb7TNx8FHteJ1pDFXmrmEWDNuFAjZPH1SvKX6H9XuER3Tw65IFaZ108VVrZreqTSuCfq//qv//r/nD9//gN/9md/9merVq1aeLAqMKO2oSlnhP9wIjdhFAAHk/JgeSPrJ9CJOj2g+XqjnZozDfPWJ5xaaHb1EicplVq4BUApPODttP4UGHTOwGOqYKzHiBQzj/JzSn1Zz2WZfn7MaAh3C3DEFMShxVPkZdUz4yYPn4po4ZNhtjBYQPLQ9IkHmJp51PSj0jvf+c4CXE/XGefAj71t28tF/YXpneT/Y2nA5IFXKID2du4oiqZECrVIydiCwfqYysp1ZK7WZ+hG0S0bBWR/2Y3MoHUjVMt34/bBWjDRxBhQ7GSlhm/ChdbHUNZOMo/bvBFo3Hz+Od15550X/s3f/M0fP/TQQ9fuz2euNRfc4Fn+EI9mARqhc5HU30Xz6ENB+XzHoGCtrPDMc8ZbzU+VBl91fr+vSneLZm5+rvyzVKHZ59frFDDuNUCej03E0JiVEfPs8wSAmLaXAmhcavHA57/PlYn8+NcXeY38Bv857/jriwArTJA+rED1Mv4SidJzFlXU/QNFdzbaEWIBzJw1Mw3uG4EtRoiuXLmy0Opj3noMKEehV1S99p+Ne84AACAASURBVNUKDR0YjiKbZ+vWJuMWrI375dpbt24p8vO3vbJtJOg5OFQGZac3UT1xRREbsKm7wjwy+1YJGK2EaS3Aj2jpxVoRmXUUJN6j9Q5+FxsLaWnGtNB8veIey4V1lUAfDU02n3+tbAB0ySWX/HD8S3RLWrp06fITTzzxn33lK1/5i+XLl1+PRsFmMfd7tGZeFUUfaz3gcqTQcWuyUgyy9pXQyqbttaNuGL/UivGPhiZqM+fxAR9C8V4MXMXsDx/61MLfn0rmHplkFTBcZEymaqYWislwCVAHUxxBupw7gm8/9/iRnPMyhdOmIwRT0ah3bN9R9Gde88SaQgPHJYMLh5dIlgQjBwZqzc5Xaq99AZrZe4tuxeb4GyPjF8iP6utT33Jqkd2DECFTaL/Pe7AQUqkMQhduyfpw2lciuvrMClcQq1ijReZ85rGOVkzUbJy+gK+vYpgHXN0L1nhwXayc6MM3NjGcwTUf6S6c0dBB0/wjkQkEJIR57iyYLppO2Sm9UKMCW0O/7GQRALnLRVJ7M2PBFMcqjakXxp9COlsVVQW42mn+nYL446X5V81RKpl3XNMIsNVufJ43Aq1VjalV7CVnZnF8kfnPnjOSDYO//egZRzddGQW4WhlULdIid45koVBNW8Ao0OrwTcc3LY39cY9aMz4UC40MonIu89BlirFBunn9XAvfPS4jnj/db4x5xPVnoLReNFABux8hAKqngoZzWy/gWkT8rfgs5/PVaj5N84yB2kab1NroTrJ+QYsghecjxrCiF6Dq+Wul+Y8HvSE1/0hkAh199NHbv/Od7/w+moMSerwnphZSCquCOJPNAtBXmUMIxIcgdztU+exHy/iraCzB3vE8p1RVJGigLjKHnNlUuRNjcFvK3YO9MgFjCARaeW3bdnShQeM2MWMGrb9wZ5TVuwgAGCvomUAvoPXr7oCJm9OPG2bawIiCZBOSWD1rfESIhP6y01dkfiBkEiDmc/z4pHWi0RMPAEaCeEEhJI6ZWQC7+ew0yu5ZnIdaANMxdRXBhDmn7rZcw+/2WVNZiwFhLbuisnvX7mYqplly0TJolUE2Wd2+k4kmhPmnEhNo7ty5z3zve9/7T2vXrn2rWQOdmFevlLtLYoVfmgQCoMrHHDVQ58TNHsv4ZTStzlkl8LqZ35h9k/+mVSZEasHUq2IO0SLLmbLrlQdyYzZOnDNz4Kuwdvpa4J3HsXTyQY+VInZMTPfEZ16v1UdSG6eVFbn9A02sn/0uE+5hpHJ51849acWK+5rzZve1mKpKqnCe/EDglywfx8I7v1U7FiLbazOHM2fMOgBGwWfmtVd3NPeDODaepy80h8nJzyPwW1UmFZZLXIPY1ERLJmr20UUa/65a126szEaWFfZGEhgTxvyhT37yk1877bTTHv7617/+1fvvv3/xROCxx0rTySIAcqrasDID87snasyjEcTdFKIJxZDfh5p91MrroRQ/d+P4sJpHrnCIxXLpED7EMPZIpFDO7JtZ+O+FZQBW4fT5p6f5p88fqfieOaOwFPDFA6QGs4N5P/XUU4WLxn2A754q21qJNRSRKmOqae5ONIaEC4hjeEcAGLCNjU2ichEDylK0TKvcKXkFbi6scwWjsJCGh5rZV9GlE915nr+dwJmiHvfqRM8XgeCZM2f+s2OPPfZ/3nvvvdcf7OtFTbOdADjUTCOn+ADHRvHtsH+qKmx7IX3L402xyjUnsz0aWQ+HHGU0zkWssO3VvB+v9W11nryuRSwccWyoe4Dxn33W2UU+fcH8yAJq1JswDzGXP4WSfH3sCr9W8Z8UBDKM3ibtTdC2HTsKJkv2j60NtSxzl2JVQLxV74AUhId/y/yFT8CVFNEv66HRkIFax14PLQtjjOZwglOYzDThzB9avHjxM0cfffSn5s6d+9kf/vCH/2Y05+glDStP74oCYDzSuQ4myZAFuEJjm2jyIRyNxqWmrvWSCybdckMt2oLma2MA1d9MNkZANk8kQNvQ3vH747KhMxr5+6SC0iyF9RROGUG3Z8++IqUTxm//Xe/XjJbo4ojz47FCh/BOkNc9FGscxFkyddbPbRfZawp2tNriOg7uGywEW87o1fBjkZVU7wDdMUXjQxOS7dOOvvjFL/4RmUDPPffcTH2RaLhsQh6aVG4GM2BiVkDEgWlF+f3pe1aDaqeVpklgCVRlu5ilIUPOmXOrNMeqta7K+4/aY4QorkJJjEU+Md88Qm7Xs7L76AaI51ajlYZDe7w4H1WZG92uU6fUw1YB31axgqq6ALXYWglExj0R1KUSl2Iq50V/uHOFVg7jB+7axjsw5Ah5weeuP8LAJvdaHMQAOEbYB9cRrZu8/6r+B4XFMbDfgorCOLaJrAcU13pAwIzZOfbfcG+kgKcTK21zX32rdWwVVzpcfPOTLduHPcV6LF68+J5DovlH+p3f+Z3/9/9v71uAqyrPtdcmlEiUZIcISQgEcsGEkJBAgBRQRhzoGXX617a29Hg6vYx1OudgtU4v0uM/9jKHaafO+I/+2nLqwRsmEsCf25AhAiKU+6CCkTACUgYQyyUSoXUsNex/nrgffH391r6vnX35npk9SfbO3nutb33r+d7vvTxvfn7+2eXLl//2b3/7W/8CgApEbH0h60uFUF9QN4Q3ixSHimaApfCWJM50mUy8KT8Wre+8spAGqU5gvGmZjcHrIo9DZqPIilAuMnRByJTKQao5dUBIJOsbXcry+mKUovAStKqZr44dGzJ66uvr+/PsSay0wrkAIosFrh4Qvy/Yz4BBT44FF36MIUi+T/SKJanCpcO0UB0w94kG7m7gd2Hn4FOaOdwhSNJ3lDIme9RSIO0zEskx6kZZJA7ciff19eUMOPkDd9999+N+v//0smXLHjlw4MA4kD4mN3OR3TI/okVAFJPQ2pdBpVA7gFSCVN4MiKpIJ0qrPxaQpOnGYfohrV25OF0JltvLHYHMs9eBREfFXgJKa0hmQ/ER7fXy+voyY4VWc3Nzc7/Fj37IzJWX5wCrHQYOBNPgoqHFLwOodNFgnOE6wpjiJ7V8nKB7hSmRclcsd246syUScKeHbCVH7Jx1EJfXXTZdcULUXcRjsKRTRk6oY03mIijdh0Fp7dyUIH/g61//+sprr722Z/ny5b9/4403psosBVm9xwbgnHym4FOkSOcdgKNy+LkAxBv0lZBuH0oo+ETbO5b1XxESCjogSfLnYiHdbczWiSWWEOt18jqwz/GB8YJq3dra2qsSCo5w27FADbvc7u7uq7n4CAjThYMxxGdgzuP9bG7CHQHbJNLtQ0OA87pfmjnK8+T9IOsFJLS7h3n3JH8976zffuAhU6wDn8rr5Ay4z1+ju7vbj+5gr7766lzcCMwt5jaWQTC5jdRBLydEhanGFdXhJ9zWONViAE7wBpO9ULWPPNT7KalLv7NJeEsHZEE0eLC1H7twUbOdaYimbJFoK4RDNZ+RP8Ndl0jz+8MVeemYgSxqYvERJJDRtxjBXRotdFXCUkeWzbvvvntV1ntQUPAM/wsdHlrOeB2KnBhPvA/XSjYYl8J4bsdJ/ayrvnvfZ88PAWkGXulS1ZAuP84F+Xuo8YoX2eAi8vIcuWtkvA7uPBgLNTU1A+/z16irq+v93ve+d09paekDHR0d98ECAckgFiBVHn0JEl6SxSIy1zyd0skkwcqsmkgmFS1zmTYoSZV+e1qcICLp04aLjpklDHBK4jY1Q4kVboU80bi2vLD8Sfz4iZ65IH5Y7IFge0JU1kJ1s+d8j3Pu/Lmr7kY8ILyGXQJuSC4ePqF7j6wfXCMpqRANuBPg+SKwS8Ezrao6KNhBS4LGEd09NA70WGdTcVS6QV4rZlvBzZ5y5A80Nzcfb25uvn/w4MGXt23b9oNz5875neBEZhu2RPrnM2kBYNWrDJ6GAolLZmLIbB/kgUtJZj5g5fuUPr4TtDT7VH/TaGG6tm4W+SDVxCOcZR8r3HYOzH7BccBAAfljIUSRFsTT8JMiaPgJXz0XSlj9WDzxXvyOuY2ALV0u+Dxa1h8Hm7NHM6ZyFyyDriQAk6S2Jn+Zj++InRiPI9rFKNuQSj5/ifLy8v0pfeV+/vOf/6ywsPD0ihUrfnf27NkhUBdkH1Bp/ScCUuJApiS6FYMRqWTxyJtUymeEgtRb509pScP1hkWXejMkIDd3kqw4vZLADms8L53ay2biAwWQtS8oxQ1tHPyNyly2NwSBY5fEn4x/cLFiwBaEzzaVtNYpWUy3TKgiPxMCqpnJFSWUxl2iVMnUbjc3H76be9Xis0i18WHqcVlZ2Zsp5/M3ob29/a62trZHT5w4UYx8aaoS4oYLFywMd3769StKWI1pebxxw31esheDcMfDkn5HuXEYROf5MkURJAXrlH0F+lv89V3pL8F3I3z9vMwC0T5+7SOWi4NMHXT7rnCqm1ezU9RnRFrH4ebT16/L97P3LH7Sh4/0TqlcS2LlDkDO21BzhvEt2bNAQvvo9WIbUGJ2cpcnA7dubkLpJktF185A81c8fBDLsct5I6+NrHSXO2Hu5rmLhDFXUlzi/PRnP52YFnu2+fPntw0fPvxka2vr40eOHGliYBFWltYSiRdyBxAQ+iWmzAcnBSz/cLsfWnUkRZCTLKzCONKNw+IhZIlAoybSuEEqQQbsTYuI1+BYYgGFkUIpBQZqddGa4xKwljcyid+UjWYKiF9R+jnyb51770RIYNanHxsSPf/cAvJyx+6I76V2Fu5zcuV1w67bP2zYsDNp47CbN2/enwsKCr7xhz/8YcXBgweb4ALyQofGcdH94U2UiqlroRYAHDOzREgg1HpnIJ0WvrTkk0WaOnhrek6fn4kE+Tf1bwgT2cZ7nKFeJ9kjUIs0TB6r1iCK1G0iid8xWPYm4Tv9ujRaTFXT4c7LEn/qwMR5Vwxie9LAYxIG4zPDhw8/XV9f35NW0Zrp06cfve666+a0trY+uWHDhru8DDaZlAx1Klwiso0SBbcFgNs+Vm2C7OE6Yxcs+p/pltD+83QL6OkCMq8MBBN4g8mAaryd5OT7A0G9ewntRjORfzyLuSX+1IK8P68IjTJdfElXNfsjyBabsPqdgRJ2iwdIBb377ru/gxOAJhC21iA0nDAtXIqfReIW0pNbW5j8yYHDd2ilQZP16vb5XsL0XbIBOo8H8RI2jId1Kou3NNn373gC5riK6fx1xlQ0kP0K9GfjOkpXiBukZgzjNFqKIBq4kaa03KX1zeY7rIPg/8lKW9MOwO1vuukc4dLSVbUSsuDOcdlNxQNqC8lgsUXs0HNZpkrruaWB+5Y1NboPBuccd8L4P2bDlZaWvu2kI/kDlZWVfQsXLuzvDrZ58+YFH3zwQRG6DcHXCuKnNjlrAxIJWnbhioFSFcguwfiAVAr9n7QQ1LLXEmg/GK/lOJBxA9nhidtir3YDsiLaUVLWXMhk85pIjz+giuUYzAsVGPdqzJl9xB2IqdOaReQwBexlTEbzilx4pR5WpIYWjBM01XLSlfyJH//4x78sKS5555Utr/zwjTfemJkMF4VM1UvHBUBnmlArhhNJZxPA6g+4KGlGilALQLhMF72zMFnPoeATjV68dAHxeExtNx3hjpK6Uk4E46l1dAKqGX+yF1aQPpvJY1xLS0uT+v2ZBj0nZaYh54mc60z31UaNhtv9AddvWVlZt5Pu5A9861+/9fw1Q6+58NFHHy3q6upq6O+UFMLtwxvQEXr+0SKdFwBWkmLSoIALNzLkCNBw/AtDPptKmAirPZGWfzQxFl3kJoXvvLD++T2ykbjpZ7SQ6pypUHjIBjA4HhCJxSeI9dpotxldNYzHmVzK0q3nRMk5X/jCF04jc9LJBPIH7rjjjnWjR4/uQiB47969t7GjP/1dcmslyV93LnLCDGRAaN3Qz0b5AhmYS5UYgCNcD/Qf0jKVlifiJoFgRSkWB5INOkxphDt+U8649NWHe7/pBgrnF5fP6febtsPacor2u+Rr+vq69ZeQxyXfowO2UjdH++tDnbfpsxMBBq1xPJCpgHuVaq3YNfI7ZdtN1Igw0BhtU5hoEcl8TOTn63kt+cRkUGCB1HUvAaGueSXYA4GS6CZOCgXOE7dxYBEkjgM/UTQ7YcKEXidTyN8JdgcbOnTod3Jycp7avn37Vyk1jJJ5OThyhY5FTVKDjbH5cMvHHihITX63NFVMSMZJAqKBB3L9+/7RF5f1Hq/ln+ix1AtzLLs/uRV3G1O3HWGoIjcnhlRMr8H5jfnBamQYCdgtomBI7qK4KIDIBqLGItkICJl5Uz9jJ+h9cIRRRNKnRhb5QhsjUi8qHELdH1TR5Y7C7/e/x9cySphj4sSJPQsWLPjGiBEjHmEmEK0WuaJq8o+HXHQOtrx4qbAAcPejaxT0ROUCwN0BgufSZRavzz8auFXZxrKQyGut32/KYQ/nDtLvcbs53QwLk6Uf7vsGEiQOuJ+wo0aAFxY/yB+vYedL1V0WFCIOwALCcOeXSfAFJTlM84B8QNLnvGF2j0k6OxHA8fRX6QcX5uLi4qP82IxTZaqoqOh78MEH+zOB1qxZ8zAmLK0QX1BNkb40SjfEA0rm4qagTEIqLQAy5z3csTA3na4HVv1GAretpyZcTZYmspUZK3IBMhF4tDAFkSMZG7f/C2eZaTIIZ/nLIh0nBeQLcPzYPeNBjSIUWLLRPAwGzHmmWTMOkE6iiLGCZB4Qne50diHbrUoukNeUbuRw7ptYIZsD4V4uLCw8yY/KWEm++++//5dlZWVdy5Yte/TUqVNjfMHWeNgN4HdMVua3m+CWQucYCsCkb1a+lgqWPyWC3RY50zHKCYwYgGzOQmlf+X6ePxUg3QhLNpsxQcZUTBgkurC5vR8TXMYcpOV1xdBKUN+QsulFqLHiddYBXv294VIvU50kuZulmm5/csCwYf2kj3Ni8Fe6fkyZYwOFaO5Bea0+l/IcfE33zKCsApModLaXKQYkj4nzJxo3TzTAYo17Ajs08B/UPPn2jNZjvfPOO1cOGjSob+3atQ8fPXq0CZkKUsYgEeQsLxo+Dys9JXwp9pVuVpAsLsE54Jxg0WHspCKlI8g/UgtV/5/eWSS6LiNWhHMRuRFbKKMhHQGy446Qu1taqNqVIfv7RpuSm2pw2y1LyfIrQj6dBX3xeBK84AnuSnBcQ4cOPcpMHyfTyR/42te+tio/P//Mpk2b7tu9e/d8WjDRItQ2XK/aTAWVKVmptgCEcytwAZDngEnE1prRtl8kmYbyqcvcZr5HFk2xYlfCbRdiOs9orVHpIjKRmMmqH+jsLq8hyR3Xo7Kysn8uoKMbsoEYvIy2mC2Vz1f/HRC9kEn6MmgrMdC7n4DQJMvPzz8LiRy+lhWdGObOnbvz+uuvP/7hhx/6d+3a9S9efAeJBYEvRvEp8RtqAUhlsiDxwdqhjDa6TmEXwAVAuzkcQdqOgSD1zaB94qFccfHATe4g2nRKfb3c3ANun59uYB8BpgzymtPA8QW7t8ldoV6wvUJAiP55Nb5aS4n3NR+OqOw2GTYDfd15TDjWvLy8Xvlazq9+9auBOq6koqSk5NKtt976wj//+c+Pu7u7b+GgcLvKfFsTGcgL6BNVd6agoSwukumVkvwkIYabHF5PHn0+bud3RTRmkcdPy4Jpb/pz+TpcR0gNxP9gIcEODOOO2IskEx3wpBXptnOSx2py0/Dauu10Yg38EgFDJaZpvrgh1HxyO99kggs5e0BIWXBcF5A+s33wHILBiBMRXhdByvGPJG2XefY+kaMvU7WlSwf/h3Nhj2rZn9pRapqOy70UDvGOR7jzxfEy3XPatGlrZs2atZGvZV0PtgULFiz6+OOPh2zcuPG+Cxcu+DGppRiX3q7Ga1XwJpETKpQrIdUtRGYzwfqXwmWO0D0imF7GHrWBYEGZ1hKSQmWm8zcJzrnBjeQjtcDD3UyZ7tbRYECTgU4EerFgg+yxoKMNJa4NrjECwSAZGVfz0u0hCxilcRJqp0YylIFa+Z6rje7TOF4hwSQInHdRUdFJ+VpWNuBEJlB1dfXOxx9//P9dunTpczXqJuII5yN3Q0AIesmsCL0zSBdI0Sk21dEZTrKeAucH4kduOG44EATcRyQQWvpaqIrggswb0s3N4ggrM1RcwVRpq3328npnOrmHA61dX1AWGHIgGF8sAqwBoGa8zNRyc38lC6HcjVr/Xh6nW4JGusYuuHDjOpaUlLwtX8va7su3335755UrV76xevXqXx86dGgqiyHo00zkTR9Qio6pVMEZC1jPIG8gt96uGFeQPcY2GHTqJ352uaJ8AC0UTe70H3PrGgnkMejrqBdbkySxdh9lM6TcBJv/4HpSf0YW0QWEtEeix9C0czNlHgVU5zJHxXswb2lI4CFVSfn/MmaRCdc/6Dq9RDVPIi16+HqJ1157bdyzzz771K5du+ay2xXdQHISJBIBIdTlKL9wvD7oZINWH61zCSmihnFl3wVqxID8dd4+JaZ5M+OzabkYVUdD7AToSpJw0/KROxZ5PaK1YBN9P0XrZkr09zMW5gQXSlwDLNzOJ01Bwn6/XoAjnc+hstDksTkiC0wmGhDYXUpwnurOam7HF+76x3t/xpsFGM6txvtz+PDhZ1avXl0iX8tay59obm4+3tfX9+95eXm/3bp1650gCwwWfqKAxTTB44VPVAbK3pvpaGWYOkn5RCMVnpusAj116lR/wJf54QTex2wp3qQUvdI3CT9XLzgythKtcqcOGlt8WiToCKkAN/E6tzFNJORiLZMreB/p+aj7DegeC8k+/mSD5yo1fYisJ38n2B6yqKjo30aOHPnO5s2b/+PEiRPDMGlGjRp11crxAiRJU1Wsm+WZajDdcCR9LavsiE5osoWkBC0yZlUwpY7+Zf15pjxsOZ7RWmrptvPyGrLxN68Lr6vsvOY13AL4jvLhayPBlCiQ7um30YDkr/39jiX/T1FVVXX5Jz/5ycLc3NxL69evf/Cvf/3rMC+Jn9BpYxrpMEHlAuATBS8BoZrJB4K/eGAnAN+xznpiSh2DyQwKO8Gx0ouFqaep9jk7WXbDJxJyfJnnz+vB7KxkjqmsAJeJBXxg3jgh6i/SHdFKQPDa+P3+0/o1S/4K99577yKsktAEOnz48BjkLYOkYP3Qh0zxKjwfzRZYQ05eJ2ilkBCZ2+5lAUsiICcig7LS1y633b6gvhKfpx68Bs8XCwSDdFITXXayclwIPdKdk9vzsZJFLHUCify8RM8VOb9lHYwjrMp4vt9tkXYjb3k9cY+4NZQJR5Ch9KNieV8yIL+b7iuddOEL9uh2gvcY3Kv19fXdjY2NHfoQLfkbAE0gSEIsXbr0yUOHDjVg0rP7PYKWSHdzgi0QdQVgrOCk4w3GYKYORKYb9Pho7R5TPrUWzpPEb1I/DLVAugXwLFIDIChZZKXJVV8/xolMUh+ZDhnUxn3Eehu6T5FAwQWAVdmY71OmTFl16623bvrcvWFvBnfs2rWrrr29/ZEDBw7cBvlaDLSpGUyspOzml5ZNnGUrt2RvsWOBW6Mct3NlBokEz1E2otGknym++VS//0L52p0EjDsICsRFwTQN3YZVNi93m1NeItGWf7QLGDPouADCyqdMPbuGsdoaf3/lK19ZNG/evP/b0NBwRn+WJf8I8KMf/Wjja6+9Nlfnm3tB/nSb4GZgrwBT8VOqkl244zQ193Cz/KXrJpyrx5K/N/Ca/E3aORL04ROMQYTaLXqJgSZ/R9VUsACPGU94DdXWLS0tK2fPnv0/qGdy+xxL/hGgq6ureOPGjT/q7Ox84Ny5c3lUtmS6okQ8Pk9TUYpJGTQRvlavYOpnoMlbHiuzR2jRMVDMCU6/v1ufgHQP4Kbb/RdNnYNP6O3QfSddmib9e032kZBtJrt/MIaMeeE82YvXCe6C6I4GSktLz0ybNm3lzTff/N+zZs3qCvfZ1ucfAbBlamho+N85OTl969evX9jT0zOEpOQlfKI3qIwB2IwVi1SFW22FzPiS+vcDXSSV6oCBCWOTTZWkmxRjOH78+K7y8vI3ENAtLi5+e/bs2fsjPSVr+UeJ9vb2u1auXLno5MmT47AKM7JOJNLy16C1lMpuoGRY/pm0+GWa5e/WjEfWBvhC6N9rhLP8M538pWAdzrWgoKCvpqZm24033vhsY2PjevQtj/WzreUfJebPn9/m8/n6Vq1a9esjR47URKI2mSidE6781vK3iAWBCPXv45mvenGQCzvbgUr9e33/pLMxymSQRLZjDPbdvdzQ0NCJrJ2JEyd2NjU1fS5nPxZYyz9G7Nmzp6a1tfUxNIfBGFIUTmYhxCIXEO7/ZdMIUzaMtqaSvVDISU+Vx1A++3CWP7uJubkTvD4/r++PZN5/ASUnbtJKMh2bTwinsdJap97yd0pzkNR12m60O9Z04ictNIe5jIp2ypNQgkLqYDGpg1yBdE3EPcaNG3d8/PjxOxG0hVunrq6uN+wBRAlr+ceIlpYWlEvfHwgEnjhw4MBc9gXAxaYIGaUMJOIlK04a3oCcPHxEq2djkT2IRP/eUaTP/2cOvknFc5Chh60m/WyAJHE2hYGvnqQPNzHTWukegz8fPIHXiouLz0yZMmU1gra1tbVbKioqPL2ZreWfAPzmN79Z/PLLL/8QfUxREUw/NS5otA3JI70e3AGw3J65v26qlclCvJY/m22EsvyTeU6ZZPn7VHc1+bw8FtMOgNeP/ytJ3if6MRCRVtBmkuUvx5dzGOSPoC15AH9TPRi/jx49umvChAlbQPpjx47dV1tb672mDI/Xkn9i8Kc//ekBFIRdvHgxh4VZsUhCR3M9eEPK/gDah5qu5E+yt+Sf2O8KGPTvNenLY4Ihoxvt8HcaHNIFFA7Z4vZhfQ4SQuDG4bzGDgn9xOvr6zc1NDR0TJ48ea3XFr4bLPknEK2trd9HIPgvf/nLGKzqpqbO8U52UzWwXgB8Qu7WrSLWgb3R3AAAFU5JREFUK8jvjYX8uXthqz1HxTmSvZhlCvnTKpVFdiwSkr57XXRFF6ZXcgrpHrNhMyK6fOgaY69g/D1ixIgPx4wZ01VXV7epqalpHXz41dXV0bkEPIAl/wSjs7NzztNPP/2nEydOVJtUKBNN/o5aAJgH7NaOzmskivyp9eJY8o8LICEpB0DfPTt0sQ2jtOYJGbiMJXkhEqQ7+cO1iwWTO1S2Ny0qKupF56zZs2c/U1FRseeWW27Z4+mBxABL/h5g48aNN61bt+6h7du3/4uuYAyHWMjfEQsAXU2ZYPmzpaYl/9g/W9dWyCpbvVPkIkEkw3hId/JHdo4T7GpWWFh4qaqqag+ydKZOnboykirbgYTN9vEA8+bN+3NJScl3hw4d+sS2bdvujOYbAqIhhW5xGArM9KFKIiwRZhuEgr7BsyUzIxvgCzZfkfNBNlzHA1aqll9wgu/VEsKZhETl4ldVVfUUFxcfRQ7+5MmTV3/xi1/8XNOUVIW1/D3GokWLnujs7FzAhuduvUMJtpF0glv2cEUw4a4fm23LYJ2ErguIN1VUfo8MKEqLU4I+ZZnnT9cEMyYy2fKP9HtN1c18TrpmqI7JRit0+/ARaicqNaWSJZzm5fUMiFaeMmYhA9Q0sNgxTiZpsAiNY0g3JKTc4btHOmZLS0t7Y2NjQoqukg1r+XuMhx566N78/PyzwfaQxY7IB9ZgAQgRSfl7OFDr2605jF380wum64XrS+NCZ/PAJ22SA8kGUNeesTBa+1wsmW75/vvvX9XQ0T2lsQDgf/Lz83vgzmlsbFwLHZ10JXwJa/knCcuXL5+P5jA9PT1FsqpPgn/TAqPPXCJay1/6z7kASEEt/f5ECW3Favn7RHciHZhMxPFFi1Sz/LVBQEufY8ZiK14HEJr08Yc7Hz3fvF40vL6eTFVlbIl/cyegxROxUybhjxgx4jRkFUD2sPLj0dFJRVjLP0n45je/2Y4dQLA9ZJNpAWDqHSVcabXEC9lzVbqA5PfqxcDqB6UmTEKCssJWts3k69Knn4jdZCrDZFywQjkQlGHhWDAzjs1PQPgVFRXHJ06cuAn592VlZV1Tp049nqljZS3/JAOaQC+88MITu3fvnktrRKZpMmBLS1n3C4jlegWE9orMBpKE70b20S4CcmdhLf/w0DEW+uT5vXBHSOgGP2zmQVJ3k2ogIhF0S2agN9HXU48n7ym6cyi5gnPEWOP1ysrKo0FXTgfSMr3Q0UlFWMs/yYAm0ODBg++57rrrfrdz5875zMLA5GQpOP2RFNGKF7Li0BG6QPLGthb/wECTK3d90lUngR7SXCx1uqZXufjpBD2eIHgpTYFHfn5+X1lZWTekFW6++ebFo0aN6q6vr88ol04ksJb/AGLhwoXLDh48OPe9994rwqRErjCawzMzw0T+8QZsuQV2k56IVxXUWv7RQV9fasBwrJBZIiEruZ1gQF8Tv3w92phOsvkg0ddTfx7mM3LxYViVl5e/DVmFSZMmdXz5y1/uSOgXpyEs+Q8wnnzyyYfWrFnz8Pnz54cgM8MRDRzw0G4fjVjdQCRVjXi1gTKV/HVcxOReieXY4IbQYB4+c/QlTPMhIHT6nRQkf7cdiRfXUhsvtbW1+yorK/dMnz69HfU3Cf/CNIZ1+wwwFixYsCgvL6937dq1/3n27NlRcPuwEz+3/Qzyyf6dRDQ3kLYY8WAKHMFOYV5lA6UbJHHJPgqOyMaSVcxy4ZPjFVC9a/k+7vBkhbO8XtqNYVoENbnGc40SeX05DpxfdDXqY3dUnEG+jrkPA4F59gxa83Nh0UsDAc+PGzfu7ZkzZ7bV1NRs+dKXvmQJ3wXW8k8RvPLKKy3PPffc4q6urib4dWERYnJLjZ54r5XJMpRkROiAsEQ4csgky1/KI8hCKkneOq/eEa4ZHrNedOXnytRMt9oPE9zShCN9fzLA82Rw2qdURJ1gQFamYuqdDo0fvAeBW2Tm0C3qBDPYsADU1tbuhDsHsgrpVGU7kLCWf4oAwk95eXnfeuaZZ57u6uqaiQUAwT/cFNQPwXPa8o/35jZpsMub1gaAI4cvqJrppmPkqMVxkOhcFhByy9kEyEvQAMF8x2Iox44V73IBwaOoqOgSArbI0Glqalqb6jo6qQhr+acYuru7/c8///zirVu3zue2X1qfGtFcP5PlT0htF74ubzb5XChkms/fEYuhHAM+dDtDGUg3ieuR8Onu4XspaUFpD/ndJqSD5S/dPiaDQh6bqfaEgOUP637kyJFnKisrX4M0Mqz8YDc9i1ivjyX/1MM777wzBMVgGzduXHD+/Pn+jA8WfyEbBDsAJ6goGK9qqP5b9wfQPuxsIn8eg091qpJuH92pjdLJdBGFa14Sb0wl1bJ33BBQzeM5nrj+IHe4c5xgXAsuT86fysrK40jLhHVfU1PzqnXpJA6W/FMYTz311AOQhu7t7S1Ci0hYPyAVBoBNbqBwCEf+jvBZ6wYxjiB3N6Q7+ZvGQ4+FI8ZIZ9/wHGjVW/L/POR4IsEBrh/OAzxXXl5+tLq6emf9xPrNtRNq0QAl7XV0UhHW55/CuOeee/7P0KFDe1955ZX/OHDgwFRT2qEXkO4K7DZk+lwivzsV/dsmOY2A6kcgA7Sm1MtIWxpmIzh/WJmMXS0sfbh06urqXm2c1NjRMKlhfabp6KQiLPmnOL797W8/4/f7Yfn815tvvjkV22OT28eL6k4ZkJTfkcmBST2GcOvoblbSb5+ICuxUhFfXGOOFOYtdbG5ubk9jY+P6CRMmvAo9/AkTJmSFrEKqwLp90gRbtmxpefHFFx/dvXv3TAQFKVgFq0m6TnDD0n+K1Djtk9YId/2lpr50dbBvqf58kmQkbh9agOwg5YXbh5LWPH7tv8dY4nW4zwKqhy2Oi4V3scLrRdKLz+d1wrjonQ3GScaACAaw8TrF0zA3eW2Zkjly5MjjNTU122bNmrV0/Pjx21Khl222wpJ/GuHo0aNDnnjiiVV79+69DTcaiV+mCkqXg0nBU8Pt+uvnpTCcIwKb2vJNNfJHfISLFXPsQVBssK2Ph4sojyle9026kb9ppyMBAuc8oFImF04uqmwkg/GDAYLm5RMmTNgyY8aMtnHjxu2rqKjIzO1SmsGSf5oBmUDt7e2PrFu37j7chLSqWHwES5ZVokwfDIVoyN9RwTpTNks05K+JNlHkr1Na5eLIQCyJi5/JMeMiwfPSRUfRItPIH65GWZQF4pcihHTrVFdXd0Maedq0ae3I1rEundSDJf80xeLFi3/a0dGx8OTJk0XUggFpsSMRAPcPA2tuiJb8KQlBUtappqlA/hKUr9CFVNJvLyWS4yV7jVQhf521Fe5/tZQF3yfVRPEoKChwPvjgA7jH+lB0NWvWrOfR+GT27Nn74zgtiyTAkn8a46WXXroTkhDnz58vYiAYlpuUGYi0GMgNen7QcgapcrvPWINj0KMnSP7SspTETwKWOwspbSwL3aR7Sy4+TK3Ed2A8KB1AHSPZJ1hatV7q1w8U+Ud6X5vmhyzOYmcrGBTUluLfQ4YMuVxaWvo22hveeOONz8yZM2dPQk7KIimw5J/mePnll29atWrVor17994E0oNPVpK/YxABiwZ6ftDFxPRP6q5wAZC6K47IEEoU+bO7mdRolzsE/JSfKX3RsnOaPC6JTCX/UJa/fI6LJ91i9PFz/HJzcy8jYNvc3Lx60qRJ65ubmzO201Wmw6Z6pjmgWhgIBH6Zk5Pzn6+//vpcL/PLtZ+f7QNlQxrZgcyL9FOdeaRjECR+SiI7BuIzxQCyGTKtkzsqWPbYSfb09Dh+v9+BpEJNTc2fkZJpdXQyA9byzxC89dZbRa2trU9u2bJlvleWv/Tjy5aQtOhlAQ+zeKQVnwjLX0orXBGN7kn2UijNEURP+WTTuaWT2ydU/r18Xl43fQ3dgNdwfTCOxcXFZ5ClM3PmzKVBS99a+BkGS/4Zhoceeqh1x44dd4HokApKHy3IkXn5JMtopSFM0PNHNxiH9SgXCxlIJOn7hMolSv15zEzJRO49K42Z4cTFQjcs18cjdx8m4gs3/weymE1+Nxc7KR/BDC+C7jcunlTEZDom/kaMhH2ica24e8P/jBgxomf06NHdkEWeOXPm8zZDJ7NhyT8DsWTJkvuWLFnyGK1d3NxoDwmgVSRufPxNYo4Hbr5lgjEBkj8DtIwNsFEHiY4LBP+fIl+OSsOMNtAZa2B0oCuZtd49x4ZZTDrg7SjVURK8JP3333+///NGjhwJeYXjyMFvaWlpR5ZOVVWVLbrKEljyz1C0t7fftWzZskd6e3tHgQB444NMceOD+LWVHgv0/NGuFWTdSPJnBa1UvpTkT1JjIBfHTdcQPkfrDDkhXBwS6Ur+tORlQ3e5GMg2kCbyB+ljoccOCu/F34WFhZcaGho66+vrO2fMmPG8rbLNTljyz2AgE2jJkiVPnzp1qvrSpUv9gTvpew/XHzgSuLlUZNyB/ntarI4gf3ay4oPkLrNxdNesUDDN51jqHCJ5r9fQNREy3uIWp+BiwQUD6Zkg/LKysv3oZTtjxoxW28vWwrHkn/nYtm1bE5rDHDp0qAVkD9IHAcP9A8vfi4AkoX3W0j/NwLDsGcxKW5nNE8/3ZwJ0hhLjNsyows5KylI4wcUAhA8dHbh0JtROeHXqtKnLrIVvIWHJPwtw5MiRvKVLlz6xfv3675MYLly4gFZ4CQn6SoQjf1bQkugZiJaZRJb8P4UMWPMnxdUooIbxQqAc8sglJSV7IKsAl4618C1CwZJ/lgDtIVeuXPm7rVu3/uCjjz7KAXlApwWkES8iSSWUqaGOyPZhFg/JH9aslmOIBpk2n2HZ01fPnRvGjJY/xrSqqurotGnTXrrhhhu2odrWZulYRAJL/lmGxx577NcbNmx44OLFi8NiIVcToiF/WXvAQjCZvuiIOIEl/89KTjNl9/rrr+8FyY8dO3Yf8vCnT59+NAUO1SLNYMk/C7F8+fL5bW1tjx07dqwYAUEGCanVI4ulQlW/hguuyqCv7IQlwawVTf76eyOdpwM9n6MNIAdE03da8sznp9QCMp6uueaaPhRdTZ48eS3y8G2VrUW8sOSfpdi4ceNNy5cvf2Tfvn0tCPxCwwVBYJAQ0gdBQuGygSz5f4pwqaRuuyNKTDhCPhrPYVEuKCjoqaqq2oO0zJaWltb6+nrb2tAiYbDaPlkKBAOHDBly76BBgx47cuTITBZXsRCLBVZastkEnZIYD7QkRboYJyaSD/W/snCNlj/GetiwYZcqKir2QTgNPvybbrrJSiNbeAJr+Wc59u3bN27FihWP7Nq1607UAlA1k5k4uk2jab6YyN+U6ROJ5S+bxph+hsNAz2e20CRCLZ4Mcufn53/Y1NTU0dzcvBIuncrKStvpysJzWMs/yzF16tTjhYWF/3bttdf2dHZ2/pCEz/4AsqetRqhAb6wkzAWAKY76Z6oDixlcNuxypQPdcO2gAYrf7z/j9/vf++pXv/pweXn5/smTJ5/M9rlokVxYy9/iKv74xz8+2NHR8bN33323CCmgIH4WDhGRyidov3a0Pn8nRus/VeYzSB7jh1iKE9RUKiwsPI4sHYim3X777Z0DfpAWWQ1L/hafwdKlS3/w0ksv/de5c+eKTYVWsZJ/wNA4xclA8uf3021WUFBwprq6euf06dPboYff2Nh4ekAP0MIiCEv+Fp8DNIHa2toeP3z4cFOkWTeW/D8BXD6lpaXdyNCBSuYdd9yxbkAPyMLCBZb8LYxAKuj69esX7tq16zbk/IO4qbtDXXjqzEi4+f7pv5cN0inxkEjyD4dwqqB6gYL7C/EPpr7KngRw6cC14/f7PywuLj5cXV29BwFbWPrjx4+PXzLVwsJD2ICvhRFIBR0zZsz+/Pz8xzZt2vR9kCDkIECe0JD5+9//bowJpDr0TkZrG+lUVbaoZOEVFwG/338JzcunTJnSn5KJdpp2JlmkE6zlbxESx44dy1m9evWvV6xY8ZATtIR7e3v7Lf9I5JP1/wy05a8/Qy9eejHA6zhmCuKh0xVcOgja2hx8i3SGJX+LiIDuYG1tbY/29vbmQG6AlamSzJ00IH9+v7bw3YrKoHw6ZsyYnXDnwIdvCd8iU2DJ3yJioDvYc889txiicHB/wCXC/q9EOPKXKZ/sw5tM8neCx8gm8tTDZ3Ebjm/YsGGXYd1XV1fvaGxsXAf3TkVFhS28ssgoWPK3iAoIBD/77LOLjx07Vge/P4Ke6UT+LLySPYWx+ygoKPiwrq7u1bq6uk2zZs16pq6uzsoiW2Q0LPlbRI0dO3Y0vPDCC092dXXdpIu34iF/R1T4OiJF1O2zYgWsfMQucnNzz5SXl3dNmjSpI9jPttvOBotsgSV/i5jQ1dVV/OKLLz66ZcuWu+Ilf9nD16Tprz8rEEEvXzeMKh11evwN4//MlMympiZbdGWRlbDkbxEXfvGLXyw7ePDgXEhCgLDhBkJQNSD6zVIamg1J4Gphzj/+TwZ9YZXLpu2OYQFh2iUCz/hMPPBZeD+KrKBGiv+BNhE+q6Sk5CSCtY2NjR0TJ07stC4dCwtL/hYJwO9///tHOjo6fopPQu4/8+HZJ4Dpk2wSw6IpunzkDsAJ7h74HFsWEnDXINYAgneCFbVYMPjd+C7UIYwdO3Z/ZWXlvpaWlrYxY8a8OXHiRKuFb2EhYMnfIiFoa2v7zooVK3578uTJUewGRjKX5I+dAKxykDuIm4sFyZ8uHZK/lkhmqiYWASwstPJzc3Mv5+XlXZg8efK62bNn/8/o0aO7brjhBltla2HhAkv+FgnDpk2bZqI9ZHd391SQNsieC4GjFgE8D+JnA3nuALgA0PWj5yesfHw2FgG4iyorK99GWuaMGTPa5syZs8deTQuLyGDJ3yKhOHTokH/NmjUP79ix4zsXL14sog4OXTIM6MJfD5/8+fPn+5+j318DCwAIn41m8vPzL5eXl7+JxieQR4YMhb2CFhbRw5K/hSfYtm1b0/bt27+/efPmBRcvXswBifv9/n5/PWIBWBRA5njQzYMHdwV8gPShhQ8ffmNj4/qWlpZ227zcwiJ+WPK38BQbNmyYs2fPnrtef/31L58/f74YZM8G8bT0ZdAXMQHsAuAOGjx48CUqZX73u9/9b3ulLCwSB0v+FknBW2+9VbR///7/1dXVddvp06drLly4MCZ3SK7/8j8vf+L2yRnsDMrpXwSOwspHpS1URW+55Rbrx7ew8ACW/C0GBIcPH877xz/+MSwnJ+dqk2C4f6655ppLVkfHwsJjOI7z/wGH06aOGDN8oAAAAABJRU5ErkJggg==;movable=1;resizable=1;rotatable=1;deletable=1;editable=1;locked=0;connectable=1;textOpacity=80;" parent="1" vertex="1">
          <mxGeometry x="131.69000000000005" y="378" width="442.92" height="559.73" as="geometry" />
        </mxCell>
        <mxCell id="BoxAjfrPNr9ojbooBodM-137" value="X56 H.O.T.A.S. Stick" style="rounded=0;whiteSpace=wrap;html=1;movable=1;resizable=1;rotatable=1;deletable=1;editable=1;locked=0;connectable=1;rotation=0;" parent="1" vertex="1">
          <mxGeometry x="510.00000000000006" y="-120" width="292.13" height="40" as="geometry" />
        </mxCell>
        <mxCell id="BoxAjfrPNr9ojbooBodM-141" value="hat1" style="html=1;shadow=0;dashed=0;align=center;verticalAlign=middle;shape=mxgraph.arrows2.twoWayArrow;dy=0.65;dx=22;" parent="1" vertex="1">
          <mxGeometry x="182.22000000000025" y="182" width="110" height="50" as="geometry" />
        </mxCell>
        <mxCell id="BoxAjfrPNr9ojbooBodM-142" value="" style="html=1;shadow=0;dashed=0;align=center;verticalAlign=middle;shape=mxgraph.arrows2.twoWayArrow;dy=0.65;dx=22;rotation=-90;" parent="1" vertex="1">
          <mxGeometry x="181.51999999999998" y="182" width="110.7" height="50" as="geometry" />
        </mxCell>
        <mxCell id="BoxAjfrPNr9ojbooBodM-143" value="hat1" style="ellipse;whiteSpace=wrap;html=1;aspect=fixed;fillColor=default;fillStyle=solid;dashed=1;dashPattern=8 8;" parent="1" vertex="1">
          <mxGeometry x="214.21999999999957" y="184" width="46" height="46" as="geometry" />
        </mxCell>
        <mxCell id="BoxAjfrPNr9ojbooBodM-156" value="" style="html=1;shadow=0;dashed=0;align=center;verticalAlign=middle;shape=mxgraph.arrows2.twoWayArrow;dy=0.65;dx=22;" parent="1" vertex="1">
          <mxGeometry x="530.2999999999997" y="84" width="110" height="50" as="geometry" />
        </mxCell>
        <mxCell id="BoxAjfrPNr9ojbooBodM-157" value="" style="html=1;shadow=0;dashed=0;align=center;verticalAlign=middle;shape=mxgraph.arrows2.twoWayArrow;dy=0.65;dx=22;rotation=-90;" parent="1" vertex="1">
          <mxGeometry x="529.5999999999995" y="84" width="110.7" height="50" as="geometry" />
        </mxCell>
        <mxCell id="BoxAjfrPNr9ojbooBodM-158" value="" style="whiteSpace=wrap;html=1;aspect=fixed;dashed=1;dashPattern=8 8;" parent="1" vertex="1">
          <mxGeometry x="562.9699999999996" y="86" width="45" height="45" as="geometry" />
        </mxCell>
        <mxCell id="BoxAjfrPNr9ojbooBodM-171" value="" style="shape=trapezoid;perimeter=trapezoidPerimeter;whiteSpace=wrap;html=1;fixedSize=1;rotation=-90;" parent="1" vertex="1">
          <mxGeometry x="633.7799999999997" y="382.03999999999996" width="64.4" height="20" as="geometry" />
        </mxCell>
        <mxCell id="BoxAjfrPNr9ojbooBodM-172" value="" style="shape=trapezoid;perimeter=trapezoidPerimeter;whiteSpace=wrap;html=1;fixedSize=1;rotation=-180;" parent="1" vertex="1">
          <mxGeometry x="605.2299999999996" y="355.03999999999996" width="64.79" height="20" as="geometry" />
        </mxCell>
        <mxCell id="BoxAjfrPNr9ojbooBodM-173" value="" style="shape=trapezoid;perimeter=trapezoidPerimeter;whiteSpace=wrap;html=1;fixedSize=1;rotation=0;" parent="1" vertex="1">
          <mxGeometry x="605.1999999999998" y="410.03999999999996" width="64.4" height="20" as="geometry" />
        </mxCell>
        <mxCell id="BoxAjfrPNr9ojbooBodM-174" value="" style="shape=trapezoid;perimeter=trapezoidPerimeter;whiteSpace=wrap;html=1;fixedSize=1;rotation=90;" parent="1" vertex="1">
          <mxGeometry x="577.1699999999996" y="382.03999999999996" width="64.4" height="20" as="geometry" />
        </mxCell>
        <mxCell id="BoxAjfrPNr9ojbooBodM-178" value="" style="ellipse;whiteSpace=wrap;html=1;aspect=fixed;fillColor=default;fillStyle=solid;dashed=1;dashPattern=8 8;" parent="1" vertex="1">
          <mxGeometry x="614.1699999999996" y="369.53999999999996" width="46" height="46" as="geometry" />
        </mxCell>
        <mxCell id="BoxAjfrPNr9ojbooBodM-186" value="2" style="ellipse;whiteSpace=wrap;html=1;aspect=fixed;movable=1;resizable=1;rotatable=1;deletable=1;editable=1;locked=0;connectable=1;" parent="1" vertex="1">
          <mxGeometry x="70.0200000000001" y="316" width="60" height="60" as="geometry" />
        </mxCell>
        <mxCell id="BoxAjfrPNr9ojbooBodM-187" value="3" style="ellipse;whiteSpace=wrap;html=1;aspect=fixed;movable=1;resizable=1;rotatable=1;deletable=1;editable=1;locked=0;connectable=1;" parent="1" vertex="1">
          <mxGeometry x="581.9100000000001" y="543" width="60" height="60" as="geometry" />
        </mxCell>
        <mxCell id="BoxAjfrPNr9ojbooBodM-188" value="5" style="ellipse;whiteSpace=wrap;html=1;aspect=fixed;movable=1;resizable=1;rotatable=1;deletable=1;editable=1;locked=0;connectable=1;" parent="1" vertex="1">
          <mxGeometry x="678.3699999999999" y="684" width="60" height="60" as="geometry" />
        </mxCell>
        <mxCell id="BoxAjfrPNr9ojbooBodM-189" value="" style="endArrow=none;html=1;rounded=0;exitX=0;exitY=0.5;exitDx=0;exitDy=0;" parent="1" source="BoxAjfrPNr9ojbooBodM-187" edge="1">
          <mxGeometry width="50" height="50" relative="1" as="geometry">
            <mxPoint x="157" y="474" as="sourcePoint" />
            <mxPoint x="370" y="460" as="targetPoint" />
            <Array as="points">
              <mxPoint x="447" y="514" />
              <mxPoint x="367" y="474" />
            </Array>
          </mxGeometry>
        </mxCell>
        <mxCell id="BoxAjfrPNr9ojbooBodM-190" value="" style="endArrow=none;html=1;rounded=0;" parent="1" edge="1">
          <mxGeometry width="50" height="50" relative="1" as="geometry">
            <mxPoint x="677" y="714" as="sourcePoint" />
            <mxPoint x="377" y="614" as="targetPoint" />
            <Array as="points">
              <mxPoint x="497" y="704" />
            </Array>
          </mxGeometry>
        </mxCell>
        <mxCell id="BoxAjfrPNr9ojbooBodM-191" value="" style="endArrow=classic;html=1;rounded=0;exitX=1;exitY=0.5;exitDx=0;exitDy=0;" parent="1" source="BoxAjfrPNr9ojbooBodM-186" edge="1">
          <mxGeometry width="50" height="50" relative="1" as="geometry">
            <mxPoint x="157" y="534" as="sourcePoint" />
            <mxPoint x="307" y="394" as="targetPoint" />
            <Array as="points">
              <mxPoint x="167" y="377" />
              <mxPoint x="207" y="384" />
            </Array>
          </mxGeometry>
        </mxCell>
        <mxCell id="BoxAjfrPNr9ojbooBodM-197" value="" style="endArrow=classic;html=1;rounded=0;exitX=1;exitY=0.5;exitDx=0;exitDy=0;" parent="1" edge="1">
          <mxGeometry width="50" height="50" relative="1" as="geometry">
            <mxPoint x="186" y="628" as="sourcePoint" />
            <mxPoint x="264.52" y="603" as="targetPoint" />
          </mxGeometry>
        </mxCell>
        <mxCell id="BoxAjfrPNr9ojbooBodM-198" value="" style="endArrow=classic;html=1;rounded=0;exitX=1;exitY=0.25;exitDx=0;exitDy=0;" parent="1" edge="1">
          <mxGeometry width="50" height="50" relative="1" as="geometry">
            <mxPoint x="203.77999999999997" y="495.56500000000005" as="sourcePoint" />
            <mxPoint x="292.52" y="496.77" as="targetPoint" />
          </mxGeometry>
        </mxCell>
        <mxCell id="BoxAjfrPNr9ojbooBodM-214" value="" style="endArrow=classic;html=1;rounded=0;" parent="1" edge="1">
          <mxGeometry width="50" height="50" relative="1" as="geometry">
            <mxPoint x="557" y="944" as="sourcePoint" />
            <mxPoint x="290" y="550" as="targetPoint" />
          </mxGeometry>
        </mxCell>
        <mxCell id="BoxAjfrPNr9ojbooBodM-225" value="" style="endArrow=classic;html=1;rounded=0;" parent="1" edge="1">
          <mxGeometry width="50" height="50" relative="1" as="geometry">
            <mxPoint x="517" y="224" as="sourcePoint" />
            <mxPoint x="347" y="394" as="targetPoint" />
          </mxGeometry>
        </mxCell>
        <mxCell id="BoxAjfrPNr9ojbooBodM-226" value="" style="endArrow=classic;html=1;rounded=0;" parent="1" edge="1">
          <mxGeometry width="50" height="50" relative="1" as="geometry">
            <mxPoint x="567" y="434" as="sourcePoint" />
            <mxPoint x="367" y="434" as="targetPoint" />
            <Array as="points">
              <mxPoint x="487" y="474" />
            </Array>
          </mxGeometry>
        </mxCell>
        <mxCell id="BoxAjfrPNr9ojbooBodM-231" value="" style="endArrow=classic;html=1;rounded=0;" parent="1" edge="1">
          <mxGeometry width="50" height="50" relative="1" as="geometry">
            <mxPoint x="287" y="234" as="sourcePoint" />
            <mxPoint x="297" y="424" as="targetPoint" />
            <Array as="points">
              <mxPoint x="377" y="284" />
            </Array>
          </mxGeometry>
        </mxCell>
        <mxCell id="BoxAjfrPNr9ojbooBodM-234" value="&lt;span style=&quot;font-size: 10px;&quot;&gt;6&lt;/span&gt;" style="ellipse;whiteSpace=wrap;html=1;" parent="1" vertex="1">
          <mxGeometry x="215" y="605" width="20" height="20" as="geometry" />
        </mxCell>
        <mxCell id="BoxAjfrPNr9ojbooBodM-235" value="&lt;span style=&quot;font-size: 10px;&quot;&gt;1&lt;/span&gt;" style="ellipse;whiteSpace=wrap;html=1;" parent="1" vertex="1">
          <mxGeometry x="227" y="485" width="20" height="20" as="geometry" />
        </mxCell>
        <mxCell id="BoxAjfrPNr9ojbooBodM-236" value="&lt;span style=&quot;font-size: 10px;&quot;&gt;11&lt;/span&gt;" style="ellipse;whiteSpace=wrap;html=1;" parent="1" vertex="1">
          <mxGeometry x="627" y="344" width="20" height="20" as="geometry" />
        </mxCell>
        <mxCell id="BoxAjfrPNr9ojbooBodM-237" value="&lt;span style=&quot;font-size: 10px;&quot;&gt;12&lt;/span&gt;" style="ellipse;whiteSpace=wrap;html=1;" parent="1" vertex="1">
          <mxGeometry x="667" y="382" width="20" height="20" as="geometry" />
        </mxCell>
        <mxCell id="BoxAjfrPNr9ojbooBodM-238" value="&lt;span style=&quot;font-size: 10px;&quot;&gt;13&lt;/span&gt;" style="ellipse;whiteSpace=wrap;html=1;" parent="1" vertex="1">
          <mxGeometry x="627" y="420" width="20" height="20" as="geometry" />
        </mxCell>
        <mxCell id="BoxAjfrPNr9ojbooBodM-239" value="&lt;span style=&quot;font-size: 10px;&quot;&gt;14&lt;/span&gt;" style="ellipse;whiteSpace=wrap;html=1;" parent="1" vertex="1">
          <mxGeometry x="589" y="382" width="20" height="20" as="geometry" />
        </mxCell>
        <mxCell id="BoxAjfrPNr9ojbooBodM-240" value="&lt;font style=&quot;font-size: 10px;&quot;&gt;up&lt;/font&gt;" style="ellipse;whiteSpace=wrap;html=1;" parent="1" vertex="1">
          <mxGeometry x="241.6500000000001" y="150" width="20" height="20" as="geometry" />
        </mxCell>
        <mxCell id="BoxAjfrPNr9ojbooBodM-241" value="&lt;font style=&quot;font-size: 10px; background-color: light-dark(#ffffff, var(--ge-dark-color, #121212));&quot;&gt;down&lt;/font&gt;" style="ellipse;whiteSpace=wrap;html=1;" parent="1" vertex="1">
          <mxGeometry x="241.6500000000001" y="243.70000000000005" width="19.35" height="20" as="geometry" />
        </mxCell>
        <mxCell id="BoxAjfrPNr9ojbooBodM-242" value="&lt;font style=&quot;font-size: 10px; background-color: light-dark(#ffffff, var(--ge-dark-color, #121212));&quot;&gt;right&lt;/font&gt;" style="ellipse;whiteSpace=wrap;html=1;" parent="1" vertex="1">
          <mxGeometry x="273" y="184" width="19.35" height="20" as="geometry" />
        </mxCell>
        <mxCell id="BoxAjfrPNr9ojbooBodM-243" value="&lt;font style=&quot;font-size: 10px; background-color: light-dark(#ffffff, var(--ge-dark-color, #121212));&quot;&gt;left&lt;/font&gt;" style="ellipse;whiteSpace=wrap;html=1;" parent="1" vertex="1">
          <mxGeometry x="181" y="184" width="19.35" height="20" as="geometry" />
        </mxCell>
        <mxCell id="BoxAjfrPNr9ojbooBodM-244" value="&lt;span style=&quot;font-size: 10px;&quot;&gt;7&lt;/span&gt;" style="ellipse;whiteSpace=wrap;html=1;" parent="1" vertex="1">
          <mxGeometry x="591" y="51" width="20" height="20" as="geometry" />
        </mxCell>
        <mxCell id="BoxAjfrPNr9ojbooBodM-245" value="&lt;span style=&quot;font-size: 10px;&quot;&gt;8&lt;/span&gt;" style="ellipse;whiteSpace=wrap;html=1;" parent="1" vertex="1">
          <mxGeometry x="624" y="86" width="20" height="20" as="geometry" />
        </mxCell>
        <mxCell id="BoxAjfrPNr9ojbooBodM-246" value="&lt;span style=&quot;font-size: 10px;&quot;&gt;9&lt;/span&gt;" style="ellipse;whiteSpace=wrap;html=1;" parent="1" vertex="1">
          <mxGeometry x="587" y="145" width="20" height="20" as="geometry" />
        </mxCell>
        <mxCell id="BoxAjfrPNr9ojbooBodM-247" value="&lt;span style=&quot;font-size: 10px;&quot;&gt;10&lt;/span&gt;" style="ellipse;whiteSpace=wrap;html=1;" parent="1" vertex="1">
          <mxGeometry x="527" y="86" width="20" height="20" as="geometry" />
        </mxCell>
        <mxCell id="BoxAjfrPNr9ojbooBodM-248" value="" style="group" parent="1" vertex="1" connectable="0">
          <mxGeometry x="60.870000000000005" y="880" width="80" height="80" as="geometry" />
        </mxCell>
        <mxCell id="BoxAjfrPNr9ojbooBodM-249" value="" style="endArrow=none;html=1;rounded=0;verticalAlign=middle;spacing=2;spacingBottom=65;fontSize=14;" parent="BoxAjfrPNr9ojbooBodM-248" edge="1">
          <mxGeometry width="50" height="50" relative="1" as="geometry">
            <mxPoint x="26" y="50" as="sourcePoint" />
            <mxPoint x="26" as="targetPoint" />
          </mxGeometry>
        </mxCell>
        <mxCell id="BoxAjfrPNr9ojbooBodM-250" value="" style="endArrow=none;html=1;rounded=0;startSize=6;jumpSize=6;" parent="BoxAjfrPNr9ojbooBodM-248" source="BoxAjfrPNr9ojbooBodM-253" edge="1">
          <mxGeometry width="50" height="50" relative="1" as="geometry">
            <mxPoint x="26" y="49.710000000000036" as="sourcePoint" />
            <mxPoint y="80" as="targetPoint" />
          </mxGeometry>
        </mxCell>
        <mxCell id="BoxAjfrPNr9ojbooBodM-251" value="&lt;span&gt;x&lt;/span&gt;" style="ellipse;whiteSpace=wrap;html=1;fontSize=8;" parent="BoxAjfrPNr9ojbooBodM-248" vertex="1">
          <mxGeometry x="16" y="14" width="20" height="20" as="geometry" />
        </mxCell>
        <mxCell id="BoxAjfrPNr9ojbooBodM-252" value="" style="endArrow=none;html=1;rounded=0;startSize=6;jumpSize=6;" parent="BoxAjfrPNr9ojbooBodM-248" target="BoxAjfrPNr9ojbooBodM-253" edge="1">
          <mxGeometry width="50" height="50" relative="1" as="geometry">
            <mxPoint x="26" y="49.710000000000036" as="sourcePoint" />
            <mxPoint y="80" as="targetPoint" />
          </mxGeometry>
        </mxCell>
        <mxCell id="BoxAjfrPNr9ojbooBodM-253" value="&lt;span&gt;rotz&lt;/span&gt;" style="ellipse;whiteSpace=wrap;html=1;fontSize=8;" parent="BoxAjfrPNr9ojbooBodM-248" vertex="1">
          <mxGeometry x="5" y="53.710000000000036" width="20" height="20" as="geometry" />
        </mxCell>
        <mxCell id="BoxAjfrPNr9ojbooBodM-254" value="" style="endArrow=none;html=1;rounded=0;" parent="BoxAjfrPNr9ojbooBodM-248" edge="1">
          <mxGeometry width="50" height="50" relative="1" as="geometry">
            <mxPoint x="26" y="50" as="sourcePoint" />
            <mxPoint x="80" y="50" as="targetPoint" />
          </mxGeometry>
        </mxCell>
        <mxCell id="BoxAjfrPNr9ojbooBodM-255" value="&lt;span&gt;y&lt;/span&gt;" style="ellipse;whiteSpace=wrap;html=1;fontSize=8;" parent="BoxAjfrPNr9ojbooBodM-248" vertex="1">
          <mxGeometry x="41" y="40" width="20" height="20" as="geometry" />
        </mxCell>
        <mxCell id="BoxAjfrPNr9ojbooBodM-256" value="" style="endArrow=classic;html=1;rounded=0;" parent="1" edge="1">
          <mxGeometry width="50" height="50" relative="1" as="geometry">
            <mxPoint x="130" y="880" as="sourcePoint" />
            <mxPoint x="347" y="734" as="targetPoint" />
          </mxGeometry>
        </mxCell>
        <mxCell id="BoxAjfrPNr9ojbooBodM-257" value="" style="group" parent="1" vertex="1" connectable="0">
          <mxGeometry x="607" y="1000" width="80" height="80" as="geometry" />
        </mxCell>
        <mxCell id="BoxAjfrPNr9ojbooBodM-258" value="" style="endArrow=none;html=1;rounded=0;verticalAlign=middle;spacing=2;spacingBottom=65;fontSize=14;" parent="BoxAjfrPNr9ojbooBodM-257" edge="1">
          <mxGeometry width="50" height="50" relative="1" as="geometry">
            <mxPoint x="26" y="50" as="sourcePoint" />
            <mxPoint x="26" as="targetPoint" />
          </mxGeometry>
        </mxCell>
        <mxCell id="BoxAjfrPNr9ojbooBodM-259" value="" style="endArrow=none;html=1;rounded=0;startSize=6;jumpSize=6;" parent="BoxAjfrPNr9ojbooBodM-257" source="BoxAjfrPNr9ojbooBodM-262" edge="1">
          <mxGeometry width="50" height="50" relative="1" as="geometry">
            <mxPoint x="26" y="49.710000000000036" as="sourcePoint" />
            <mxPoint y="80" as="targetPoint" />
          </mxGeometry>
        </mxCell>
        <mxCell id="BoxAjfrPNr9ojbooBodM-260" value="&lt;span&gt;x&lt;/span&gt;" style="ellipse;whiteSpace=wrap;html=1;fontSize=8;" parent="BoxAjfrPNr9ojbooBodM-257" vertex="1">
          <mxGeometry x="16" y="14" width="20" height="20" as="geometry" />
        </mxCell>
        <mxCell id="BoxAjfrPNr9ojbooBodM-261" value="" style="endArrow=none;html=1;rounded=0;startSize=6;jumpSize=6;" parent="BoxAjfrPNr9ojbooBodM-257" target="BoxAjfrPNr9ojbooBodM-262" edge="1">
          <mxGeometry width="50" height="50" relative="1" as="geometry">
            <mxPoint x="26" y="49.710000000000036" as="sourcePoint" />
            <mxPoint y="80" as="targetPoint" />
          </mxGeometry>
        </mxCell>
        <mxCell id="BoxAjfrPNr9ojbooBodM-262" value="&lt;span&gt;rotz&lt;/span&gt;" style="ellipse;whiteSpace=wrap;html=1;fontSize=8;" parent="BoxAjfrPNr9ojbooBodM-257" vertex="1">
          <mxGeometry x="5" y="53.710000000000036" width="20" height="20" as="geometry" />
        </mxCell>
        <mxCell id="BoxAjfrPNr9ojbooBodM-263" value="" style="endArrow=none;html=1;rounded=0;" parent="BoxAjfrPNr9ojbooBodM-257" edge="1">
          <mxGeometry width="50" height="50" relative="1" as="geometry">
            <mxPoint x="26" y="50" as="sourcePoint" />
            <mxPoint x="80" y="50" as="targetPoint" />
          </mxGeometry>
        </mxCell>
        <mxCell id="BoxAjfrPNr9ojbooBodM-264" value="&lt;span&gt;y&lt;/span&gt;" style="ellipse;whiteSpace=wrap;html=1;fontSize=8;" parent="BoxAjfrPNr9ojbooBodM-257" vertex="1">
          <mxGeometry x="41" y="40" width="20" height="20" as="geometry" />
        </mxCell>
        <mxCell id="BoxAjfrPNr9ojbooBodM-271" value="" style="shape=image;verticalLabelPosition=bottom;labelBackgroundColor=default;verticalAlign=top;aspect=fixed;imageAspect=0;editableCssRules=.*;image=data:image/svg+xml,PHN2ZyB4bWxucz0iaHR0cDovL3d3dy53My5vcmcvMjAwMC9zdmciIHZpZXdCb3g9IjUwIDI0My4yNDM2Njc2MDI1MzkwNiAxNDAwLjAwNjEwMzUxNTYyNSAxMDE0Ljc1NjM0NzY1NjI1IiBoZWlnaHQ9IjEwMTQuNzU2MzQ3NjU2MjUiIHdpZHRoPSIxNDAwLjAwNjEwMzUxNTYyNSIgc3R5bGU9ImNvbG9yLXNjaGVtZTogbGlnaHQgZGFyazsiPiYjeGE7ICA8ZGVmcz4mI3hhOyAgICA8c3R5bGU+LmNscy0xIHsgZmlsbDogbGlnaHQtZGFyayhyZ2IoMjAsIDQsIDEpLCByZ2IoMjU1LCAyNTUsIDI1NSkpOyBmaWxsLXJ1bGU6IGV2ZW5vZGQ7IH0gPC9zdHlsZT4mI3hhOyAgPC9kZWZzPiYjeGE7ICA8cGF0aCBkPSJNNzUwLDU5OC4xODlTNTM2LjY2Nyw2MjIuMDM4LDUzNi42NjcsODExLjQ2MSw2OTIuNSwxMDQ0LjczLDc0My4zMzMsMTA0NC43M3MyMjAtMzguMzYsMjIwLTIxOS45MzlTODE4Ljg4OSw1OTguMTg5LDc1MCw1OTguMTg5Wm0wLTEyNi42M1M0MTAsNDg4Ljc0Myw0MTAsODE4LjEyNiw3MzQuNzIsMTE3MS4zNiw3NTAsMTE3MS4zNnMzNDAtNDUuMDIsMzQwLTM0Ni41NjlTODA3Ljc3OCw0NzEuNTU5LDc1MCw0NzEuNTU5Wk0zMzYuNjY3LDM5MS41ODJIMTQzLjMzM1M1MCwzOTcuNjU4LDUwLDQ3MS41NTlWMTE2NC42OVM2NS44MzEsMTI1OCwxNTAsMTI1OEgxMzMwczEyMC03LjI1LDEyMC05OS45N1Y0ODQuODg4czIuNS05My4zMDYtOTMuMzMtOTMuMzA2aC0xODBTMTExNC43MiwzNzEsMTEwMy4zMywzMDQuOTRzLTcwLjgzLTU2LjEyOC02Ni42Ni01OS45ODMtNTUzLjMzNywwLTU1My4zMzcsMC01Ny41LDE3LjE4NC04MCw1OS45ODNTNDAzLjMzMywzNjAuNDgsMzM2LjY2NywzOTEuNTgyWiIgY2xhc3M9ImNscy0xIiBkYXRhLW5hbWU9IkZvcm1lIDciIGlkPSJGb3JtZV83Ii8+JiN4YTs8L3N2Zz4=;rotation=0;" parent="1" vertex="1">
          <mxGeometry x="10" y="17" width="13" height="9" as="geometry" />
        </mxCell>
        <mxCell id="BoxAjfrPNr9ojbooBodM-272" value="" style="shape=image;verticalLabelPosition=bottom;labelBackgroundColor=default;verticalAlign=top;aspect=fixed;imageAspect=0;editableCssRules=.*;image=data:image/svg+xml,PHN2ZyB4bWxucz0iaHR0cDovL3d3dy53My5vcmcvMjAwMC9zdmciIHZpZXdCb3g9IjUwLjAzOTU1ODQxMDY0NDUzIDQ5Ljk3NjIwNzczMzE1NDMgMTM5OS44Njc1NTM3MTA5Mzc1IDE0MDAuMDUxMjY5NTMxMjUiIGhlaWdodD0iMTQwMC4wNTEyNjk1MzEyNSIgd2lkdGg9IjEzOTkuODY3NTUzNzEwOTM3NSIgc3R5bGU9ImNvbG9yLXNjaGVtZTogbGlnaHQgZGFyazsiPiYjeGE7ICA8ZGVmcz4mI3hhOyAgICA8c3R5bGU+LmNscy0xIHsgZmlsbDogbGlnaHQtZGFyayhyZ2IoMjAsIDQsIDEpLCByZ2IoMjU1LCAyNTUsIDI1NSkpOyBmaWxsLXJ1bGU6IGV2ZW5vZGQ7IH0gPC9zdHlsZT4mI3hhOyAgPC9kZWZzPiYjeGE7ICA8cGF0aCBkPSJNMTA1LjcyMyw1NzEuMDU4TDIyMi41NSw0NjQuNXM3Ljg1NS0xMC42MjYsNDkuMTktMTIuNTM3LDU0Ny4yNDItNTAuMTQ3LDU0Ny4yNDItNTAuMTQ3TDk5MS4xNDcsMjQ1LjFzNDIuNy0zMS41Miw4Ni4wODMtNTYuNDE1LDMwNy40NC0xMzcuOSwzMDcuNDQtMTM3LjksODMuNjktMTIuNzE1LDYxLjQ5LDYyLjY4NC0xMTAuNjgsMjc1LjgwOC0xMTAuNjgsMjc1LjgwOC0zMy4xNCw2MC40MTYtNjEuNDksMTAwLjI5NFMxMTE0LjEyLDY3Ny42MiwxMTE0LjEyLDY3Ny42MmwtNDkuMTksNTUxLjYycy0yLjM5LDI5LjA3LTE4LjQ0LDUwLjE0LTkyLjIzNSwxMDYuNTctOTIuMjM1LDEwNi41Ny00My4zODUsNTQuMTQtNzMuNzg2LDBTNzI2Ljc1LDEwNTMuNzIsNzI2Ljc1LDEwNTMuNzJsLTU1LjMzOSwzMS4zNHMtMzMuMTM3LDM1LjM1LTczLjc4NSwwLTE1OS44NjktMTU2LjctMTU5Ljg2OS0xNTYuNy0xMi42NC0zNS43LDYuMTQ5LTY4Ljk1MiwzMC43NDQtNTYuNDE2LDMwLjc0NC01Ni40MTZMMTI0LjE3LDYyNy40NzNTODkuMzI3LDYwMC4zMSwxMDUuNzIzLDU3MS4wNThabTE1My43MiwzNjkuODMzTDUwLjM4NCwxMTY2LjU1cy02LjQ5Miw1Ni4yNCwzNi44OTMsMTguODEsMjI3LjUwNS0xNzUuNTIsMjI3LjUwNS0xNzUuNTIsMzAuNC00MS45NjQsMC02OC45NDlTMjg0LjAzOCw5MjYuMjY1LDI1OS40NDMsOTQwLjg5MVpNMzc2LjI3LDExNDEuNDhsLTIzOS44LDI4OC4zNHMtMTAuNTkxLDM1LjM1LDE4LjQ0NywxMi41NFM0NTAuMDU1LDEyMTYuNyw0NTAuMDU1LDEyMTYuN3MzNC41LTM3Ljc5LDAtNzUuMjJTMzk0LjcxNiwxMTMzLjEyLDM3Ni4yNywxMTQxLjQ4WiIgY2xhc3M9ImNscy0xIiBkYXRhLW5hbWU9IkZvcm1lIDEiIGlkPSJGb3JtZV8xIi8+JiN4YTs8L3N2Zz4=;rotation=0;connectable=0;allowArrows=0;" parent="1" vertex="1">
          <mxGeometry x="10" y="56" width="12" height="12" as="geometry" />
        </mxCell>
        <mxCell id="BoxAjfrPNr9ojbooBodM-273" value="" style="shape=image;verticalLabelPosition=bottom;labelBackgroundColor=default;verticalAlign=top;aspect=fixed;imageAspect=0;editableCssRules=.*;image=data:image/svg+xml,PHN2ZyB4bWxucz0iaHR0cDovL3d3dy53My5vcmcvMjAwMC9zdmciIHZpZXdCb3g9IjUwLjEwMTg5MDU2Mzk2NDg0NCA4MS44NTE4NzUzMDUxNzU3OCAxMzk5Ljg3MTgyNjE3MTg3NSAxMzM3LjA4MjI3NTM5MDYyNSIgaGVpZ2h0PSIxMzM3LjA4MjI3NTM5MDYyNSIgd2lkdGg9IjEzOTkuODcxODI2MTcxODc1IiBzdHlsZT0iY29sb3Itc2NoZW1lOiBsaWdodCBkYXJrOyI+JiN4YTsgIDxkZWZzPiYjeGE7ICAgIDxzdHlsZT4uY2xzLTEgeyBmaWxsOiBsaWdodC1kYXJrKHJnYigyMCwgNCwgMSksIHJnYigyNTUsIDI1NSwgMjU1KSk7IGZpbGwtcnVsZTogZXZlbm9kZDsgfSA8L3N0eWxlPiYjeGE7ICA8L2RlZnM+JiN4YTsgIDxwYXRoIGQ9Ik0xNzEuODA4LDEwMTkuOTRMNTAxLjkyLDExNTkuNTdzNTkuMjUxLDcuNzIsODguODc2LDAsMzA0LjcxOS0xMDcuODksMzA0LjcxOS0xMDcuODksMjIuNzQ4LTI1LjYsMzguMDktMzEuNzQsNzAuMzY1LTE5LjI1LDEwMS41NzUtNi4zNCw5MC45OSw3MS4xOCw5NS4yMiwxMDcuODksMTAuMDUsNTAuNTYtNi4zNSw2OS44Mi01MjAuNTU3LDIwOS40NC01MjAuNTU3LDIwOS40NC01MC4yNTcsMzYuMjgtMTIwLjYxOCw2LjM1Uzc2LjU4NCwxMjE2LjY5LDc2LjU4NCwxMjE2LjY5cy0zMi44LTI3LjE4LTI1LjM5My02OS44MSwyOS4xLTk1LjQyLDUwLjc4Ny0xMDcuOVMxNDYuNDE1LDEwMTguMzYsMTcxLjgwOCwxMDE5Ljk0Wm0xNjUuMDU2LDYuMzUsMTkwLjQ0OSw2OS44MXM0NC45NjcsNC41NSw3Ni4xOC02LjM0LDE5MC40NDktNjMuNDcsMTkwLjQ0OS02My40NywyOS4xLTkuNzMsMzguMDktMzEuNzM0LDExLjYzOS03MS42MTYtMzEuNzQyLTYzLjQ2OS04OC4zNDcsMjItMTAxLjU3MiwxOS4wNDEtNjQuNTQyLDU1LjMyMi0xNDYuMDExLDU3LjEyMi0xMjguMDI1LTYuNTYtMTcxLjQtMTkuMDQxLTgyLjUyOC0yNS4zODgtODIuNTI4LTI1LjM4OFMzMDYuNzEsMTAxNS4xOCwzMzYuODY0LDEwMjYuMjlaTTU5MC44LDUzNy41ODRsNjMuNDgzLDI1My44NzNzMTYuNCw1OC40OTQtMTIuNyw4OC44NTYtNTguMTkzLDU1LjMyLTk1LjIyNSw1Ny4xMjFTNDU4LjAxMSw5MjYuMTEzLDM5NCw5MDUuN3MtMjQxLjIzNi04Mi41MDktMjQxLjIzNi04Mi41MDlTOTcuNzQ1LDgxMS44Nyw5NS42MjksNzIxLjY0MnMwLTMyMy42ODksMC0zMjMuNjg5LDE0LjgxMy0zOS44ODEsNTcuMTM1LTUwLjc3NFM1NTkuMDU1LDIzMi45MzYsNTU5LjA1NSwyMzIuOTM2czY3LjE4Ni0xMi45MDgsODIuNTI4LDEyLjY5MywxMi43LDMxLjczNCwxMi43LDMxLjczNGw2MjIuMTMxLTE5MC40czYyLjQzLTE3LjY2OCwxMDEuNTgsMTIuNjk0LDcxLjk0LDY0Ljg0MSw2OS44MywxMDcuOSwyLjExLDgwLjcwOC01Ny4xNCwxMDEuNTVTNTkwLjgsNTM3LjU4NCw1OTAuOCw1MzcuNTg0Wm05NS4yMjUsNzYuMTYyczQ4LjE0MSwxNDIuNTg5LDQ0LjQzOCwxOTAuNCwwLDI1LjM4NywwLDI1LjM4N0wxMzY1LjI5LDY2NC41MnMxMDAuNTEtMzAuMzYxLDgyLjUzLTExNC4yNDMtNDcuMDktMTMwLjMyNC0xNDYuMDEtMTA3LjlTNjg2LjAyMSw2MTMuNzQ2LDY4Ni4wMjEsNjEzLjc0NlpNMTMyMC44NSwxNjMuMTJzLTQ0LjQ0LDEwLjg5My00NC40NCw0NC40MjgsMzIuMjcsNTAuNzc1LDUwLjc5LDUwLjc3NSw0NC40NC00Ljk3NCw0NC40NC00NC40MjhTMTM0Ny44MywxNjMuMTIsMTMyMC44NSwxNjMuMTJabTAsMzQyLjcyOXMtNDQuNDQsMTQuMDY3LTQ0LjQ0LDQ0LjQyOCwyNS45Myw0NC40MjgsNDQuNDQsNDQuNDI4LDUwLjc5LTkuNzM0LDUwLjc5LTM4LjA4MUE1MC4yNjQsNTAuMjY0LDAsMCwwLDEzMjAuODUsNTA1Ljg0OVoiIGNsYXNzPSJjbHMtMSIgZGF0YS1uYW1lPSJGb3JtZSAzIiBpZD0iRm9ybWVfMyIvPiYjeGE7PC9zdmc+;rotation=0;" parent="1" vertex="1">
          <mxGeometry x="11" y="36" width="12" height="12" as="geometry" />
        </mxCell>
        <mxCell id="BoxAjfrPNr9ojbooBodM-274" value="" style="shape=image;verticalLabelPosition=bottom;labelBackgroundColor=default;verticalAlign=top;aspect=fixed;imageAspect=0;editableCssRules=.*;image=data:image/svg+xml,PHN2ZyB4bWxucz0iaHR0cDovL3d3dy53My5vcmcvMjAwMC9zdmciIHZpZXdCb3g9IjEzMC4wODU1NTYwMzAyNzM0NCAxMTAuOTA4ODQzOTk0MTQwNjIgMTIzOS45Mzc3NDQxNDA2MjUgMTI3OC4wNzQzNDA4MjAzMTI1IiBoZWlnaHQ9IjEyNzguMDc0MzQwODIwMzEyNSIgd2lkdGg9IjEyMzkuOTM3NzQ0MTQwNjI1IiBzdHlsZT0iY29sb3Itc2NoZW1lOiBsaWdodCBkYXJrOyI+JiN4YTsgIDxkZWZzPiYjeGE7ICAgIDxzdHlsZT4uY2xzLTEgeyBmaWxsOiBsaWdodC1kYXJrKHJnYigyMCwgNCwgMSksIHJnYigyNTUsIDI1NSwgMjU1KSk7IGZpbGwtcnVsZTogZXZlbm9kZDsgfSA8L3N0eWxlPiYjeGE7ICA8L2RlZnM+JiN4YTsgIDxwYXRoIGQ9Ik02MDUuNTQzLDM1MC42cy02Ni40ODgsMjU4LjMxNC04MC4zNiwyOTIuMTM5LTQ5LjQ0Myw5NS4yLTEzOC44LDEzMS40NjJTMTM3Ljk5LDg0Ny4yMzQsMTM3Ljk5LDg0Ny4yMzRzLTE3Ljc4NSwxNy4zLDAsMjEuOTExLDIxMS4xMjEsNDguOTQ4LDI0OC4zODgsNzMuMDM0LDEzNS42Myw3OC4xNjEsMTY4LjAyNywyMTkuMSw1MS4xMzgsMTg5Ljg5LDUxLjEzOCwxODkuODksMTIuODQxLDEyLjYzLDIxLjkxNy0yOS4yMSw0Ni42MjgtMjAxLjkxLDY1Ljc1LTI0MS4wMSw3Ni43NjMtMTI0LjMxOCwxMzguOC0xNDYuMDc0LDIzMy43NzYtNjUuNzMxLDIzMy43NzYtNjUuNzMxLDM2LjU4LTExLjExLDAtMjEuOTExUzgzMy45LDc5Mi4zLDc5NS40ODcsNzU5LjU5MnMtOTguNTY5LTY0Ljk3My0xMjQuMTk0LTE4Mi41ODctNTEuMTM5LTIxMS44LTUxLjEzOS0yMTEuOFM2MTcuNDE1LDM0Mi4zODEsNjA1LjU0MywzNTAuNlpNMTEzOS43OCwxMTEuNzcycy0zMi4xMywxMjQuNzgzLTM4LjgzLDE0MS4xMjMtMjMuODksNDUuOTktNjcuMDcsNjMuNS0xMjAuMDE5LDM1LjI4MS0xMjAuMDE5LDM1LjI4MS04LjU5NCw4LjM1NywwLDEwLjU4NCwxMDIuMDA5LDIzLjY0NSwxMjAuMDE5LDM1LjI4MSw2NS41NCwzNy43NTgsODEuMTksMTA1Ljg0MiwyNC43MSw5MS43MywyNC43MSw5MS43Myw2LjIsNi4xLDEwLjU5LTE0LjExMiwyMi41My05Ny41MzgsMzEuNzctMTE2LjQyNywzNy4wOS02MC4wNTIsNjcuMDctNzAuNTYxLDExMi45Ni0zMS43NTMsMTEyLjk2LTMxLjc1MywxNy42Ny01LjM2NywwLTEwLjU4NC0xMTIuMDUtMjYuNTM1LTEzMC42MS00Mi4zMzctNDcuNjMtMzEuMzg2LTYwLjAxLTg4LjItMjQuNzEtMTAyLjMxNC0yNC43MS0xMDIuMzE0UzExNDUuNTIsMTA3LjgsMTEzOS43OCwxMTEuNzcyWk0xMTA3LjgsOTUwLjdzLTI5LjA1LDExMi45NTEtMzUuMTIsMTI3Ljc0MS0yMS42LDQxLjYyLTYwLjY1LDU3LjQ4LTEwOC41MzgsMzEuOTMtMTA4LjUzOCwzMS45My03Ljc3Miw3LjU3LDAsOS41OCw5Mi4yNTQsMjEuNDEsMTA4LjUzOCwzMS45NCw1OS4yNywzNC4xNyw3My40Miw5NS44LDIyLjM1LDgzLjAzLDIyLjM1LDgzLjAzLDUuNjEsNS41Miw5LjU4LTEyLjc3LDIwLjM3LTg4LjI5LDI4LjczLTEwNS4zOSwzMy41NC01NC4zNSw2MC42NS02My44NywxMDIuMTYtMjguNzQsMTAyLjE2LTI4Ljc0LDE1Ljk4LTQuODUsMC05LjU4LTEwMS4zMy0yNC4wMi0xMTguMTItMzguMzItNDMuMDctMjguNDEtNTQuMjctNzkuODMtMjIuMzQtOTIuNjE1LTIyLjM0LTkyLjYxNVMxMTEyLjk5LDk0Ny4xMDYsMTEwNy44LDk1MC43WiIgY2xhc3M9ImNscy0xIiBkYXRhLW5hbWU9IkZvcm1lIDUiIGlkPSJGb3JtZV81Ii8+JiN4YTs8L3N2Zz4=;rotation=0;" parent="1" vertex="1">
          <mxGeometry x="10" y="75" width="12" height="12" as="geometry" />
        </mxCell>
        <mxCell id="BoxAjfrPNr9ojbooBodM-275" value="" style="shape=image;verticalLabelPosition=bottom;labelBackgroundColor=default;verticalAlign=top;aspect=fixed;imageAspect=0;editableCssRules=.*;image=data:image/svg+xml,PHN2ZyB4bWxucz0iaHR0cDovL3d3dy53My5vcmcvMjAwMC9zdmciIHZpZXdCb3g9IjY0IDUwIDEzNzMgMTQwMCIgaGVpZ2h0PSIxNDAwIiB3aWR0aD0iMTM3MyIgc3R5bGU9ImNvbG9yLXNjaGVtZTogbGlnaHQgZGFyazsiPiYjeGE7ICA8ZGVmcz4mI3hhOyAgICA8c3R5bGU+LmNscy0xIHsgZmlsbDogbGlnaHQtZGFyayhyZ2IoMjAsIDQsIDEpLCByZ2IoMjU1LCAyNTUsIDI1NSkpOyBmaWxsLXJ1bGU6IGV2ZW5vZGQ7IH0gPC9zdHlsZT4mI3hhOyAgPC9kZWZzPiYjeGE7ICA8cGF0aCBkPSJNNzM3LjAzOSwxOTguMDc3UzE5OC42MDgsMjIwLjA2NiwxOTguNjA4LDc1Ni43MzEsNzQzLjk0NywxMzIyLjEyLDc1MC41LDEzMjIuMTJzNTUxLjg5LTQ3LjU3LDU1MS44OS01NzIuMTJTNzg0LjE1MiwxOTguMDc3LDczNy4wMzksMTk4LjA3N1pNNzQzLjc3LDUwUzY0LDExMi4zNzQsNjQsNzYzLjQ2Miw3MTIuNTM5LDE0NTAsNzQzLjc3LDE0NTAsMTQzNywxNDA5LjE3LDE0MzcsNzYzLjQ2Miw3OTAuODgyLDUwLDc0My43Nyw1MFptODcuNSwzMDIuODg1LTM1Ni43MTEsNDM3LjVzLTQuMzA5LDQ2LjY2OCwyNi45MjEsNDcuMTE1LDE4MS43MjEsMCwxODEuNzIxLDAsMzYuMDczLTQuOTM0LDIwLjE5MSwzMy42NTQtOTQuMjI1LDI4Mi43LTk0LjIyNSwyODIuNywwLjE3OCw2OS4xLDQwLjM4MiwyMC4xOVMxMDE5LjcyLDcyMy4wNzcsMTAxOS43Miw3MjMuMDc3czIyLjYxLTU2LjUzNy0yMC4yLTUzLjg0Ni0yMDEuOTEyLDAtMjAxLjkxMiwwLTIwLjAxNCw2LjI4NC0xMy40NjEtMjYuOTIzLDk0LjIyNS0yODIuNjkzLDk0LjIyNS0yODIuNjkzUzg4Ny4zNTEsMzAzLjUyNiw4MzEuMjY1LDM1Mi44ODVaIiBjbGFzcz0iY2xzLTEiIGRhdGEtbmFtZT0iRm9ybWUgOCIgaWQ9IkZvcm1lXzgiLz4mI3hhOzwvc3ZnPg==;rotation=0;" parent="1" vertex="1">
          <mxGeometry x="10" y="93" width="12" height="12" as="geometry" />
        </mxCell>
        <mxCell id="BoxAjfrPNr9ojbooBodM-276" value="?" style="ellipse;whiteSpace=wrap;html=1;aspect=fixed;movable=1;resizable=1;rotatable=1;deletable=1;editable=1;locked=0;connectable=1;" parent="1" vertex="1">
          <mxGeometry x="370" y="1010" width="60" height="60" as="geometry" />
        </mxCell>
        <object label="Action&lt;div&gt;[DT] Other Action&lt;/div&gt;&lt;div&gt;[H] Another Action&lt;/div&gt;" input="js_hat_up" id="T3-o9itAhu2atHjsPrg1-1">
          <mxCell style="rounded=0;whiteSpace=wrap;html=1;strokeColor=none;fillColor=none;align=center;verticalAlign=bottom;movable=1;resizable=1;rotatable=1;deletable=1;editable=1;locked=0;connectable=1;" vertex="1" parent="1">
            <mxGeometry x="494" y="17" width="180" height="26" as="geometry" />
          </mxCell>
        </object>
        <object label="Action&lt;div&gt;[DT] Other Action&lt;/div&gt;&lt;div&gt;[H] Another Action&lt;/div&gt;" input="js_hat_left" id="T3-o9itAhu2atHjsPrg1-2">
          <mxCell style="rounded=1;whiteSpace=wrap;html=1;strokeColor=none;fillColor=none;align=center;verticalAlign=middle;dashed=1;dashPattern=8 8;movable=1;resizable=1;rotatable=1;deletable=1;editable=1;locked=0;connectable=1;" vertex="1" parent="1">
            <mxGeometry x="384" y="85" width="151" height="40" as="geometry" />
          </mxCell>
        </object>
        <object label="Action&lt;div&gt;[DT] Other Action&lt;/div&gt;&lt;div&gt;[H] Another Action&lt;/div&gt;" input="js_hat_down" id="T3-o9itAhu2atHjsPrg1-3">
          <mxCell style="rounded=0;whiteSpace=wrap;html=1;strokeColor=none;fillColor=none;align=center;verticalAlign=top;movable=1;resizable=1;rotatable=1;deletable=1;editable=1;locked=0;connectable=1;" vertex="1" parent="1">
            <mxGeometry x="531.49" y="169" width="107.51" height="52" as="geometry" />
          </mxCell>
        </object>
        <object label="Action&lt;div&gt;[DT] Other Action&lt;/div&gt;&lt;div&gt;[H] Another Action&lt;/div&gt;" input="js_hat_right" id="T3-o9itAhu2atHjsPrg1-4">
          <mxCell style="rounded=0;whiteSpace=wrap;html=1;strokeColor=none;fillColor=none;align=center;verticalAlign=middle;movable=1;resizable=1;rotatable=1;deletable=1;editable=1;locked=0;connectable=1;" vertex="1" parent="1">
            <mxGeometry x="639" y="83" width="153" height="43.35" as="geometry" />
          </mxCell>
        </object>
        <object label="Action&lt;div&gt;[DT] Other Action&lt;/div&gt;&lt;div&gt;[H] Another Action&lt;/div&gt;" input="js_hat_up" id="T3-o9itAhu2atHjsPrg1-5">
          <mxCell style="rounded=0;whiteSpace=wrap;html=1;strokeColor=none;fillColor=none;align=center;verticalAlign=bottom;movable=1;resizable=1;rotatable=1;deletable=1;editable=1;locked=0;connectable=1;" vertex="1" parent="1">
            <mxGeometry x="148" y="119" width="180" height="26" as="geometry" />
          </mxCell>
        </object>
        <object label="Action&lt;div&gt;[DT] Other Action&lt;/div&gt;&lt;div&gt;[H] Another Action&lt;/div&gt;" input="js_hat_left" id="T3-o9itAhu2atHjsPrg1-6">
          <mxCell style="rounded=1;whiteSpace=wrap;html=1;strokeColor=none;fillColor=none;align=center;verticalAlign=middle;dashed=1;dashPattern=8 8;movable=1;resizable=1;rotatable=1;deletable=1;editable=1;locked=0;connectable=1;" vertex="1" parent="1">
            <mxGeometry x="38" y="187" width="151" height="40" as="geometry" />
          </mxCell>
        </object>
        <object label="Action&lt;div&gt;[DT] Other Action&lt;/div&gt;&lt;div&gt;[H] Another Action&lt;/div&gt;" input="js_hat_down" id="T3-o9itAhu2atHjsPrg1-7">
          <mxCell style="rounded=0;whiteSpace=wrap;html=1;strokeColor=none;fillColor=none;align=center;verticalAlign=top;movable=1;resizable=1;rotatable=1;deletable=1;editable=1;locked=0;connectable=1;" vertex="1" parent="1">
            <mxGeometry x="185.49" y="271" width="107.51" height="52" as="geometry" />
          </mxCell>
        </object>
        <object label="Action&lt;div&gt;[DT] Other Action&lt;/div&gt;&lt;div&gt;[H] Another Action&lt;/div&gt;" input="js_hat_right" id="T3-o9itAhu2atHjsPrg1-8">
          <mxCell style="rounded=0;whiteSpace=wrap;html=1;strokeColor=none;fillColor=none;align=center;verticalAlign=middle;movable=1;resizable=1;rotatable=1;deletable=1;editable=1;locked=0;connectable=1;" vertex="1" parent="1">
            <mxGeometry x="293" y="185" width="153" height="43.35" as="geometry" />
          </mxCell>
        </object>
        <object label="Action&lt;div&gt;[DT] Other Action&lt;/div&gt;&lt;div&gt;[H] Another Action&lt;/div&gt;" input="js_hat_up" id="T3-o9itAhu2atHjsPrg1-9">
          <mxCell style="rounded=0;whiteSpace=wrap;html=1;strokeColor=none;fillColor=none;align=center;verticalAlign=bottom;movable=1;resizable=1;rotatable=1;deletable=1;editable=1;locked=0;connectable=1;" vertex="1" parent="1">
            <mxGeometry x="543.62" y="302" width="180" height="26" as="geometry" />
          </mxCell>
        </object>
        <object label="Action&lt;div&gt;[DT] Other Action&lt;/div&gt;&lt;div&gt;[H] Another Action&lt;/div&gt;" input="js_hat_left" id="T3-o9itAhu2atHjsPrg1-10">
          <mxCell style="rounded=1;whiteSpace=wrap;html=1;strokeColor=none;fillColor=none;align=center;verticalAlign=middle;dashed=1;dashPattern=8 8;movable=1;resizable=1;rotatable=1;deletable=1;editable=1;locked=0;connectable=1;" vertex="1" parent="1">
            <mxGeometry x="460" y="370" width="124.62" height="40" as="geometry" />
          </mxCell>
        </object>
        <object label="Action&lt;div&gt;[DT] Other Action&lt;/div&gt;&lt;div&gt;[H] Another Action&lt;/div&gt;" input="js_hat_down" id="T3-o9itAhu2atHjsPrg1-11">
          <mxCell style="rounded=0;whiteSpace=wrap;html=1;strokeColor=none;fillColor=none;align=center;verticalAlign=top;movable=1;resizable=1;rotatable=1;deletable=1;editable=1;locked=0;connectable=1;" vertex="1" parent="1">
            <mxGeometry x="581.11" y="454" width="107.51" height="52" as="geometry" />
          </mxCell>
        </object>
        <object label="Action&lt;div&gt;[DT] Other Action&lt;/div&gt;&lt;div&gt;[H] Another Action&lt;/div&gt;" input="js_hat_right" id="T3-o9itAhu2atHjsPrg1-12">
          <mxCell style="rounded=0;whiteSpace=wrap;html=1;strokeColor=none;fillColor=none;align=center;verticalAlign=middle;movable=1;resizable=1;rotatable=1;deletable=1;editable=1;locked=0;connectable=1;" vertex="1" parent="1">
            <mxGeometry x="688.62" y="368" width="131.38" height="43.35" as="geometry" />
          </mxCell>
        </object>
        <object label="Action&lt;div&gt;[DT] Other Action&lt;/div&gt;&lt;div&gt;[H] Another Action&lt;/div&gt;" input="js_hat_down" id="T3-o9itAhu2atHjsPrg1-13">
          <mxCell style="rounded=0;whiteSpace=wrap;html=1;strokeColor=none;fillColor=none;align=center;verticalAlign=top;movable=1;resizable=1;rotatable=1;deletable=1;editable=1;locked=0;connectable=1;" vertex="1" parent="1">
            <mxGeometry x="46.27" y="382.04" width="107.51" height="52" as="geometry" />
          </mxCell>
        </object>
        <object label="Action&lt;div&gt;[DT] Other Action&lt;/div&gt;&lt;div&gt;[H] Another Action&lt;/div&gt;" input="js_hat_down" id="T3-o9itAhu2atHjsPrg1-14">
          <mxCell style="rounded=0;whiteSpace=wrap;html=1;strokeColor=none;fillColor=none;align=center;verticalAlign=top;movable=1;resizable=1;rotatable=1;deletable=1;editable=1;locked=0;connectable=1;" vertex="1" parent="1">
            <mxGeometry x="555.61" y="610" width="107.51" height="52" as="geometry" />
          </mxCell>
        </object>
        <object label="Action&lt;div&gt;[DT] Other Action&lt;/div&gt;&lt;div&gt;[H] Another Action&lt;/div&gt;" input="js_hat_down" id="T3-o9itAhu2atHjsPrg1-15">
          <mxCell style="rounded=0;whiteSpace=wrap;html=1;strokeColor=none;fillColor=none;align=center;verticalAlign=top;movable=1;resizable=1;rotatable=1;deletable=1;editable=1;locked=0;connectable=1;" vertex="1" parent="1">
            <mxGeometry x="654.61" y="750" width="107.51" height="52" as="geometry" />
          </mxCell>
        </object>
        <object label="Action&lt;div&gt;[DT] Other Action&lt;/div&gt;&lt;div&gt;[H] Another Action&lt;/div&gt;" input="js_hat_down" id="T3-o9itAhu2atHjsPrg1-16">
          <mxCell style="rounded=0;whiteSpace=wrap;html=1;strokeColor=none;fillColor=none;align=center;verticalAlign=top;movable=1;resizable=1;rotatable=1;deletable=1;editable=1;locked=0;connectable=1;" vertex="1" parent="1">
            <mxGeometry x="346.25" y="1080" width="107.51" height="52" as="geometry" />
          </mxCell>
        </object>
        <object label="Action&lt;div&gt;[DT] Other Action&lt;/div&gt;&lt;div&gt;[H] Another Action&lt;/div&gt;" input="js_hat_down" id="T3-o9itAhu2atHjsPrg1-17">
          <mxCell style="rounded=0;whiteSpace=wrap;html=1;strokeColor=none;fillColor=none;align=center;verticalAlign=top;movable=1;resizable=1;rotatable=1;deletable=1;editable=1;locked=0;connectable=1;" vertex="1" parent="1">
            <mxGeometry x="92.84" y="469" width="107.51" height="52" as="geometry" />
          </mxCell>
        </object>
        <object label="Action&lt;div&gt;[DT] Other Action&lt;/div&gt;&lt;div&gt;[H] Another Action&lt;/div&gt;" input="js_hat_down" id="T3-o9itAhu2atHjsPrg1-18">
          <mxCell style="rounded=0;whiteSpace=wrap;html=1;strokeColor=none;fillColor=none;align=center;verticalAlign=top;movable=1;resizable=1;rotatable=1;deletable=1;editable=1;locked=0;connectable=1;" vertex="1" parent="1">
            <mxGeometry x="70.02" y="605" width="107.51" height="52" as="geometry" />
          </mxCell>
        </object>
        <mxCell id="T3-o9itAhu2atHjsPrg1-19" value="&lt;div style=&quot;&quot;&gt;&lt;span style=&quot;&quot;&gt;Action&lt;/span&gt;&lt;div style=&quot;&quot;&gt;Other Action&lt;/div&gt;&lt;div style=&quot;&quot;&gt;Another Action&lt;/div&gt;&lt;/div&gt;" style="rounded=0;whiteSpace=wrap;html=1;strokeColor=none;fillColor=none;align=center;verticalAlign=top;movable=1;resizable=1;rotatable=1;deletable=1;editable=1;locked=0;connectable=1;" vertex="1" parent="1">
          <mxGeometry x="127.65" y="900" width="114" height="24" as="geometry" />
        </mxCell>
        <mxCell id="T3-o9itAhu2atHjsPrg1-20" value="&lt;div style=&quot;&quot;&gt;&lt;span style=&quot;&quot;&gt;Action&lt;/span&gt;&lt;div style=&quot;&quot;&gt;Other Action&lt;/div&gt;&lt;div style=&quot;&quot;&gt;Another Action&lt;/div&gt;&lt;/div&gt;" style="rounded=0;whiteSpace=wrap;html=1;strokeColor=none;fillColor=none;align=center;verticalAlign=top;movable=1;resizable=1;rotatable=1;deletable=1;editable=1;locked=0;connectable=1;" vertex="1" parent="1">
          <mxGeometry x="26.869999999999997" y="820" width="114" height="24" as="geometry" />
        </mxCell>
        <mxCell id="T3-o9itAhu2atHjsPrg1-21" value="&lt;div style=&quot;&quot;&gt;&lt;span style=&quot;&quot;&gt;Action&lt;/span&gt;&lt;div style=&quot;&quot;&gt;Other Action&lt;/div&gt;&lt;div style=&quot;&quot;&gt;Another Action&lt;/div&gt;&lt;/div&gt;" style="rounded=0;whiteSpace=wrap;html=1;strokeColor=none;fillColor=none;align=center;verticalAlign=top;movable=1;resizable=1;rotatable=1;deletable=1;editable=1;locked=0;connectable=1;" vertex="1" parent="1">
          <mxGeometry y="960" width="114" height="24" as="geometry" />
        </mxCell>
        <mxCell id="T3-o9itAhu2atHjsPrg1-22" value="&lt;div style=&quot;&quot;&gt;&lt;span style=&quot;&quot;&gt;Action&lt;/span&gt;&lt;div style=&quot;&quot;&gt;Other Action&lt;/div&gt;&lt;div style=&quot;&quot;&gt;Another Action&lt;/div&gt;&lt;/div&gt;" style="rounded=0;whiteSpace=wrap;html=1;strokeColor=none;fillColor=none;align=center;verticalAlign=top;movable=1;resizable=1;rotatable=1;deletable=1;editable=1;locked=0;connectable=1;" vertex="1" parent="1">
          <mxGeometry x="577.87" y="950" width="114" height="24" as="geometry" />
        </mxCell>
        <mxCell id="T3-o9itAhu2atHjsPrg1-23" value="&lt;div style=&quot;&quot;&gt;&lt;span style=&quot;&quot;&gt;Action&lt;/span&gt;&lt;div style=&quot;&quot;&gt;Other Action&lt;/div&gt;&lt;div style=&quot;&quot;&gt;Another Action&lt;/div&gt;&lt;/div&gt;" style="rounded=0;whiteSpace=wrap;html=1;strokeColor=none;fillColor=none;align=center;verticalAlign=top;movable=1;resizable=1;rotatable=1;deletable=1;editable=1;locked=0;connectable=1;" vertex="1" parent="1">
          <mxGeometry x="678.37" y="1028" width="114" height="24" as="geometry" />
        </mxCell>
        <mxCell id="T3-o9itAhu2atHjsPrg1-24" value="&lt;div style=&quot;&quot;&gt;&lt;span style=&quot;&quot;&gt;Action&lt;/span&gt;&lt;div style=&quot;&quot;&gt;Other Action&lt;/div&gt;&lt;div style=&quot;&quot;&gt;Another Action&lt;/div&gt;&lt;/div&gt;" style="rounded=0;whiteSpace=wrap;html=1;strokeColor=none;fillColor=none;align=center;verticalAlign=top;movable=1;resizable=1;rotatable=1;deletable=1;editable=1;locked=0;connectable=1;" vertex="1" parent="1">
          <mxGeometry x="542" y="1080" width="114" height="24" as="geometry" />
        </mxCell>
      </root>
    </mxGraphModel>
  </diagram>
</mxfile>
